SplineFontDB: 3.0
FontName: Asap-Italic
FullName: Asap Italic
FamilyName: Asap
Weight: Regular
Copyright: Copyright (c) 2011-2014, Omnibus-Type (www.omnibus-type.com omnibus.type@gmail.com) with Reserved Font Name 'Asap'
Version: 001.006
ItalicAngle: -6
UnderlinePosition: -102.4
UnderlineWidth: 102.4
Ascent: 1638
Descent: 410
sfntRevision: 0x00010189
LayerCount: 2
Layer: 0 1 "Back"  1
Layer: 1 1 "Fore"  0
XUID: [1021 191 1600663927 440078]
FSType: 8
OS2Version: 3
OS2_WeightWidthSlopeOnly: 0
OS2_UseTypoMetrics: 1
CreationTime: 1410960463
ModificationTime: 1410988460
PfmFamily: 17
TTFWeight: 400
TTFWidth: 5
LineGap: 0
VLineGap: 0
Panose: 2 15 5 4 3 1 2 13 2 3
OS2TypoAscent: 2046
OS2TypoAOffset: 0
OS2TypoDescent: -483
OS2TypoDOffset: 0
OS2TypoLinegap: 0
OS2WinAscent: 2046
OS2WinAOffset: 0
OS2WinDescent: 483
OS2WinDOffset: 0
HheadAscent: 2046
HheadAOffset: 0
HheadDescent: -483
HheadDOffset: 0
OS2SubXSize: 1331
OS2SubYSize: 1229
OS2SubXOff: -16
OS2SubYOff: 154
OS2SupXSize: 1331
OS2SupYSize: 1229
OS2SupXOff: 76
OS2SupYOff: 717
OS2StrikeYSize: 102
OS2StrikeYPos: 641
OS2Vendor: 'OMNI'
OS2CodePages: 20000193.00000000
OS2UnicodeRanges: 20000007.00000000.00000000.00000000
Lookup: 1 0 0 "'aalt' Access All Alternates lookup 0"  {"'aalt' Access All Alternates lookup 0 subtable"  } ['aalt' ('DFLT' <'dflt' > 'grek' <'dflt' > 'latn' <'AZE ' 'CAT ' 'CRT ' 'ESP ' 'KAZ ' 'MOL ' 'NLD ' 'PLK ' 'ROM ' 'TAT ' 'TRK ' 'dflt' > ) ]
Lookup: 6 0 0 "'locl' Localized Forms in Latin lookup 1"  {"'locl' Localized Forms in Latin lookup 1 contextual 0"  "'locl' Localized Forms in Latin lookup 1 contextual 1"  } ['locl' ('latn' <'AZE ' 'CAT ' 'CRT ' 'ESP ' 'KAZ ' 'MOL ' 'PLK ' 'ROM ' 'TAT ' 'TRK ' 'dflt' > ) ]
Lookup: 1 0 0 "'locl' Localized Forms in Latin lookup 2"  {"'locl' Localized Forms in Latin lookup 2 subtable"  } ['locl' ('latn' <'TRK ' > ) ]
Lookup: 1 0 0 "'locl' Localized Forms in Latin lookup 3"  {"'locl' Localized Forms in Latin lookup 3 subtable"  } ['locl' ('latn' <'AZE ' > ) ]

StartChar: .notdef
Encoding: 65536 -1 0
Width: 1054
Flags: MW
HStem: 0 102<133 829 133 983> 1331 102<262 958 262 262>
VStem: -41 1176
LayerCount: 2
Fore
SplineSet
111 1434 m 1,0,-1
 1135 1434 l 1,1,-1
 983 0 l 1,2,-1
 -41 0 l 1,3,-1
 111 1434 l 1,0,-1
958 1331 m 1,4,-1
 262 1331 l 1,5,-1
 557 809 l 1,6,-1
 958 1331 l 1,4,-1
80 195 m 1,7,-1
 485 717 l 1,8,-1
 190 1239 l 1,9,-1
 80 195 l 1,7,-1
899 195 m 1,10,-1
 1010 1239 l 1,11,-1
 608 717 l 1,12,-1
 899 195 l 1,10,-1
829 102 m 1,13,-1
 535 625 l 1,14,-1
 133 102 l 1,15,-1
 829 102 l 1,13,-1
EndSplineSet
EndChar

StartChar: A
Encoding: 65 65 1
Width: 1255
GlyphClass: 2
Flags: MW
HStem: 365 156<356 846 356 885 283 846> 1249 188<680 684 680 680> 1397 41G<672 731 731 752>
VStem: -47 1204<26 33>
AnchorPoint: "Anchor-1" 700 1434 basechar 0
AnchorPoint: "Anchor-0" 571 0 basechar 0
LayerCount: 2
Fore
SplineSet
672 1438 m 2,0,-1
 731 1438 l 2,1,2
 803 1438 803 1438 811 1405 c 2,3,-1
 1155 57 l 2,4,5
 1157 49 1157 49 1157 37 c 0,6,7
 1157 -4 1157 -4 1067 -4 c 2,8,-1
 1051 -4 l 2,9,10
 979 -4 979 -4 971 29 c 2,11,-1
 885 365 l 1,12,-1
 283 365 l 1,13,-1
 131 29 l 2,14,15
 117 -4 117 -4 47 -4 c 2,16,-1
 37 -4 l 2,17,18
 -47 -4 -47 -4 -47 29 c 0,19,20
 -47 39 -47 39 -37 59 c 2,21,-1
 588 1405 l 2,22,23
 602 1438 602 1438 672 1438 c 2,0,-1
684 1249 m 1,24,-1
 680 1249 l 1,25,26
 655 1173 655 1173 637 1130 c 2,27,-1
 356 520 l 1,28,-1
 846 520 l 1,29,-1
 696 1130 l 2,30,31
 684 1177 684 1177 684 1249 c 1,24,-1
EndSplineSet
Substitution2: "Single Substitution lookup 20 subtable" ordfeminine
Substitution2: "'aalt' Access All Alternates lookup 0 subtable" ordfeminine
Position2: "'cpsp' Capital Spacing lookup 0 subtable" dx=10 dy=0 dh=20 dv=0
EndChar

StartChar: Aacute
Encoding: 193 193 2
Width: 1255
GlyphClass: 2
Flags: MW
HStem: 365 156<356 846 356 885 283 846> 1249 188<680 684 680 680> 1397 41G<672 731 731 752>
VStem: -47 1204<26 33>
AnchorPoint: "Anchor-1" 793 1796 basechar 0
AnchorPoint: "Anchor-0" 571 0 basechar 0
LayerCount: 2
Fore
SplineSet
897 1862 m 128,-1,1
 993 1862 993 1862 993 1837 c 0,2,3
 993 1814 993 1814 776 1597 c 0,4,5
 739 1560 739 1560 681 1560.5 c 128,-1,6
 623 1561 623 1561 623 1579 c 0,7,8
 623 1604 623 1604 764 1808 c 0,9,0
 801 1862 801 1862 897 1862 c 128,-1,1
672 1438 m 2,10,-1
 731 1438 l 2,11,12
 803 1438 803 1438 811 1405 c 2,13,-1
 1155 57 l 2,14,15
 1157 49 1157 49 1157 37 c 0,16,17
 1157 -4 1157 -4 1067 -4 c 2,18,-1
 1051 -4 l 2,19,20
 979 -4 979 -4 971 29 c 2,21,-1
 885 365 l 1,22,-1
 283 365 l 1,23,-1
 131 29 l 2,24,25
 117 -4 117 -4 47 -4 c 2,26,-1
 37 -4 l 2,27,28
 -47 -4 -47 -4 -47 29 c 0,29,30
 -47 39 -47 39 -37 59 c 2,31,-1
 588 1405 l 2,32,33
 602 1438 602 1438 672 1438 c 2,10,-1
684 1249 m 1,34,-1
 680 1249 l 1,35,36
 655 1173 655 1173 637 1130 c 2,37,-1
 356 520 l 1,38,-1
 846 520 l 1,39,-1
 696 1130 l 2,40,41
 684 1177 684 1177 684 1249 c 1,34,-1
EndSplineSet
Position2: "'cpsp' Capital Spacing lookup 0 subtable" dx=10 dy=0 dh=20 dv=0
EndChar

StartChar: Abreve
Encoding: 258 258 3
Width: 1255
GlyphClass: 2
Flags: MW
HStem: 365 156<356 846 356 885 283 846> 1249 188<680 684 680 680> 1397 41G<672 731 731 752> 1561 135<675 774 675 779>
VStem: -47 1204<26 33>
AnchorPoint: "Anchor-1" 739 1737 basechar 0
AnchorPoint: "Anchor-0" 571 0 basechar 0
LayerCount: 2
Fore
SplineSet
1001 1827 m 0,0,1
 1030 1827 1030 1827 1030 1802 c 0,2,3
 1030 1689 1030 1689 928.5 1625 c 128,-1,4
 827 1561 827 1561 712.5 1561 c 128,-1,5
 598 1561 598 1561 517 1616 c 128,-1,6
 436 1671 436 1671 436 1772 c 0,7,8
 436 1827 436 1827 471 1827 c 0,9,10
 494 1827 494 1827 498 1817.5 c 128,-1,11
 502 1808 502 1808 505 1796 c 0,12,13
 530 1696 530 1696 715.5 1696 c 128,-1,14
 901 1696 901 1696 952 1776 c 0,15,16
 958 1786 958 1786 964.5 1802.5 c 128,-1,17
 971 1819 971 1819 978 1823 c 128,-1,18
 985 1827 985 1827 1001 1827 c 0,0,1
672 1438 m 2,19,-1
 731 1438 l 2,20,21
 803 1438 803 1438 811 1405 c 2,22,-1
 1155 57 l 2,23,24
 1157 49 1157 49 1157 37 c 0,25,26
 1157 -4 1157 -4 1067 -4 c 2,27,-1
 1051 -4 l 2,28,29
 979 -4 979 -4 971 29 c 2,30,-1
 885 365 l 1,31,-1
 283 365 l 1,32,-1
 131 29 l 2,33,34
 117 -4 117 -4 47 -4 c 2,35,-1
 37 -4 l 2,36,37
 -47 -4 -47 -4 -47 29 c 0,38,39
 -47 39 -47 39 -37 59 c 2,40,-1
 588 1405 l 2,41,42
 602 1438 602 1438 672 1438 c 2,19,-1
684 1249 m 1,43,-1
 680 1249 l 1,44,45
 655 1173 655 1173 637 1130 c 2,46,-1
 356 520 l 1,47,-1
 846 520 l 1,48,-1
 696 1130 l 2,49,50
 684 1177 684 1177 684 1249 c 1,43,-1
EndSplineSet
Position2: "'cpsp' Capital Spacing lookup 0 subtable" dx=10 dy=0 dh=20 dv=0
EndChar

StartChar: Abreveacute
Encoding: 7854 7854 4
Width: 1255
GlyphClass: 2
Flags: MW
HStem: 365 156<356 846 356 885 283 846> 1249 188<680 684 680 680> 1397 41G<672 731 731 752> 1559 109<673 772 673 777>
VStem: -47 1204<26 33>
AnchorPoint: "Anchor-1" 739 1755 basechar 0
AnchorPoint: "Anchor-0" 571 0 basechar 0
LayerCount: 2
Fore
SplineSet
778 1972 m 0,0,1
 811 2025 811 2025 894 2025 c 128,-1,2
 977 2025 977 2025 977 2001 c 0,3,4
 977 1989 977 1989 788 1782 c 0,5,6
 757 1745 757 1745 711.5 1745 c 128,-1,7
 666 1745 666 1745 666 1763 c 0,8,9
 665 1792 665 1792 778 1972 c 0,0,1
1028 1784 m 0,10,11
 1028 1684 1028 1684 925.5 1621.5 c 128,-1,12
 823 1559 823 1559 709.5 1559 c 128,-1,13
 596 1559 596 1559 515 1611 c 128,-1,14
 434 1663 434 1663 434 1753 c 0,15,16
 434 1808 434 1808 469 1808 c 0,17,18
 485 1808 485 1808 490.5 1803 c 128,-1,19
 496 1798 496 1798 500 1783 c 0,20,21
 514 1729 514 1729 582.5 1698 c 128,-1,22
 651 1667 651 1667 721 1667 c 128,-1,23
 791 1667 791 1667 860.5 1698 c 128,-1,24
 930 1729 930 1729 943 1748 c 128,-1,25
 956 1767 956 1767 961.5 1778.5 c 128,-1,26
 967 1790 967 1790 970 1795 c 0,27,28
 978 1808 978 1808 1003 1808.5 c 128,-1,29
 1028 1809 1028 1809 1028 1784 c 0,10,11
672 1438 m 2,30,-1
 731 1438 l 2,31,32
 803 1438 803 1438 811 1405 c 2,33,-1
 1155 57 l 2,34,35
 1157 49 1157 49 1157 37 c 0,36,37
 1157 -4 1157 -4 1067 -4 c 2,38,-1
 1051 -4 l 2,39,40
 979 -4 979 -4 971 29 c 2,41,-1
 885 365 l 1,42,-1
 283 365 l 1,43,-1
 131 29 l 2,44,45
 117 -4 117 -4 47 -4 c 2,46,-1
 37 -4 l 2,47,48
 -47 -4 -47 -4 -47 29 c 0,49,50
 -47 39 -47 39 -37 59 c 2,51,-1
 588 1405 l 2,52,53
 602 1438 602 1438 672 1438 c 2,30,-1
684 1249 m 1,54,-1
 680 1249 l 1,55,56
 655 1173 655 1173 637 1130 c 2,57,-1
 356 520 l 1,58,-1
 846 520 l 1,59,-1
 696 1130 l 2,60,61
 684 1177 684 1177 684 1249 c 1,54,-1
EndSplineSet
Position2: "'cpsp' Capital Spacing lookup 0 subtable" dx=10 dy=0 dh=20 dv=0
EndChar

StartChar: Abrevedotbelow
Encoding: 7862 7862 5
Width: 1255
GlyphClass: 2
Flags: MW
HStem: -358 195<522 559> 365 156<356 846 356 885 283 846> 1249 188<680 684 680 680> 1397 41G<672 731 731 752> 1561 135<675 774 675 779>
VStem: 451 182<-328 -195>
AnchorPoint: "Anchor-1" 559 -168 basechar 0
AnchorPoint: "Anchor-0" 528 -416 basechar 0
LayerCount: 2
Fore
SplineSet
1001 1827 m 0,0,1
 1030 1827 1030 1827 1030 1802 c 0,2,3
 1030 1689 1030 1689 928.5 1625 c 128,-1,4
 827 1561 827 1561 712.5 1561 c 128,-1,5
 598 1561 598 1561 517 1616 c 128,-1,6
 436 1671 436 1671 436 1772 c 0,7,8
 436 1827 436 1827 471 1827 c 0,9,10
 494 1827 494 1827 498 1817.5 c 128,-1,11
 502 1808 502 1808 505 1796 c 0,12,13
 530 1696 530 1696 715.5 1696 c 128,-1,14
 901 1696 901 1696 952 1776 c 0,15,16
 958 1786 958 1786 964.5 1802.5 c 128,-1,17
 971 1819 971 1819 978 1823 c 128,-1,18
 985 1827 985 1827 1001 1827 c 0,0,1
672 1438 m 2,19,-1
 731 1438 l 2,20,21
 803 1438 803 1438 811 1405 c 2,22,-1
 1155 57 l 2,23,24
 1157 49 1157 49 1157 37 c 0,25,26
 1157 -4 1157 -4 1067 -4 c 2,27,-1
 1051 -4 l 2,28,29
 979 -4 979 -4 971 29 c 2,30,-1
 885 365 l 1,31,-1
 283 365 l 1,32,-1
 131 29 l 2,33,34
 117 -4 117 -4 47 -4 c 2,35,-1
 37 -4 l 2,36,37
 -47 -4 -47 -4 -47 29 c 0,38,39
 -47 39 -47 39 -37 59 c 2,40,-1
 588 1405 l 2,41,42
 602 1438 602 1438 672 1438 c 2,19,-1
684 1249 m 1,43,-1
 680 1249 l 1,44,45
 655 1173 655 1173 637 1130 c 2,46,-1
 356 520 l 1,47,-1
 846 520 l 1,48,-1
 696 1130 l 2,49,50
 684 1177 684 1177 684 1249 c 1,43,-1
461 -209 m 2,51,52
 467 -164 467 -164 550 -164 c 128,-1,53
 633 -164 633 -164 633 -209 c 1,54,-1
 623 -313 l 2,55,56
 617 -358 617 -358 534 -358 c 128,-1,57
 451 -358 451 -358 451 -313 c 1,58,-1
 461 -209 l 2,51,52
EndSplineSet
Position2: "'cpsp' Capital Spacing lookup 0 subtable" dx=10 dy=0 dh=20 dv=0
EndChar

StartChar: Abrevegrave
Encoding: 7856 7856 6
Width: 1255
GlyphClass: 2
Flags: MW
HStem: 365 156<356 846 356 885 283 846> 1249 188<680 684 680 680> 1397 41G<672 731 731 752> 1559 109<673 772 673 777>
VStem: -47 1204<26 33>
AnchorPoint: "Anchor-1" 739 1755 basechar 0
AnchorPoint: "Anchor-0" 571 0 basechar 0
LayerCount: 2
Fore
SplineSet
578 2007 m 0,0,1
 578 2032 578 2032 654.5 2032 c 128,-1,2
 731 2032 731 2032 752 1978 c 0,3,4
 828 1794 828 1794 827 1763 c 0,5,6
 827 1745 827 1745 778 1745 c 128,-1,7
 729 1745 729 1745 707 1782 c 0,8,9
 580 1978 580 1978 578 2007 c 0,0,1
1028 1784 m 0,10,11
 1028 1684 1028 1684 925.5 1621.5 c 128,-1,12
 823 1559 823 1559 709.5 1559 c 128,-1,13
 596 1559 596 1559 515 1611 c 128,-1,14
 434 1663 434 1663 434 1753 c 0,15,16
 434 1808 434 1808 469 1808 c 0,17,18
 485 1808 485 1808 490.5 1803 c 128,-1,19
 496 1798 496 1798 500 1783 c 0,20,21
 514 1729 514 1729 582.5 1698 c 128,-1,22
 651 1667 651 1667 721 1667 c 128,-1,23
 791 1667 791 1667 860.5 1698 c 128,-1,24
 930 1729 930 1729 943 1748 c 128,-1,25
 956 1767 956 1767 961.5 1778.5 c 128,-1,26
 967 1790 967 1790 970 1795 c 0,27,28
 978 1808 978 1808 1003 1808.5 c 128,-1,29
 1028 1809 1028 1809 1028 1784 c 0,10,11
672 1438 m 2,30,-1
 731 1438 l 2,31,32
 803 1438 803 1438 811 1405 c 2,33,-1
 1155 57 l 2,34,35
 1157 49 1157 49 1157 37 c 0,36,37
 1157 -4 1157 -4 1067 -4 c 2,38,-1
 1051 -4 l 2,39,40
 979 -4 979 -4 971 29 c 2,41,-1
 885 365 l 1,42,-1
 283 365 l 1,43,-1
 131 29 l 2,44,45
 117 -4 117 -4 47 -4 c 2,46,-1
 37 -4 l 2,47,48
 -47 -4 -47 -4 -47 29 c 0,49,50
 -47 39 -47 39 -37 59 c 2,51,-1
 588 1405 l 2,52,53
 602 1438 602 1438 672 1438 c 2,30,-1
684 1249 m 1,54,-1
 680 1249 l 1,55,56
 655 1173 655 1173 637 1130 c 2,57,-1
 356 520 l 1,58,-1
 846 520 l 1,59,-1
 696 1130 l 2,60,61
 684 1177 684 1177 684 1249 c 1,54,-1
EndSplineSet
Position2: "'cpsp' Capital Spacing lookup 0 subtable" dx=10 dy=0 dh=20 dv=0
EndChar

StartChar: Abrevehookabove
Encoding: 7858 7858 7
Width: 1255
GlyphClass: 2
Flags: MW
HStem: 365 156<356 846 356 885 283 846> 1249 188<680 684 680 680> 1397 41G<672 731 731 752> 1559 109<673 772 673 777> 1964 98<716 745>
VStem: 795 119<1894 1927>
AnchorPoint: "Anchor-1" 739 1755 basechar 0
AnchorPoint: "Anchor-0" 571 0 basechar 0
LayerCount: 2
Fore
SplineSet
795 1909 m 0,0,1
 795 1964 795 1964 725 1964 c 0,2,3
 682 1964 682 1964 655.5 1950.5 c 128,-1,4
 629 1937 629 1937 627 1937 c 0,5,6
 615 1937 615 1937 600.5 1963 c 128,-1,7
 586 1989 586 1989 586 2007 c 128,-1,8
 586 2025 586 2025 641 2043.5 c 128,-1,9
 696 2062 696 2062 755.5 2062 c 128,-1,10
 815 2062 815 2062 864 2028.5 c 128,-1,11
 913 1995 913 1995 913 1927.5 c 128,-1,12
 913 1860 913 1860 827 1792 c 0,13,14
 772 1747 772 1747 739.5 1747 c 128,-1,15
 707 1747 707 1747 687.5 1760.5 c 128,-1,16
 668 1774 668 1774 668 1789 c 128,-1,17
 668 1804 668 1804 731.5 1837 c 128,-1,18
 795 1870 795 1870 795 1909 c 0,0,1
1028 1784 m 0,19,20
 1028 1684 1028 1684 925.5 1621.5 c 128,-1,21
 823 1559 823 1559 709.5 1559 c 128,-1,22
 596 1559 596 1559 515 1611 c 128,-1,23
 434 1663 434 1663 434 1753 c 0,24,25
 434 1808 434 1808 469 1808 c 0,26,27
 485 1808 485 1808 490.5 1803 c 128,-1,28
 496 1798 496 1798 500 1783 c 0,29,30
 514 1729 514 1729 582.5 1698 c 128,-1,31
 651 1667 651 1667 721 1667 c 128,-1,32
 791 1667 791 1667 860.5 1698 c 128,-1,33
 930 1729 930 1729 943 1748 c 128,-1,34
 956 1767 956 1767 961.5 1778.5 c 128,-1,35
 967 1790 967 1790 970 1795 c 0,36,37
 978 1808 978 1808 1003 1808.5 c 128,-1,38
 1028 1809 1028 1809 1028 1784 c 0,19,20
672 1438 m 2,39,-1
 731 1438 l 2,40,41
 803 1438 803 1438 811 1405 c 2,42,-1
 1155 57 l 2,43,44
 1157 49 1157 49 1157 37 c 0,45,46
 1157 -4 1157 -4 1067 -4 c 2,47,-1
 1051 -4 l 2,48,49
 979 -4 979 -4 971 29 c 2,50,-1
 885 365 l 1,51,-1
 283 365 l 1,52,-1
 131 29 l 2,53,54
 117 -4 117 -4 47 -4 c 2,55,-1
 37 -4 l 2,56,57
 -47 -4 -47 -4 -47 29 c 0,58,59
 -47 39 -47 39 -37 59 c 2,60,-1
 588 1405 l 2,61,62
 602 1438 602 1438 672 1438 c 2,39,-1
684 1249 m 1,63,-1
 680 1249 l 1,64,65
 655 1173 655 1173 637 1130 c 2,66,-1
 356 520 l 1,67,-1
 846 520 l 1,68,-1
 696 1130 l 2,69,70
 684 1177 684 1177 684 1249 c 1,63,-1
EndSplineSet
Position2: "'cpsp' Capital Spacing lookup 0 subtable" dx=10 dy=0 dh=20 dv=0
EndChar

StartChar: Abrevetilde
Encoding: 7860 7860 8
Width: 1255
GlyphClass: 2
Flags: MW
HStem: 365 156<356 846 356 885 283 846> 1249 188<680 684 680 680> 1397 41G<672 731 731 752> 1559 109<673 772 673 777> 1849 131<864 892> 1913 131<615 643>
VStem: -47 1204<26 33>
AnchorPoint: "Anchor-1" 739 1755 basechar 0
AnchorPoint: "Anchor-0" 571 0 basechar 0
LayerCount: 2
Fore
SplineSet
983 2025 m 0,0,1
 1022 2054 1022 2054 1056 2016 c 128,-1,2
 1090 1978 1090 1978 1051 1939 c 0,3,4
 953 1849 953 1849 865.5 1849 c 128,-1,5
 778 1849 778 1849 714.5 1881 c 128,-1,6
 651 1913 651 1913 625.5 1913 c 128,-1,7
 600 1913 600 1913 540.5 1879 c 128,-1,8
 481 1845 481 1845 450.5 1889 c 128,-1,9
 420 1933 420 1933 455 1960 c 0,10,11
 559 2044 559 2044 653 2044 c 0,12,13
 714 2044 714 2044 783 2012 c 128,-1,14
 852 1980 852 1980 888 1980 c 128,-1,15
 924 1980 924 1980 983 2025 c 0,0,1
1028 1784 m 0,16,17
 1028 1684 1028 1684 925.5 1621.5 c 128,-1,18
 823 1559 823 1559 709.5 1559 c 128,-1,19
 596 1559 596 1559 515 1611 c 128,-1,20
 434 1663 434 1663 434 1753 c 0,21,22
 434 1808 434 1808 469 1808 c 0,23,24
 485 1808 485 1808 490.5 1803 c 128,-1,25
 496 1798 496 1798 500 1783 c 0,26,27
 514 1729 514 1729 582.5 1698 c 128,-1,28
 651 1667 651 1667 721 1667 c 128,-1,29
 791 1667 791 1667 860.5 1698 c 128,-1,30
 930 1729 930 1729 943 1748 c 128,-1,31
 956 1767 956 1767 961.5 1778.5 c 128,-1,32
 967 1790 967 1790 970 1795 c 0,33,34
 978 1808 978 1808 1003 1808.5 c 128,-1,35
 1028 1809 1028 1809 1028 1784 c 0,16,17
672 1438 m 2,36,-1
 731 1438 l 2,37,38
 803 1438 803 1438 811 1405 c 2,39,-1
 1155 57 l 2,40,41
 1157 49 1157 49 1157 37 c 0,42,43
 1157 -4 1157 -4 1067 -4 c 2,44,-1
 1051 -4 l 2,45,46
 979 -4 979 -4 971 29 c 2,47,-1
 885 365 l 1,48,-1
 283 365 l 1,49,-1
 131 29 l 2,50,51
 117 -4 117 -4 47 -4 c 2,52,-1
 37 -4 l 2,53,54
 -47 -4 -47 -4 -47 29 c 0,55,56
 -47 39 -47 39 -37 59 c 2,57,-1
 588 1405 l 2,58,59
 602 1438 602 1438 672 1438 c 2,36,-1
684 1249 m 1,60,-1
 680 1249 l 1,61,62
 655 1173 655 1173 637 1130 c 2,63,-1
 356 520 l 1,64,-1
 846 520 l 1,65,-1
 696 1130 l 2,66,67
 684 1177 684 1177 684 1249 c 1,60,-1
EndSplineSet
Position2: "'cpsp' Capital Spacing lookup 0 subtable" dx=10 dy=0 dh=20 dv=0
EndChar

StartChar: Acircumflex
Encoding: 194 194 9
Width: 1255
GlyphClass: 2
Flags: MW
HStem: 365 156<356 846 356 885 283 846> 1249 188<680 684 680 680> 1397 41G<672 731 731 752>
VStem: -47 1204<26 33>
AnchorPoint: "Anchor-1" 1079 1624 basechar 0
AnchorPoint: "Anchor-0" 571 0 basechar 0
LayerCount: 2
Fore
SplineSet
700 1833 m 2,0,-1
 752 1833 l 2,1,2
 818 1833 818 1833 842 1788 c 2,3,-1
 938 1608 l 2,4,5
 948 1592 948 1592 946 1567 c 0,6,7
 944 1542 944 1542 895 1542 c 2,8,-1
 891 1542 l 2,9,10
 852 1542 852 1542 825 1569 c 1,11,-1
 713 1720 l 1,12,-1
 571 1569 l 1,13,14
 538 1542 538 1542 500 1542 c 2,15,-1
 496 1542 l 2,16,17
 453 1542 453 1542 453 1567 c 0,18,19
 453 1585 453 1585 467 1608 c 2,20,-1
 602 1788 l 2,21,22
 634 1833 634 1833 700 1833 c 2,0,-1
672 1438 m 2,23,-1
 731 1438 l 2,24,25
 803 1438 803 1438 811 1405 c 2,26,-1
 1155 57 l 2,27,28
 1157 49 1157 49 1157 37 c 0,29,30
 1157 -4 1157 -4 1067 -4 c 2,31,-1
 1051 -4 l 2,32,33
 979 -4 979 -4 971 29 c 2,34,-1
 885 365 l 1,35,-1
 283 365 l 1,36,-1
 131 29 l 2,37,38
 117 -4 117 -4 47 -4 c 2,39,-1
 37 -4 l 2,40,41
 -47 -4 -47 -4 -47 29 c 0,42,43
 -47 39 -47 39 -37 59 c 2,44,-1
 588 1405 l 2,45,46
 602 1438 602 1438 672 1438 c 2,23,-1
684 1249 m 1,47,-1
 680 1249 l 1,48,49
 655 1173 655 1173 637 1130 c 2,50,-1
 356 520 l 1,51,-1
 846 520 l 1,52,-1
 696 1130 l 2,53,54
 684 1177 684 1177 684 1249 c 1,47,-1
EndSplineSet
Position2: "'cpsp' Capital Spacing lookup 0 subtable" dx=10 dy=0 dh=20 dv=0
EndChar

StartChar: Acircumflexacute
Encoding: 7844 7844 10
Width: 1255
GlyphClass: 2
Flags: MW
HStem: 365 156<356 846 356 885 283 846> 1249 188<680 684 680 680> 1397 41G<672 731 731 752> 1542 291<498 768 512 768 717 877 717 881>
VStem: -47 1286
AnchorPoint: "Anchor-1" 1001 1698 basechar 0
AnchorPoint: "Anchor-0" 571 0 basechar 0
LayerCount: 2
Fore
SplineSet
1040 1915 m 0,0,1
 1073 1968 1073 1968 1156 1968 c 128,-1,2
 1239 1968 1239 1968 1239 1944 c 0,3,4
 1239 1932 1239 1932 1051 1724 c 0,5,6
 1020 1687 1020 1687 974 1687.5 c 128,-1,7
 928 1688 928 1688 928 1706 c 0,8,9
 927 1735 927 1735 1040 1915 c 0,0,1
717 1833 m 2,10,-1
 768 1833 l 2,11,12
 817 1833 817 1833 838 1788 c 2,13,-1
 924 1608 l 1,14,15
 934 1592 934 1592 932 1567 c 128,-1,16
 930 1542 930 1542 881 1542 c 2,17,-1
 877 1542 l 2,18,19
 826 1542 826 1542 811 1569 c 2,20,-1
 729 1720 l 1,21,-1
 588 1569 l 1,22,23
 555 1542 555 1542 516 1542 c 2,24,-1
 512 1542 l 2,25,26
 469 1542 469 1542 469 1567 c 0,27,28
 469 1585 469 1585 483 1608 c 2,29,-1
 618 1788 l 2,30,31
 651 1833 651 1833 717 1833 c 2,10,-1
672 1438 m 2,32,-1
 731 1438 l 2,33,34
 803 1438 803 1438 811 1405 c 2,35,-1
 1155 57 l 2,36,37
 1157 49 1157 49 1157 37 c 0,38,39
 1157 -4 1157 -4 1067 -4 c 2,40,-1
 1051 -4 l 2,41,42
 979 -4 979 -4 971 29 c 2,43,-1
 885 365 l 1,44,-1
 283 365 l 1,45,-1
 131 29 l 2,46,47
 117 -4 117 -4 47 -4 c 2,48,-1
 37 -4 l 2,49,50
 -47 -4 -47 -4 -47 29 c 0,51,52
 -47 39 -47 39 -37 59 c 2,53,-1
 588 1405 l 2,54,55
 602 1438 602 1438 672 1438 c 2,32,-1
684 1249 m 1,56,-1
 680 1249 l 1,57,58
 655 1173 655 1173 637 1130 c 2,59,-1
 356 520 l 1,60,-1
 846 520 l 1,61,-1
 696 1130 l 2,62,63
 684 1177 684 1177 684 1249 c 1,56,-1
EndSplineSet
Position2: "'cpsp' Capital Spacing lookup 0 subtable" dx=10 dy=0 dh=20 dv=0
EndChar

StartChar: Acircumflexdotbelow
Encoding: 7852 7852 11
Width: 1255
GlyphClass: 2
Flags: MW
HStem: -358 195<522 559> 365 156<356 846 356 885 283 846> 1249 188<680 684 680 680> 1397 41G<672 731 731 752>
VStem: 451 182<-328 -195>
AnchorPoint: "Anchor-1" 559 -168 basechar 0
AnchorPoint: "Anchor-0" 528 -416 basechar 0
LayerCount: 2
Fore
SplineSet
700 1833 m 2,0,-1
 752 1833 l 2,1,2
 818 1833 818 1833 842 1788 c 2,3,-1
 938 1608 l 2,4,5
 948 1592 948 1592 946 1567 c 128,-1,6
 944 1542 944 1542 895 1542 c 2,7,-1
 891 1542 l 2,8,9
 852 1542 852 1542 825 1569 c 1,10,-1
 713 1720 l 1,11,-1
 571 1569 l 1,12,13
 538 1542 538 1542 500 1542 c 2,14,-1
 496 1542 l 2,15,16
 453 1542 453 1542 453 1567 c 0,17,18
 453 1585 453 1585 467 1608 c 2,19,-1
 602 1788 l 2,20,21
 634 1833 634 1833 700 1833 c 2,0,-1
672 1438 m 2,22,-1
 731 1438 l 2,23,24
 803 1438 803 1438 811 1405 c 2,25,-1
 1155 57 l 2,26,27
 1157 49 1157 49 1157 37 c 0,28,29
 1157 -4 1157 -4 1067 -4 c 2,30,-1
 1051 -4 l 2,31,32
 979 -4 979 -4 971 29 c 2,33,-1
 885 365 l 1,34,-1
 283 365 l 1,35,-1
 131 29 l 2,36,37
 117 -4 117 -4 47 -4 c 2,38,-1
 37 -4 l 2,39,40
 -47 -4 -47 -4 -47 29 c 0,41,42
 -47 39 -47 39 -37 59 c 2,43,-1
 588 1405 l 2,44,45
 602 1438 602 1438 672 1438 c 2,22,-1
684 1249 m 1,46,-1
 680 1249 l 1,47,48
 655 1173 655 1173 637 1130 c 2,49,-1
 356 520 l 1,50,-1
 846 520 l 1,51,-1
 696 1130 l 2,52,53
 684 1177 684 1177 684 1249 c 1,46,-1
461 -209 m 2,54,55
 467 -164 467 -164 550 -164 c 128,-1,56
 633 -164 633 -164 633 -209 c 1,57,-1
 623 -313 l 2,58,59
 617 -358 617 -358 534 -358 c 128,-1,60
 451 -358 451 -358 451 -313 c 1,61,-1
 461 -209 l 2,54,55
EndSplineSet
Position2: "'cpsp' Capital Spacing lookup 0 subtable" dx=10 dy=0 dh=20 dv=0
EndChar

StartChar: Acircumflexgrave
Encoding: 7846 7846 12
Width: 1255
GlyphClass: 2
Flags: MW
HStem: 365 156<356 846 356 885 283 846> 1249 188<680 684 680 680> 1397 41G<672 731 731 752> 1542 291<498 768 512 768 717 877 717 881>
VStem: -47 1204<26 33>
AnchorPoint: "Anchor-1" 1001 1698 basechar 0
AnchorPoint: "Anchor-0" 571 0 basechar 0
LayerCount: 2
Fore
SplineSet
840 1950 m 0,0,1
 840 1975 840 1975 916.5 1974.5 c 128,-1,2
 993 1974 993 1974 1014 1921 c 0,3,4
 1090 1737 1090 1737 1090 1706 c 0,5,6
 1090 1688 1090 1688 1040.5 1688 c 128,-1,7
 991 1688 991 1688 969 1724 c 0,8,9
 842 1921 842 1921 840 1950 c 0,0,1
717 1833 m 2,10,-1
 768 1833 l 2,11,12
 817 1833 817 1833 838 1788 c 2,13,-1
 924 1608 l 1,14,15
 934 1592 934 1592 932 1567 c 128,-1,16
 930 1542 930 1542 881 1542 c 2,17,-1
 877 1542 l 2,18,19
 826 1542 826 1542 811 1569 c 2,20,-1
 729 1720 l 1,21,-1
 588 1569 l 1,22,23
 555 1542 555 1542 516 1542 c 2,24,-1
 512 1542 l 2,25,26
 469 1542 469 1542 469 1567 c 0,27,28
 469 1585 469 1585 483 1608 c 2,29,-1
 618 1788 l 2,30,31
 651 1833 651 1833 717 1833 c 2,10,-1
672 1438 m 2,32,-1
 731 1438 l 2,33,34
 803 1438 803 1438 811 1405 c 2,35,-1
 1155 57 l 2,36,37
 1157 49 1157 49 1157 37 c 0,38,39
 1157 -4 1157 -4 1067 -4 c 2,40,-1
 1051 -4 l 2,41,42
 979 -4 979 -4 971 29 c 2,43,-1
 885 365 l 1,44,-1
 283 365 l 1,45,-1
 131 29 l 2,46,47
 117 -4 117 -4 47 -4 c 2,48,-1
 37 -4 l 2,49,50
 -47 -4 -47 -4 -47 29 c 0,51,52
 -47 39 -47 39 -37 59 c 2,53,-1
 588 1405 l 2,54,55
 602 1438 602 1438 672 1438 c 2,32,-1
684 1249 m 1,56,-1
 680 1249 l 1,57,58
 655 1173 655 1173 637 1130 c 2,59,-1
 356 520 l 1,60,-1
 846 520 l 1,61,-1
 696 1130 l 2,62,63
 684 1177 684 1177 684 1249 c 1,56,-1
EndSplineSet
Position2: "'cpsp' Capital Spacing lookup 0 subtable" dx=10 dy=0 dh=20 dv=0
EndChar

StartChar: Acircumflexhookabove
Encoding: 7848 7848 13
Width: 1255
GlyphClass: 2
Flags: MW
HStem: 365 156<356 846 356 885 283 846> 1249 188<680 684 680 680> 1397 41G<672 731 731 752> 1542 291<498 768 512 768 717 877 717 881> 1907 98<978 1008>
VStem: 1057 119<1837 1870>
AnchorPoint: "Anchor-1" 1001 1698 basechar 0
AnchorPoint: "Anchor-0" 571 0 basechar 0
LayerCount: 2
Fore
SplineSet
1057 1851 m 0,0,1
 1057 1906 1057 1906 987 1907 c 0,2,3
 944 1907 944 1907 917.5 1893.5 c 128,-1,4
 891 1880 891 1880 889 1880 c 0,5,6
 877 1880 877 1880 862.5 1905.5 c 128,-1,7
 848 1931 848 1931 848 1949.5 c 128,-1,8
 848 1968 848 1968 903 1986.5 c 128,-1,9
 958 2005 958 2005 1017.5 2005 c 128,-1,10
 1077 2005 1077 2005 1126.5 1971 c 128,-1,11
 1176 1937 1176 1937 1176 1869.5 c 128,-1,12
 1176 1802 1176 1802 1090 1735 c 0,13,14
 1033 1690 1033 1690 1001 1690 c 128,-1,15
 969 1690 969 1690 949.5 1703 c 128,-1,16
 930 1716 930 1716 930 1731.5 c 128,-1,17
 930 1747 930 1747 993.5 1779.5 c 128,-1,18
 1057 1812 1057 1812 1057 1851 c 0,0,1
717 1833 m 2,19,-1
 768 1833 l 2,20,21
 817 1833 817 1833 838 1788 c 2,22,-1
 924 1608 l 1,23,24
 934 1592 934 1592 932 1567 c 128,-1,25
 930 1542 930 1542 881 1542 c 2,26,-1
 877 1542 l 2,27,28
 826 1542 826 1542 811 1569 c 2,29,-1
 729 1720 l 1,30,-1
 588 1569 l 1,31,32
 555 1542 555 1542 516 1542 c 2,33,-1
 512 1542 l 2,34,35
 469 1542 469 1542 469 1567 c 0,36,37
 469 1585 469 1585 483 1608 c 2,38,-1
 618 1788 l 2,39,40
 651 1833 651 1833 717 1833 c 2,19,-1
672 1438 m 2,41,-1
 731 1438 l 2,42,43
 803 1438 803 1438 811 1405 c 2,44,-1
 1155 57 l 2,45,46
 1157 49 1157 49 1157 37 c 0,47,48
 1157 -4 1157 -4 1067 -4 c 2,49,-1
 1051 -4 l 2,50,51
 979 -4 979 -4 971 29 c 2,52,-1
 885 365 l 1,53,-1
 283 365 l 1,54,-1
 131 29 l 2,55,56
 117 -4 117 -4 47 -4 c 2,57,-1
 37 -4 l 2,58,59
 -47 -4 -47 -4 -47 29 c 0,60,61
 -47 39 -47 39 -37 59 c 2,62,-1
 588 1405 l 2,63,64
 602 1438 602 1438 672 1438 c 2,41,-1
684 1249 m 1,65,-1
 680 1249 l 1,66,67
 655 1173 655 1173 637 1130 c 2,68,-1
 356 520 l 1,69,-1
 846 520 l 1,70,-1
 696 1130 l 2,71,72
 684 1177 684 1177 684 1249 c 1,65,-1
EndSplineSet
Position2: "'cpsp' Capital Spacing lookup 0 subtable" dx=10 dy=0 dh=20 dv=0
EndChar

StartChar: Acircumflextilde
Encoding: 7850 7850 14
Width: 1255
GlyphClass: 2
Flags: MW
HStem: 365 156<356 846 356 885 283 846> 1249 188<680 684 680 680> 1397 41G<672 731 731 752> 1544 240<485 758 500 758 707 895 707 899> 1849 131<862 890> 1913 131<613 641>
VStem: -47 1204<26 33>
AnchorPoint: "Anchor-1" 750 1796 basechar 0
AnchorPoint: "Anchor-0" 571 0 basechar 0
LayerCount: 2
Fore
SplineSet
981 2025 m 0,0,1
 1020 2054 1020 2054 1054 2016 c 0,2,3
 1088 1978 1088 1978 1049 1939 c 0,4,5
 951 1849 951 1849 863 1849 c 0,6,7
 776 1849 776 1849 713 1881 c 0,8,9
 650 1913 650 1913 624 1913 c 0,10,11
 598 1913 598 1913 539 1879 c 0,12,13
 480 1845 480 1845 449 1889 c 0,14,15
 418 1933 418 1933 453 1960 c 0,16,17
 557 2044 557 2044 651 2044 c 0,18,19
 712 2044 712 2044 781 2012 c 0,20,21
 850 1980 850 1980 886 1980 c 0,22,23
 922 1980 922 1980 981 2025 c 0,0,1
707 1784 m 2,24,-1
 758 1784 l 2,25,26
 807 1784 807 1784 848 1739 c 1,27,-1
 942 1610 l 2,28,29
 952 1594 952 1594 950 1569 c 0,30,31
 948 1544 948 1544 899 1544 c 2,32,-1
 895 1544 l 2,33,34
 864 1544 864 1544 829 1571 c 1,35,-1
 719 1671 l 1,36,-1
 575 1571 l 1,37,38
 530 1544 530 1544 504 1544 c 2,39,-1
 500 1544 l 2,40,41
 457 1544 457 1544 457 1569 c 0,42,43
 457 1587 457 1587 471 1610 c 1,44,-1
 608 1739 l 1,45,46
 664 1784 664 1784 707 1784 c 2,24,-1
672 1438 m 2,47,-1
 731 1438 l 2,48,49
 803 1438 803 1438 811 1405 c 2,50,-1
 1155 57 l 2,51,52
 1157 49 1157 49 1157 37 c 0,53,54
 1157 -4 1157 -4 1067 -4 c 2,55,-1
 1051 -4 l 2,56,57
 979 -4 979 -4 971 29 c 2,58,-1
 885 365 l 1,59,-1
 283 365 l 1,60,-1
 131 29 l 2,61,62
 117 -4 117 -4 47 -4 c 2,63,-1
 37 -4 l 2,64,65
 -47 -4 -47 -4 -47 29 c 0,66,67
 -47 39 -47 39 -37 59 c 2,68,-1
 588 1405 l 2,69,70
 602 1438 602 1438 672 1438 c 2,47,-1
684 1249 m 1,71,-1
 680 1249 l 1,72,73
 655 1173 655 1173 637 1130 c 2,74,-1
 356 520 l 1,75,-1
 846 520 l 1,76,-1
 696 1130 l 2,77,78
 684 1177 684 1177 684 1249 c 1,71,-1
EndSplineSet
Position2: "'cpsp' Capital Spacing lookup 0 subtable" dx=10 dy=0 dh=20 dv=0
EndChar

StartChar: Adieresis
Encoding: 196 196 15
Width: 1255
GlyphClass: 2
Flags: MW
HStem: 365 156<356 846 356 885 283 846> 1249 188<680 684 680 680> 1397 41G<672 731 731 752> 1606 195<555 592 850 887>
VStem: 483 182<1636 1769> 778 182<1636 1769>
AnchorPoint: "Anchor-1" 741 1796 basechar 0
AnchorPoint: "Anchor-0" 571 0 basechar 0
LayerCount: 2
Fore
SplineSet
494 1755 m 2,0,1
 500 1800 500 1800 583 1800 c 128,-1,2
 666 1800 666 1800 666 1755 c 1,3,-1
 655 1651 l 2,4,5
 649 1606 649 1606 566 1606 c 128,-1,6
 483 1606 483 1606 483 1651 c 1,7,-1
 494 1755 l 2,0,1
788 1755 m 2,8,9
 792 1800 792 1800 876.5 1800 c 128,-1,10
 961 1800 961 1800 961 1755 c 1,11,-1
 950 1651 l 2,12,13
 944 1606 944 1606 861 1606 c 128,-1,14
 778 1606 778 1606 778 1651 c 1,15,-1
 788 1755 l 2,8,9
672 1438 m 2,16,-1
 731 1438 l 2,17,18
 803 1438 803 1438 811 1405 c 2,19,-1
 1155 57 l 2,20,21
 1157 49 1157 49 1157 37 c 0,22,23
 1157 -4 1157 -4 1067 -4 c 2,24,-1
 1051 -4 l 2,25,26
 979 -4 979 -4 971 29 c 2,27,-1
 885 365 l 1,28,-1
 283 365 l 1,29,-1
 131 29 l 2,30,31
 117 -4 117 -4 47 -4 c 2,32,-1
 37 -4 l 2,33,34
 -47 -4 -47 -4 -47 29 c 0,35,36
 -47 39 -47 39 -37 59 c 2,37,-1
 588 1405 l 2,38,39
 602 1438 602 1438 672 1438 c 2,16,-1
684 1249 m 1,40,-1
 680 1249 l 1,41,42
 655 1173 655 1173 637 1130 c 2,43,-1
 356 520 l 1,44,-1
 846 520 l 1,45,-1
 696 1130 l 2,46,47
 684 1177 684 1177 684 1249 c 1,40,-1
EndSplineSet
Position2: "'cpsp' Capital Spacing lookup 0 subtable" dx=10 dy=0 dh=20 dv=0
EndChar

StartChar: Adotbelow
Encoding: 7840 7840 16
Width: 1255
GlyphClass: 2
Flags: MW
HStem: -358 195<522 559> 365 156<356 846 356 885 283 846> 1249 188<680 684 680 680> 1397 41G<672 731 731 752>
VStem: 451 182<-328 -195>
AnchorPoint: "Anchor-1" 559 -168 basechar 0
AnchorPoint: "Anchor-0" 528 -416 basechar 0
LayerCount: 2
Fore
SplineSet
672 1438 m 2,0,-1
 731 1438 l 2,1,2
 803 1438 803 1438 811 1405 c 2,3,-1
 1155 57 l 2,4,5
 1157 49 1157 49 1157 37 c 0,6,7
 1157 -4 1157 -4 1067 -4 c 2,8,-1
 1051 -4 l 2,9,10
 979 -4 979 -4 971 29 c 2,11,-1
 885 365 l 1,12,-1
 283 365 l 1,13,-1
 131 29 l 2,14,15
 117 -4 117 -4 47 -4 c 2,16,-1
 37 -4 l 2,17,18
 -47 -4 -47 -4 -47 29 c 0,19,20
 -47 39 -47 39 -37 59 c 2,21,-1
 588 1405 l 2,22,23
 602 1438 602 1438 672 1438 c 2,0,-1
684 1249 m 1,24,-1
 680 1249 l 1,25,26
 655 1173 655 1173 637 1130 c 2,27,-1
 356 520 l 1,28,-1
 846 520 l 1,29,-1
 696 1130 l 2,30,31
 684 1177 684 1177 684 1249 c 1,24,-1
461 -209 m 2,32,33
 467 -164 467 -164 550 -164 c 128,-1,34
 633 -164 633 -164 633 -209 c 1,35,-1
 623 -313 l 2,36,37
 617 -358 617 -358 534 -358 c 128,-1,38
 451 -358 451 -358 451 -313 c 1,39,-1
 461 -209 l 2,32,33
EndSplineSet
Position2: "'cpsp' Capital Spacing lookup 0 subtable" dx=10 dy=0 dh=20 dv=0
EndChar

StartChar: Agrave
Encoding: 192 192 17
Width: 1255
GlyphClass: 2
Flags: MW
HStem: 365 156<356 846 356 885 283 846> 1249 188<680 684 680 680> 1397 41G<672 731 731 752>
VStem: -47 1204<26 33>
AnchorPoint: "Anchor-1" 743 1796 basechar 0
AnchorPoint: "Anchor-0" 571 0 basechar 0
LayerCount: 2
Fore
SplineSet
555 1862 m 128,-1,1
 651 1862 651 1862 682 1808 c 0,2,3
 801 1605 801 1605 801 1579 c 0,4,5
 801 1561 801 1561 740 1561 c 0,6,7
 680 1561 680 1561 649 1597 c 0,8,9
 469 1802 469 1802 463 1816 c 0,10,11
 457 1829 457 1829 457 1837 c 0,12,0
 459 1862 459 1862 555 1862 c 128,-1,1
672 1438 m 2,13,-1
 731 1438 l 2,14,15
 803 1438 803 1438 811 1405 c 2,16,-1
 1155 57 l 2,17,18
 1157 49 1157 49 1157 37 c 0,19,20
 1157 -4 1157 -4 1067 -4 c 2,21,-1
 1051 -4 l 2,22,23
 979 -4 979 -4 971 29 c 2,24,-1
 885 365 l 1,25,-1
 283 365 l 1,26,-1
 131 29 l 2,27,28
 117 -4 117 -4 47 -4 c 2,29,-1
 37 -4 l 2,30,31
 -47 -4 -47 -4 -47 29 c 0,32,33
 -47 39 -47 39 -37 59 c 2,34,-1
 588 1405 l 2,35,36
 602 1438 602 1438 672 1438 c 2,13,-1
684 1249 m 1,37,-1
 680 1249 l 1,38,39
 655 1173 655 1173 637 1130 c 2,40,-1
 356 520 l 1,41,-1
 846 520 l 1,42,-1
 696 1130 l 2,43,44
 684 1177 684 1177 684 1249 c 1,37,-1
EndSplineSet
Position2: "'cpsp' Capital Spacing lookup 0 subtable" dx=10 dy=0 dh=20 dv=0
EndChar

StartChar: Ahookabove
Encoding: 7842 7842 18
Width: 1255
GlyphClass: 2
Flags: MW
HStem: 365 156<356 846 356 885 283 846> 1249 188<680 684 680 680> 1397 41G<672 731 731 752> 1794 104<712 741>
VStem: 791 135<1690 1759>
AnchorPoint: "Anchor-1" 739 1796 basechar 0
AnchorPoint: "Anchor-0" 571 0 basechar 0
LayerCount: 2
Fore
SplineSet
791 1743 m 0,0,1
 791 1794 791 1794 721 1794 c 0,2,3
 670 1794 670 1794 647.5 1780.5 c 128,-1,4
 625 1767 625 1767 623 1767 c 0,5,6
 611 1767 611 1767 596.5 1793 c 128,-1,7
 582 1819 582 1819 582 1837 c 128,-1,8
 582 1855 582 1855 638 1876.5 c 128,-1,9
 694 1898 694 1898 753.5 1898 c 128,-1,10
 813 1898 813 1898 869.5 1863.5 c 128,-1,11
 926 1829 926 1829 926 1767.5 c 128,-1,12
 926 1706 926 1706 897 1658 c 128,-1,13
 868 1610 868 1610 831 1581 c 0,14,15
 747 1515 747 1515 718.5 1515.5 c 128,-1,16
 690 1516 690 1516 666.5 1526 c 128,-1,17
 643 1536 643 1536 643 1554.5 c 128,-1,18
 643 1573 643 1573 680 1598 c 0,19,20
 791 1675 791 1675 791 1743 c 0,0,1
672 1438 m 2,21,-1
 731 1438 l 2,22,23
 803 1438 803 1438 811 1405 c 2,24,-1
 1155 57 l 2,25,26
 1157 49 1157 49 1157 37 c 0,27,28
 1157 -4 1157 -4 1067 -4 c 2,29,-1
 1051 -4 l 2,30,31
 979 -4 979 -4 971 29 c 2,32,-1
 885 365 l 1,33,-1
 283 365 l 1,34,-1
 131 29 l 2,35,36
 117 -4 117 -4 47 -4 c 2,37,-1
 37 -4 l 2,38,39
 -47 -4 -47 -4 -47 29 c 0,40,41
 -47 39 -47 39 -37 59 c 2,42,-1
 588 1405 l 2,43,44
 602 1438 602 1438 672 1438 c 2,21,-1
684 1249 m 1,45,-1
 680 1249 l 1,46,47
 655 1173 655 1173 637 1130 c 2,48,-1
 356 520 l 1,49,-1
 846 520 l 1,50,-1
 696 1130 l 2,51,52
 684 1177 684 1177 684 1249 c 1,45,-1
EndSplineSet
Position2: "'cpsp' Capital Spacing lookup 0 subtable" dx=10 dy=0 dh=20 dv=0
EndChar

StartChar: Amacron
Encoding: 256 256 19
Width: 1255
GlyphClass: 2
Flags: MW
HStem: 365 156<356 846 356 885 283 846> 1249 188<680 684 680 680> 1397 41G<672 731 731 752> 1616 145<446 940 477 924>
VStem: -47 1204<26 33>
AnchorPoint: "Anchor-1" 731 1796 basechar 0
AnchorPoint: "Anchor-0" 571 0 basechar 0
LayerCount: 2
Fore
SplineSet
477 1761 m 2,0,-1
 940 1761 l 2,1,2
 975 1761 975 1761 975 1708 c 0,3,4
 975 1616 975 1616 924 1616 c 2,5,-1
 461 1616 l 2,6,7
 426 1616 426 1616 426 1671 c 0,8,9
 426 1761 426 1761 477 1761 c 2,0,-1
672 1438 m 2,10,-1
 731 1438 l 2,11,12
 803 1438 803 1438 811 1405 c 2,13,-1
 1155 57 l 2,14,15
 1157 49 1157 49 1157 37 c 0,16,17
 1157 -4 1157 -4 1067 -4 c 2,18,-1
 1051 -4 l 2,19,20
 979 -4 979 -4 971 29 c 2,21,-1
 885 365 l 1,22,-1
 283 365 l 1,23,-1
 131 29 l 2,24,25
 117 -4 117 -4 47 -4 c 2,26,-1
 37 -4 l 2,27,28
 -47 -4 -47 -4 -47 29 c 0,29,30
 -47 39 -47 39 -37 59 c 2,31,-1
 588 1405 l 2,32,33
 602 1438 602 1438 672 1438 c 2,10,-1
684 1249 m 1,34,-1
 680 1249 l 1,35,36
 655 1173 655 1173 637 1130 c 2,37,-1
 356 520 l 1,38,-1
 846 520 l 1,39,-1
 696 1130 l 2,40,41
 684 1177 684 1177 684 1249 c 1,34,-1
EndSplineSet
Position2: "'cpsp' Capital Spacing lookup 0 subtable" dx=10 dy=0 dh=20 dv=0
EndChar

StartChar: Aogonek
Encoding: 260 260 20
Width: 1255
GlyphClass: 2
Flags: MW
HStem: -375 143<1161 1189> 365 156<356 846 356 885 283 846> 1249 188<680 684 680 680> 1397 41G<672 731 731 752>
VStem: 924 141<-184 -174>
AnchorPoint: "Anchor-1" 700 1434 basechar 0
AnchorPoint: "Anchor-0" 1032 -416 basechar 0
LayerCount: 2
Fore
SplineSet
1315 -195 m 0,0,1
 1327 -195 1327 -195 1327 -221 c 0,2,3
 1327 -375 1327 -375 1145 -375 c 0,4,5
 1018 -375 1018 -375 971 -319.5 c 128,-1,6
 924 -264 924 -264 924 -208 c 0,7,8
 924 -152 924 -152 942.5 -91.5 c 128,-1,9
 961 -31 961 -31 999 2 c 1,10,11
 976 12 976 12 971 29 c 2,12,-1
 885 365 l 1,13,-1
 283 365 l 1,14,-1
 131 29 l 2,15,16
 117 -4 117 -4 47 -4 c 2,17,-1
 37 -4 l 2,18,19
 -47 -4 -47 -4 -47 29 c 0,20,21
 -47 39 -47 39 -37 59 c 2,22,-1
 588 1405 l 2,23,24
 602 1438 602 1438 672 1438 c 2,25,-1
 731 1438 l 2,26,27
 803 1438 803 1438 811 1405 c 2,28,-1
 1155 57 l 2,29,30
 1157 49 1157 49 1157 37 c 0,31,32
 1157 6 1157 6 1104 -2 c 1,33,34
 1102 -12 1102 -12 1083.5 -62.5 c 128,-1,35
 1065 -113 1065 -113 1065 -143 c 0,36,37
 1065 -231 1065 -231 1184 -231 c 0,38,39
 1221 -231 1221 -231 1266 -213 c 128,-1,40
 1311 -195 1311 -195 1315 -195 c 0,0,1
846 520 m 1,41,-1
 696 1130 l 2,42,43
 684 1177 684 1177 684 1249 c 1,44,-1
 680 1249 l 1,45,46
 655 1173 655 1173 637 1130 c 2,47,-1
 356 520 l 1,48,-1
 846 520 l 1,41,-1
EndSplineSet
Position2: "'cpsp' Capital Spacing lookup 0 subtable" dx=10 dy=0 dh=20 dv=0
EndChar

StartChar: Aring
Encoding: 197 197 21
Width: 1255
GlyphClass: 2
Flags: MW
HStem: 365 156<356 846 356 885 283 846> 1249 188<680 684 680 680> 1397 41G<672 731 731 752> 1518 72<663 722 663 735> 1792 72<683 739>
VStem: 528 72<1655 1712 1655 1725> 803 72<1670 1727>
AnchorPoint: "Anchor-1" 743 1796 basechar 0
AnchorPoint: "Anchor-0" 571 0 basechar 0
LayerCount: 2
Fore
SplineSet
585.5 1807.5 m 128,-1,1
 643 1864 643 1864 714.5 1864 c 128,-1,2
 786 1864 786 1864 830 1819 c 128,-1,3
 874 1774 874 1774 874 1702 c 128,-1,4
 874 1630 874 1630 818 1574 c 128,-1,5
 762 1518 762 1518 689 1518 c 128,-1,6
 616 1518 616 1518 572 1562 c 128,-1,7
 528 1606 528 1606 528 1678.5 c 128,-1,0
 528 1751 528 1751 585.5 1807.5 c 128,-1,1
777.5 1766.5 m 128,-1,9
 752 1792 752 1792 710 1792 c 128,-1,10
 668 1792 668 1792 634 1759 c 128,-1,11
 600 1726 600 1726 600 1683 c 128,-1,12
 600 1640 600 1640 624.5 1614.5 c 128,-1,13
 649 1589 649 1589 693 1589 c 128,-1,14
 737 1589 737 1589 770 1622 c 128,-1,15
 803 1655 803 1655 803 1698 c 128,-1,8
 803 1741 803 1741 777.5 1766.5 c 128,-1,9
672 1438 m 2,16,-1
 731 1438 l 2,17,18
 803 1438 803 1438 811 1405 c 2,19,-1
 1155 57 l 2,20,21
 1157 49 1157 49 1157 37 c 0,22,23
 1157 -4 1157 -4 1067 -4 c 2,24,-1
 1051 -4 l 2,25,26
 979 -4 979 -4 971 29 c 2,27,-1
 885 365 l 1,28,-1
 283 365 l 1,29,-1
 131 29 l 2,30,31
 117 -4 117 -4 47 -4 c 2,32,-1
 37 -4 l 2,33,34
 -47 -4 -47 -4 -47 29 c 0,35,36
 -47 39 -47 39 -37 59 c 2,37,-1
 588 1405 l 2,38,39
 602 1438 602 1438 672 1438 c 2,16,-1
684 1249 m 1,40,-1
 680 1249 l 1,41,42
 655 1173 655 1173 637 1130 c 2,43,-1
 356 520 l 1,44,-1
 846 520 l 1,45,-1
 696 1130 l 2,46,47
 684 1177 684 1177 684 1249 c 1,40,-1
EndSplineSet
Position2: "'cpsp' Capital Spacing lookup 0 subtable" dx=10 dy=0 dh=20 dv=0
EndChar

StartChar: Aringacute
Encoding: 506 506 22
Width: 1255
GlyphClass: 2
Flags: MW
HStem: 365 156<356 846 356 885 283 846> 1552 72<693 750> 1683 219<707 936>
VStem: 539 72<1418 1473 1415 1486> 813 72<1443 1488>
AnchorPoint: "Anchor-1" 754 1556 basechar 0
AnchorPoint: "Anchor-0" 0 0 basechar 0
LayerCount: 2
Fore
SplineSet
770 1849 m 0,0,1
 805 1902 805 1902 901 1902.5 c 128,-1,2
 997 1903 997 1903 997 1876 c 0,3,4
 997 1866 997 1866 960.5 1834 c 128,-1,5
 924 1802 924 1802 912.5 1792 c 128,-1,6
 901 1782 901 1782 877.5 1761.5 c 128,-1,7
 854 1741 854 1741 831 1720 c 0,8,9
 794 1683 794 1683 736 1683 c 128,-1,10
 678 1683 678 1683 678 1704 c 1,11,12
 686 1718 686 1718 770 1849 c 0,0,1
829 1335 m 1,13,-1
 1155 57 l 2,14,15
 1157 49 1157 49 1157 37 c 0,16,17
 1157 -4 1157 -4 1067 -4 c 2,18,-1
 1051 -4 l 2,19,20
 979 -4 979 -4 971 29 c 2,21,-1
 885 365 l 1,22,-1
 283 365 l 1,23,-1
 131 29 l 2,24,25
 117 -4 117 -4 47 -4 c 2,26,-1
 37 -4 l 2,27,28
 -47 -4 -47 -4 -47 29 c 0,29,30
 -47 39 -47 39 -37 59 c 2,31,-1
 561 1350 l 1,32,33
 538 1385 538 1385 538.5 1448 c 128,-1,34
 539 1511 539 1511 596 1567.5 c 128,-1,35
 653 1624 653 1624 725 1624 c 128,-1,36
 797 1624 797 1624 841 1579 c 128,-1,37
 885 1534 885 1534 884.5 1464 c 128,-1,38
 884 1394 884 1394 829 1335 c 1,13,-1
787.5 1526.5 m 128,-1,40
 762 1552 762 1552 720 1552 c 128,-1,41
 678 1552 678 1552 644 1519.5 c 128,-1,42
 610 1487 610 1487 610 1444 c 128,-1,43
 610 1401 610 1401 634.5 1375.5 c 128,-1,44
 659 1350 659 1350 703.5 1350 c 128,-1,45
 748 1350 748 1350 780.5 1382.5 c 128,-1,46
 813 1415 813 1415 813 1458 c 128,-1,39
 813 1501 813 1501 787.5 1526.5 c 128,-1,40
846 520 m 1,47,-1
 696 1130 l 2,48,49
 684 1177 684 1177 684 1249 c 1,50,-1
 680 1249 l 1,51,52
 655 1173 655 1173 637 1130 c 2,53,-1
 356 520 l 1,54,-1
 846 520 l 1,47,-1
EndSplineSet
Position2: "'cpsp' Capital Spacing lookup 0 subtable" dx=10 dy=0 dh=20 dv=0
EndChar

StartChar: Atilde
Encoding: 195 195 23
Width: 1255
GlyphClass: 2
Flags: MW
HStem: 365 156<356 846 356 885 283 846> 1249 188<680 684 680 680> 1397 41G<672 731 731 752> 1561 131<860 890> 1624 131<587 617>
VStem: -47 1204<26 33>
AnchorPoint: "Anchor-1" 772 1796 basechar 0
AnchorPoint: "Anchor-0" 571 0 basechar 0
LayerCount: 2
Fore
SplineSet
991 1737 m 0,0,1
 1034 1766 1034 1766 1071 1729 c 0,2,3
 1108 1692 1108 1692 1065 1651 c 0,4,5
 956 1561 956 1561 860 1561 c 0,6,7
 764 1561 764 1561 694 1592 c 0,8,9
 624 1624 624 1624 596 1624 c 0,10,11
 567 1624 567 1624 503 1590 c 0,12,13
 438 1556 438 1556 406 1601 c 0,14,15
 373 1645 373 1645 410 1671 c 0,16,17
 527 1755 527 1755 629 1755 c 0,18,19
 692 1755 692 1755 769 1723 c 0,20,21
 846 1691 846 1691 885 1692 c 0,22,23
 923 1692 923 1692 991 1737 c 0,0,1
672 1438 m 2,24,-1
 731 1438 l 2,25,26
 803 1438 803 1438 811 1405 c 2,27,-1
 1155 57 l 2,28,29
 1157 49 1157 49 1157 37 c 0,30,31
 1157 -4 1157 -4 1067 -4 c 2,32,-1
 1051 -4 l 2,33,34
 979 -4 979 -4 971 29 c 2,35,-1
 885 365 l 1,36,-1
 283 365 l 1,37,-1
 131 29 l 2,38,39
 117 -4 117 -4 47 -4 c 2,40,-1
 37 -4 l 2,41,42
 -47 -4 -47 -4 -47 29 c 0,43,44
 -47 39 -47 39 -37 59 c 2,45,-1
 588 1405 l 2,46,47
 602 1438 602 1438 672 1438 c 2,24,-1
684 1249 m 1,48,-1
 680 1249 l 1,49,50
 655 1173 655 1173 637 1130 c 2,51,-1
 356 520 l 1,52,-1
 846 520 l 1,53,-1
 696 1130 l 2,54,55
 684 1177 684 1177 684 1249 c 1,48,-1
EndSplineSet
Position2: "'cpsp' Capital Spacing lookup 0 subtable" dx=10 dy=0 dh=20 dv=0
EndChar

StartChar: AE
Encoding: 198 198 24
Width: 1873
GlyphClass: 2
Flags: MW
HStem: 0 156<957 1593 1085 1577> 365 154<369 858 369 879 274 858> 655 156<1028 1579 1028 1028> 1278 156<958 1708 958 958>
VStem: -96 1855<16 1404>
AnchorPoint: "Anchor-1" 938 1434 basechar 0
AnchorPoint: "Anchor-0" 0 0 basechar 0
LayerCount: 2
Fore
SplineSet
803 1434 m 2,0,-1
 1724 1434 l 2,1,2
 1759 1434 1759 1434 1759 1389 c 0,3,4
 1759 1278 1759 1278 1708 1278 c 2,5,-1
 958 1278 l 1,6,-1
 1012 811 l 1,7,-1
 1595 811 l 2,8,9
 1630 811 1630 811 1630 766 c 0,10,11
 1630 655 1630 655 1579 655 c 2,12,-1
 1028 655 l 1,13,-1
 1085 156 l 1,14,-1
 1593 156 l 2,15,16
 1628 156 1628 156 1628 111 c 0,17,18
 1628 0 1628 0 1577 0 c 2,19,-1
 979 0 l 2,20,21
 918 0 918 0 911 59 c 2,22,-1
 879 365 l 1,23,-1
 274 365 l 1,24,-1
 76 29 l 2,25,26
 56 -4 56 -4 -8 -4 c 2,27,-1
 -18 -4 l 2,28,29
 -96 -4 -96 -4 -96 27 c 0,30,31
 -96 41 -96 41 -84 63 c 2,32,-1
 711 1378 l 2,33,34
 744 1434 744 1434 803 1434 c 2,0,-1
793 1249 m 1,35,-1
 737 1130 l 1,36,-1
 369 518 l 1,37,-1
 858 518 l 1,38,-1
 797 1130 l 1,39,-1
 797 1249 l 1,40,-1
 793 1249 l 1,35,-1
EndSplineSet
Position2: "'cpsp' Capital Spacing lookup 0 subtable" dx=10 dy=0 dh=20 dv=0
EndChar

StartChar: AEacute
Encoding: 508 508 25
Width: 1873
GlyphClass: 2
Flags: MW
HStem: 0 156<957 1593 1085 1577> 365 154<369 858 369 879 274 858> 655 156<1028 1579 1028 1028> 1278 156<958 1708 958 958>
VStem: -96 1855<16 1404>
AnchorPoint: "Anchor-1" 1030 1796 basechar 0
AnchorPoint: "Anchor-0" 0 0 basechar 0
LayerCount: 2
Fore
SplineSet
1134.5 1862 m 128,-1,1
 1231 1862 1231 1862 1231 1837 c 0,2,3
 1231 1814 1231 1814 1014 1597 c 0,4,5
 977 1560 977 1560 918.5 1560.5 c 128,-1,6
 860 1561 860 1561 860 1579 c 0,7,8
 860 1604 860 1604 1001 1808 c 0,9,0
 1038 1862 1038 1862 1134.5 1862 c 128,-1,1
803 1434 m 2,10,-1
 1724 1434 l 2,11,12
 1759 1434 1759 1434 1759 1389 c 0,13,14
 1759 1278 1759 1278 1708 1278 c 2,15,-1
 958 1278 l 1,16,-1
 1012 811 l 1,17,-1
 1595 811 l 2,18,19
 1630 811 1630 811 1630 766 c 0,20,21
 1630 655 1630 655 1579 655 c 2,22,-1
 1028 655 l 1,23,-1
 1085 156 l 1,24,-1
 1593 156 l 2,25,26
 1628 156 1628 156 1628 111 c 0,27,28
 1628 0 1628 0 1577 0 c 2,29,-1
 979 0 l 2,30,31
 918 0 918 0 911 59 c 2,32,-1
 879 365 l 1,33,-1
 274 365 l 1,34,-1
 76 29 l 2,35,36
 56 -4 56 -4 -8 -4 c 2,37,-1
 -18 -4 l 2,38,39
 -96 -4 -96 -4 -96 27 c 0,40,41
 -96 41 -96 41 -84 63 c 2,42,-1
 711 1378 l 2,43,44
 744 1434 744 1434 803 1434 c 2,10,-1
793 1249 m 1,45,-1
 737 1130 l 1,46,-1
 369 518 l 1,47,-1
 858 518 l 1,48,-1
 797 1130 l 1,49,-1
 797 1249 l 1,50,-1
 793 1249 l 1,45,-1
EndSplineSet
Position2: "'cpsp' Capital Spacing lookup 0 subtable" dx=10 dy=0 dh=20 dv=0
EndChar

StartChar: B
Encoding: 66 66 26
Width: 1214
GlyphClass: 2
Flags: MW
HStem: 0 156<140 604 295 522> 659 156<348 612 365 612 612 623> 1278 156<412 412 412 651>
VStem: 922 186<360 516> 928 188<1037 1153>
LayerCount: 2
Fore
SplineSet
309 1434 m 2,0,-1
 686 1434 l 2,1,2
 895 1434 895 1434 1005.5 1348 c 128,-1,3
 1116 1262 1116 1262 1116 1114 c 0,4,5
 1116 999 1116 999 1035 893.5 c 128,-1,6
 954 788 954 788 850 760 c 1,7,-1
 848 752 l 1,8,9
 877 746 877 746 930 718 c 128,-1,10
 983 690 983 690 1018 659.5 c 128,-1,11
 1053 629 1053 629 1080.5 572.5 c 128,-1,12
 1108 516 1108 516 1108 449 c 0,13,14
 1108 224 1108 224 950.5 112 c 128,-1,15
 793 0 793 0 522 0 c 2,16,-1
 160 0 l 2,17,18
 105 0 105 0 104 49 c 0,19,20
 104 57 104 57 242 1372 c 0,21,22
 248 1434 248 1434 309 1434 c 2,0,-1
412 1278 m 1,23,-1
 365 815 l 1,24,-1
 612 815 l 2,25,26
 747 815 747 815 837.5 895 c 128,-1,27
 928 975 928 975 928 1090 c 0,28,29
 928 1278 928 1278 651 1278 c 2,30,-1
 412 1278 l 1,23,-1
348 659 m 1,31,-1
 295 156 l 1,32,-1
 604 156 l 2,33,34
 747 156 747 156 834.5 235.5 c 128,-1,35
 922 315 922 315 922 451 c 0,36,37
 922 551 922 551 845 605 c 128,-1,38
 768 659 768 659 623 659 c 2,39,-1
 348 659 l 1,31,-1
EndSplineSet
Position2: "'cpsp' Capital Spacing lookup 0 subtable" dx=10 dy=0 dh=20 dv=0
EndChar

StartChar: C
Encoding: 67 67 27
Width: 1267
GlyphClass: 2
Flags: MW
HStem: -12 156<542 751> 1290 156<606 901>
VStem: 78 184<434 785 434 794>
AnchorPoint: "Anchor-1" 797 1434 basechar 0
AnchorPoint: "Anchor-0" 635 0 basechar 0
LayerCount: 2
Fore
SplineSet
473.5 1374.5 m 128,-1,1
 625 1446 625 1446 801 1446 c 128,-1,2
 977 1446 977 1446 1092.5 1405 c 128,-1,3
 1208 1364 1208 1364 1208 1321 c 0,4,5
 1208 1296 1208 1296 1176.5 1248 c 128,-1,6
 1145 1200 1145 1200 1126 1200 c 0,7,8
 1122 1200 1122 1200 1081 1222.5 c 128,-1,9
 1040 1245 1040 1245 964.5 1267.5 c 128,-1,10
 889 1290 889 1290 803 1290 c 0,11,12
 613 1290 613 1290 489 1195 c 128,-1,13
 365 1100 365 1100 313.5 947.5 c 128,-1,14
 262 795 262 795 262 576.5 c 128,-1,15
 262 358 262 358 365.5 250.5 c 128,-1,16
 469 143 469 143 684 143 c 0,17,18
 782 143 782 143 872.5 168 c 128,-1,19
 963 193 963 193 1012 217.5 c 128,-1,20
 1061 242 1061 242 1063 242 c 0,21,22
 1077 242 1077 242 1077 207 c 128,-1,23
 1077 172 1077 172 1063 106 c 0,24,25
 1051 51 1051 51 929 19.5 c 128,-1,26
 807 -12 807 -12 668 -12 c 0,27,28
 367 -12 367 -12 222.5 128 c 128,-1,29
 78 268 78 268 78 561 c 0,30,31
 78 934 78 934 238 1176 c 0,32,0
 322 1303 322 1303 473.5 1374.5 c 128,-1,1
EndSplineSet
Position2: "'cpsp' Capital Spacing lookup 0 subtable" dx=10 dy=0 dh=20 dv=0
EndChar

StartChar: Cacute
Encoding: 262 262 28
Width: 1267
GlyphClass: 2
Flags: MW
HStem: -12 156<542 751> 1290 156<606 901>
VStem: 78 184<434 785 434 794>
AnchorPoint: "Anchor-1" 889 1796 basechar 0
AnchorPoint: "Anchor-0" 635 0 basechar 0
LayerCount: 2
Fore
SplineSet
993.5 1862 m 128,-1,1
 1090 1862 1090 1862 1090 1837 c 0,2,3
 1090 1814 1090 1814 872 1597 c 0,4,5
 835 1560 835 1560 777 1560.5 c 128,-1,6
 719 1561 719 1561 719 1579 c 0,7,8
 719 1604 719 1604 860 1808 c 0,9,0
 897 1862 897 1862 993.5 1862 c 128,-1,1
473.5 1374.5 m 128,-1,11
 625 1446 625 1446 801 1446 c 128,-1,12
 977 1446 977 1446 1092.5 1405 c 128,-1,13
 1208 1364 1208 1364 1208 1321 c 0,14,15
 1208 1296 1208 1296 1176.5 1248 c 128,-1,16
 1145 1200 1145 1200 1126 1200 c 0,17,18
 1122 1200 1122 1200 1081 1222.5 c 128,-1,19
 1040 1245 1040 1245 964.5 1267.5 c 128,-1,20
 889 1290 889 1290 803 1290 c 0,21,22
 613 1290 613 1290 489 1195 c 128,-1,23
 365 1100 365 1100 313.5 947.5 c 128,-1,24
 262 795 262 795 262 576.5 c 128,-1,25
 262 358 262 358 365.5 250.5 c 128,-1,26
 469 143 469 143 684 143 c 0,27,28
 782 143 782 143 872.5 168 c 128,-1,29
 963 193 963 193 1012 217.5 c 128,-1,30
 1061 242 1061 242 1063 242 c 0,31,32
 1077 242 1077 242 1077 207 c 128,-1,33
 1077 172 1077 172 1063 106 c 0,34,35
 1051 51 1051 51 929 19.5 c 128,-1,36
 807 -12 807 -12 668 -12 c 0,37,38
 367 -12 367 -12 222.5 128 c 128,-1,39
 78 268 78 268 78 561 c 0,40,41
 78 934 78 934 238 1176 c 0,42,10
 322 1303 322 1303 473.5 1374.5 c 128,-1,11
EndSplineSet
Substitution2: "'locl' Localized Forms in Latin lookup 11 subtable" Cacute.loclPLK
Substitution2: "'aalt' Access All Alternates lookup 0 subtable" Cacute.loclPLK
Position2: "'cpsp' Capital Spacing lookup 0 subtable" dx=10 dy=0 dh=20 dv=0
EndChar

StartChar: Ccaron
Encoding: 268 268 29
Width: 1267
GlyphClass: 2
Flags: MW
HStem: -12 156<542 751> 1290 156<606 901>
VStem: 78 184<434 785 434 794>
AnchorPoint: "Anchor-1" 834 1796 basechar 0
AnchorPoint: "Anchor-0" 635 0 basechar 0
LayerCount: 2
Fore
SplineSet
1034 1845 m 2,0,-1
 1038 1845 l 2,1,2
 1083 1845 1083 1845 1083 1817 c 0,3,4
 1083 1801 1083 1801 1069 1780 c 2,5,-1
 932 1599 l 2,6,7
 899 1554 899 1554 834 1554 c 2,8,-1
 782 1554 l 2,9,10
 716 1554 716 1554 692 1599 c 2,11,-1
 598 1780 l 2,12,13
 588 1798 588 1798 590 1821.5 c 128,-1,14
 592 1845 592 1845 639 1845 c 2,15,-1
 643 1845 l 2,16,17
 684 1845 684 1845 711 1819 c 1,18,-1
 819 1667 l 1,19,-1
 965 1819 l 1,20,21
 997 1845 997 1845 1034 1845 c 2,0,-1
473.5 1374.5 m 128,-1,23
 625 1446 625 1446 801 1446 c 128,-1,24
 977 1446 977 1446 1092.5 1405 c 128,-1,25
 1208 1364 1208 1364 1208 1321 c 0,26,27
 1208 1296 1208 1296 1176.5 1248 c 128,-1,28
 1145 1200 1145 1200 1126 1200 c 0,29,30
 1122 1200 1122 1200 1081 1222.5 c 128,-1,31
 1040 1245 1040 1245 964.5 1267.5 c 128,-1,32
 889 1290 889 1290 803 1290 c 0,33,34
 613 1290 613 1290 489 1195 c 128,-1,35
 365 1100 365 1100 313.5 947.5 c 128,-1,36
 262 795 262 795 262 576.5 c 128,-1,37
 262 358 262 358 365.5 250.5 c 128,-1,38
 469 143 469 143 684 143 c 0,39,40
 782 143 782 143 872.5 168 c 128,-1,41
 963 193 963 193 1012 217.5 c 128,-1,42
 1061 242 1061 242 1063 242 c 0,43,44
 1077 242 1077 242 1077 207 c 128,-1,45
 1077 172 1077 172 1063 106 c 0,46,47
 1051 51 1051 51 929 19.5 c 128,-1,48
 807 -12 807 -12 668 -12 c 0,49,50
 367 -12 367 -12 222.5 128 c 128,-1,51
 78 268 78 268 78 561 c 0,52,53
 78 934 78 934 238 1176 c 0,54,22
 322 1303 322 1303 473.5 1374.5 c 128,-1,23
EndSplineSet
Position2: "'cpsp' Capital Spacing lookup 0 subtable" dx=10 dy=0 dh=20 dv=0
EndChar

StartChar: Ccedilla
Encoding: 199 199 30
Width: 1267
GlyphClass: 2
Flags: MW
HStem: -430 100<526 562 488 601> -12 156<676 676> 1290 156<606 901>
VStem: 78 184<434 785 434 794> 659 147<-285 -209>
AnchorPoint: "Anchor-1" 797 1434 basechar 0
AnchorPoint: "Anchor-0" 547 -416 basechar 0
LayerCount: 2
Fore
SplineSet
473.5 1374.5 m 128,-1,1
 625 1446 625 1446 801 1446 c 128,-1,2
 977 1446 977 1446 1092.5 1405 c 128,-1,3
 1208 1364 1208 1364 1208 1321 c 0,4,5
 1208 1296 1208 1296 1176.5 1248 c 128,-1,6
 1145 1200 1145 1200 1126 1200 c 0,7,8
 1122 1200 1122 1200 1081 1222.5 c 128,-1,9
 1040 1245 1040 1245 964.5 1267.5 c 128,-1,10
 889 1290 889 1290 803 1290 c 0,11,12
 613 1290 613 1290 489 1195 c 128,-1,13
 365 1100 365 1100 313.5 947.5 c 128,-1,14
 262 795 262 795 262 576.5 c 128,-1,15
 262 358 262 358 365.5 250.5 c 128,-1,16
 469 143 469 143 684 143 c 0,17,18
 782 143 782 143 872.5 168 c 128,-1,19
 963 193 963 193 1012 217.5 c 128,-1,20
 1061 242 1061 242 1063 242 c 0,21,22
 1077 242 1077 242 1077 207 c 128,-1,23
 1077 172 1077 172 1063 106 c 0,24,25
 1051 53 1051 53 932 21.5 c 128,-1,26
 813 -10 813 -10 676 -12 c 1,27,-1
 639 -100 l 1,28,-1
 647 -100 l 2,29,30
 678 -100 678 -100 708.5 -106.5 c 128,-1,31
 739 -113 739 -113 773 -144.5 c 128,-1,32
 807 -176 807 -176 807 -227 c 0,33,34
 807 -430 807 -430 551 -430 c 0,35,36
 430 -430 430 -430 376 -390 c 0,37,38
 352 -373 352 -373 352 -346 c 0,39,40
 352 -278 352 -278 377 -279 c 1,41,-1
 397 -291 l 2,42,43
 462 -330 462 -330 537 -330 c 0,44,45
 660 -330 660 -330 659 -248 c 0,46,47
 659 -221 659 -221 640 -205.5 c 128,-1,48
 621 -190 621 -190 598 -185 c 0,49,50
 537 -171 537 -171 537 -141 c 1,51,52
 549 -106 549 -106 588 -10 c 1,53,54
 330 8 330 8 204 148.5 c 128,-1,55
 78 289 78 289 78 561 c 0,56,57
 78 934 78 934 238 1176 c 0,58,0
 322 1303 322 1303 473.5 1374.5 c 128,-1,1
EndSplineSet
Position2: "'cpsp' Capital Spacing lookup 0 subtable" dx=10 dy=0 dh=20 dv=0
EndChar

StartChar: Ccircumflex
Encoding: 264 264 31
Width: 1267
GlyphClass: 2
Flags: MW
HStem: -12 156<542 751> 1290 156<606 901>
VStem: 78 184<434 785 434 794>
AnchorPoint: "Anchor-1" 1176 1624 basechar 0
AnchorPoint: "Anchor-0" 635 0 basechar 0
LayerCount: 2
Fore
SplineSet
797 1833 m 2,0,-1
 848 1833 l 2,1,2
 914 1833 914 1833 938 1788 c 2,3,-1
 1034 1608 l 2,4,5
 1044 1592 1044 1592 1042 1567 c 128,-1,6
 1040 1542 1040 1542 991 1542 c 2,7,-1
 987 1542 l 2,8,9
 948 1542 948 1542 922 1569 c 1,10,-1
 809 1720 l 1,11,-1
 668 1569 l 1,12,13
 635 1542 635 1542 596 1542 c 2,14,-1
 592 1542 l 2,15,16
 549 1542 549 1542 549 1567 c 0,17,18
 549 1585 549 1585 563 1608 c 2,19,-1
 698 1788 l 2,20,21
 731 1833 731 1833 797 1833 c 2,0,-1
473.5 1374.5 m 128,-1,23
 625 1446 625 1446 801 1446 c 128,-1,24
 977 1446 977 1446 1092.5 1405 c 128,-1,25
 1208 1364 1208 1364 1208 1321 c 0,26,27
 1208 1296 1208 1296 1176.5 1248 c 128,-1,28
 1145 1200 1145 1200 1126 1200 c 0,29,30
 1122 1200 1122 1200 1081 1222.5 c 128,-1,31
 1040 1245 1040 1245 964.5 1267.5 c 128,-1,32
 889 1290 889 1290 803 1290 c 0,33,34
 613 1290 613 1290 489 1195 c 128,-1,35
 365 1100 365 1100 313.5 947.5 c 128,-1,36
 262 795 262 795 262 576.5 c 128,-1,37
 262 358 262 358 365.5 250.5 c 128,-1,38
 469 143 469 143 684 143 c 0,39,40
 782 143 782 143 872.5 168 c 128,-1,41
 963 193 963 193 1012 217.5 c 128,-1,42
 1061 242 1061 242 1063 242 c 0,43,44
 1077 242 1077 242 1077 207 c 128,-1,45
 1077 172 1077 172 1063 106 c 0,46,47
 1051 51 1051 51 929 19.5 c 128,-1,48
 807 -12 807 -12 668 -12 c 0,49,50
 367 -12 367 -12 222.5 128 c 128,-1,51
 78 268 78 268 78 561 c 0,52,53
 78 934 78 934 238 1176 c 0,54,22
 322 1303 322 1303 473.5 1374.5 c 128,-1,23
EndSplineSet
Position2: "'cpsp' Capital Spacing lookup 0 subtable" dx=10 dy=0 dh=20 dv=0
EndChar

StartChar: Cdotaccent
Encoding: 266 266 32
Width: 1267
GlyphClass: 2
Flags: MW
HStem: -12 156<542 751> 1290 156<606 901> 1606 195<799 836>
VStem: 78 184<434 785 434 794> 727 182<1636 1769>
AnchorPoint: "Anchor-1" 836 1796 basechar 0
AnchorPoint: "Anchor-0" 635 0 basechar 0
LayerCount: 2
Fore
SplineSet
737 1755 m 2,0,1
 743 1800 743 1800 826 1800 c 128,-1,2
 909 1800 909 1800 909 1755 c 1,3,-1
 899 1651 l 2,4,5
 893 1606 893 1606 810 1606 c 128,-1,6
 727 1606 727 1606 727 1651 c 1,7,-1
 737 1755 l 2,0,1
473.5 1374.5 m 128,-1,9
 625 1446 625 1446 801 1446 c 128,-1,10
 977 1446 977 1446 1092.5 1405 c 128,-1,11
 1208 1364 1208 1364 1208 1321 c 0,12,13
 1208 1296 1208 1296 1176.5 1248 c 128,-1,14
 1145 1200 1145 1200 1126 1200 c 0,15,16
 1122 1200 1122 1200 1081 1222.5 c 128,-1,17
 1040 1245 1040 1245 964.5 1267.5 c 128,-1,18
 889 1290 889 1290 803 1290 c 0,19,20
 613 1290 613 1290 489 1195 c 128,-1,21
 365 1100 365 1100 313.5 947.5 c 128,-1,22
 262 795 262 795 262 576.5 c 128,-1,23
 262 358 262 358 365.5 250.5 c 128,-1,24
 469 143 469 143 684 143 c 0,25,26
 782 143 782 143 872.5 168 c 128,-1,27
 963 193 963 193 1012 217.5 c 128,-1,28
 1061 242 1061 242 1063 242 c 0,29,30
 1077 242 1077 242 1077 207 c 128,-1,31
 1077 172 1077 172 1063 106 c 0,32,33
 1051 51 1051 51 929 19.5 c 128,-1,34
 807 -12 807 -12 668 -12 c 0,35,36
 367 -12 367 -12 222.5 128 c 128,-1,37
 78 268 78 268 78 561 c 0,38,39
 78 934 78 934 238 1176 c 0,40,8
 322 1303 322 1303 473.5 1374.5 c 128,-1,9
EndSplineSet
Position2: "'cpsp' Capital Spacing lookup 0 subtable" dx=10 dy=0 dh=20 dv=0
EndChar

StartChar: D
Encoding: 68 68 33
Width: 1423
GlyphClass: 2
Flags: MW
HStem: 0 156<138 600 293 598> 1278 156<410 410 410 717>
VStem: 1130 186<578 991>
AnchorPoint: "Anchor-1" 713 1434 basechar 0
AnchorPoint: "Anchor-0" 596 0 basechar 0
LayerCount: 2
Fore
SplineSet
307 1434 m 2,0,-1
 748 1434 l 2,1,2
 1008 1434 1008 1434 1162.5 1293.5 c 128,-1,3
 1317 1153 1317 1153 1317 850 c 0,4,5
 1317 621 1317 621 1257.5 451 c 128,-1,6
 1198 281 1198 281 1094 185 c 0,7,8
 891 0 891 0 598 0 c 2,9,-1
 158 0 l 2,10,11
 103 0 103 0 102 49 c 0,12,13
 102 74 102 74 162.5 638 c 128,-1,14
 223 1202 223 1202 240 1372 c 0,15,16
 246 1434 246 1434 307 1434 c 2,0,-1
410 1278 m 1,17,-1
 293 156 l 1,18,-1
 600 156 l 2,19,20
 823 156 823 156 976.5 318.5 c 128,-1,21
 1130 481 1130 481 1130 821 c 0,22,23
 1130 1063 1130 1063 1018.5 1170.5 c 128,-1,24
 907 1278 907 1278 717 1278 c 2,25,-1
 410 1278 l 1,17,-1
EndSplineSet
Position2: "'cpsp' Capital Spacing lookup 0 subtable" dx=10 dy=0 dh=20 dv=0
EndChar

StartChar: DZ
Encoding: 497 497 34
Width: 2684
GlyphClass: 2
Flags: MW
HStem: 0 156<138 600 293 598 1688 2474> 1278 156<410 410 410 717 1681 2404>
VStem: 1130 186<578 991>
AnchorPoint: "Anchor-1" 2116 1434 basechar 0
AnchorPoint: "Anchor-0" 2007 0 basechar 0
LayerCount: 2
Fore
SplineSet
307 1434 m 2,0,-1
 748 1434 l 2,1,2
 1008 1434 1008 1434 1162.5 1293.5 c 128,-1,3
 1317 1153 1317 1153 1317 850 c 0,4,5
 1317 621 1317 621 1257.5 451 c 128,-1,6
 1198 281 1198 281 1094 185 c 0,7,8
 891 0 891 0 598 0 c 2,9,-1
 158 0 l 2,10,11
 103 0 103 0 102 49 c 0,12,13
 102 74 102 74 162.5 638 c 128,-1,14
 223 1202 223 1202 240 1372 c 0,15,16
 246 1434 246 1434 307 1434 c 2,0,-1
1681 1434 m 2,17,-1
 2621 1434 l 2,18,19
 2631 1434 2631 1434 2643.5 1400 c 128,-1,20
 2656 1366 2656 1366 2656 1338.5 c 128,-1,21
 2656 1311 2656 1311 2646 1300 c 2,22,-1
 1688 156 l 1,23,-1
 2490 156 l 2,24,25
 2525 156 2525 156 2525 111 c 0,26,27
 2525 0 2525 0 2474 0 c 2,28,-1
 1475 0 l 2,29,30
 1461 0 1461 0 1448.5 34 c 128,-1,31
 1436 68 1436 68 1436 95.5 c 128,-1,32
 1436 123 1436 123 1446 133 c 2,33,-1
 2404 1278 l 1,34,-1
 1665 1278 l 2,35,36
 1630 1278 1630 1278 1630 1323 c 0,37,38
 1630 1434 1630 1434 1681 1434 c 2,17,-1
410 1278 m 1,39,-1
 293 156 l 1,40,-1
 600 156 l 2,41,42
 823 156 823 156 976.5 318.5 c 128,-1,43
 1130 481 1130 481 1130 821 c 0,44,45
 1130 1063 1130 1063 1018.5 1170.5 c 128,-1,46
 907 1278 907 1278 717 1278 c 2,47,-1
 410 1278 l 1,39,-1
EndSplineSet
Position2: "'cpsp' Capital Spacing lookup 0 subtable" dx=10 dy=0 dh=20 dv=0
EndChar

StartChar: DZcaron
Encoding: 452 452 35
Width: 2684
GlyphClass: 2
Flags: MW
HStem: 0 156<138 600 293 598 1688 2474> 1278 156<410 410 410 717 1681 2404>
VStem: 1130 186<578 991>
AnchorPoint: "Anchor-1" 2152 1796 basechar 0
AnchorPoint: "Anchor-0" 2007 0 basechar 0
LayerCount: 2
Fore
SplineSet
2353 1845 m 2,0,-1
 2357 1845 l 2,1,2
 2402 1845 2402 1845 2402 1817 c 0,3,4
 2402 1801 2402 1801 2388 1780 c 2,5,-1
 2251 1599 l 2,6,7
 2218 1554 2218 1554 2152 1554 c 2,8,-1
 2101 1554 l 2,9,10
 2035 1554 2035 1554 2011 1599 c 2,11,-1
 1917 1780 l 2,12,13
 1907 1798 1907 1798 1909 1821.5 c 128,-1,14
 1911 1845 1911 1845 1958 1845 c 2,15,-1
 1962 1845 l 2,16,17
 2003 1845 2003 1845 2030 1819 c 1,18,-1
 2138 1667 l 1,19,-1
 2284 1819 l 1,20,21
 2316 1845 2316 1845 2353 1845 c 2,0,-1
307 1434 m 2,22,-1
 748 1434 l 2,23,24
 1008 1434 1008 1434 1162.5 1293.5 c 128,-1,25
 1317 1153 1317 1153 1317 850 c 0,26,27
 1317 621 1317 621 1257.5 451 c 128,-1,28
 1198 281 1198 281 1094 185 c 0,29,30
 891 0 891 0 598 0 c 2,31,-1
 158 0 l 2,32,33
 103 0 103 0 102 49 c 0,34,35
 102 74 102 74 162.5 638 c 128,-1,36
 223 1202 223 1202 240 1372 c 0,37,38
 246 1434 246 1434 307 1434 c 2,22,-1
1681 1434 m 2,39,-1
 2621 1434 l 2,40,41
 2631 1434 2631 1434 2643.5 1400 c 128,-1,42
 2656 1366 2656 1366 2656 1338.5 c 128,-1,43
 2656 1311 2656 1311 2646 1300 c 2,44,-1
 1688 156 l 1,45,-1
 2490 156 l 2,46,47
 2525 156 2525 156 2525 111 c 0,48,49
 2525 0 2525 0 2474 0 c 2,50,-1
 1475 0 l 2,51,52
 1461 0 1461 0 1448.5 34 c 128,-1,53
 1436 68 1436 68 1436 95.5 c 128,-1,54
 1436 123 1436 123 1446 133 c 2,55,-1
 2404 1278 l 1,56,-1
 1665 1278 l 2,57,58
 1630 1278 1630 1278 1630 1323 c 0,59,60
 1630 1434 1630 1434 1681 1434 c 2,39,-1
410 1278 m 1,61,-1
 293 156 l 1,62,-1
 600 156 l 2,63,64
 823 156 823 156 976.5 318.5 c 128,-1,65
 1130 481 1130 481 1130 821 c 0,66,67
 1130 1063 1130 1063 1018.5 1170.5 c 128,-1,68
 907 1278 907 1278 717 1278 c 2,69,-1
 410 1278 l 1,61,-1
EndSplineSet
Position2: "'cpsp' Capital Spacing lookup 0 subtable" dx=10 dy=0 dh=20 dv=0
EndChar

StartChar: Eth
Encoding: 208 208 36
Width: 1425
GlyphClass: 2
Flags: MW
HStem: 0 156<138 600 293 598> 655 156<20 180 49 164 360 573> 1278 156<410 717 410 410>
VStem: 1130 186<578 991>
AnchorPoint: "Anchor-1" 713 1434 basechar 0
AnchorPoint: "Anchor-0" 596 0 basechar 0
LayerCount: 2
Fore
SplineSet
307 1434 m 2,0,-1
 748 1434 l 2,1,2
 1008 1434 1008 1434 1162.5 1293.5 c 128,-1,3
 1317 1153 1317 1153 1317 850 c 0,4,5
 1317 621 1317 621 1257.5 451 c 128,-1,6
 1198 281 1198 281 1094 185 c 0,7,8
 891 0 891 0 598 0 c 2,9,-1
 158 0 l 2,10,11
 103 0 103 0 102 49 c 0,12,13
 102 63 102 63 164 655 c 1,14,-1
 33 655 l 2,15,16
 -2 655 -2 655 -2 700 c 0,17,18
 -2 811 -2 811 49 811 c 2,19,-1
 180 811 l 1,20,-1
 240 1372 l 2,21,22
 246 1434 246 1434 307 1434 c 2,0,-1
293 156 m 1,23,-1
 600 156 l 2,24,25
 823 156 823 156 976.5 318.5 c 128,-1,26
 1130 481 1130 481 1130 821 c 0,27,28
 1130 1063 1130 1063 1018.5 1170.5 c 128,-1,29
 907 1278 907 1278 717 1278 c 2,30,-1
 410 1278 l 1,31,-1
 360 811 l 1,32,-1
 590 811 l 2,33,34
 625 811 625 811 625 766 c 0,35,36
 625 655 625 655 573 655 c 2,37,-1
 344 655 l 1,38,-1
 293 156 l 1,23,-1
EndSplineSet
Position2: "'cpsp' Capital Spacing lookup 0 subtable" dx=10 dy=0 dh=20 dv=0
EndChar

StartChar: Dcaron
Encoding: 270 270 37
Width: 1423
GlyphClass: 2
Flags: MW
HStem: 0 156<138 600 293 598> 1278 156<410 410 410 717>
VStem: 1130 186<578 991>
AnchorPoint: "Anchor-1" 750 1796 basechar 0
AnchorPoint: "Anchor-0" 596 0 basechar 0
LayerCount: 2
Fore
SplineSet
950 1845 m 2,0,-1
 954 1845 l 2,1,2
 999 1845 999 1845 999 1817 c 0,3,4
 999 1801 999 1801 985 1780 c 2,5,-1
 848 1599 l 2,6,7
 815 1554 815 1554 750 1554 c 2,8,-1
 698 1554 l 2,9,10
 632 1554 632 1554 608 1599 c 2,11,-1
 514 1780 l 2,12,13
 504 1798 504 1798 506 1821.5 c 128,-1,14
 508 1845 508 1845 555 1845 c 2,15,-1
 559 1845 l 2,16,17
 600 1845 600 1845 627 1819 c 1,18,-1
 735 1667 l 1,19,-1
 881 1819 l 1,20,21
 913 1845 913 1845 950 1845 c 2,0,-1
307 1434 m 2,22,-1
 748 1434 l 2,23,24
 1008 1434 1008 1434 1162.5 1293.5 c 128,-1,25
 1317 1153 1317 1153 1317 850 c 0,26,27
 1317 621 1317 621 1257.5 451 c 128,-1,28
 1198 281 1198 281 1094 185 c 0,29,30
 891 0 891 0 598 0 c 2,31,-1
 158 0 l 2,32,33
 103 0 103 0 102 49 c 0,34,35
 102 74 102 74 162.5 638 c 128,-1,36
 223 1202 223 1202 240 1372 c 0,37,38
 246 1434 246 1434 307 1434 c 2,22,-1
410 1278 m 1,39,-1
 293 156 l 1,40,-1
 600 156 l 2,41,42
 823 156 823 156 976.5 318.5 c 128,-1,43
 1130 481 1130 481 1130 821 c 0,44,45
 1130 1063 1130 1063 1018.5 1170.5 c 128,-1,46
 907 1278 907 1278 717 1278 c 2,47,-1
 410 1278 l 1,39,-1
EndSplineSet
Position2: "'cpsp' Capital Spacing lookup 0 subtable" dx=10 dy=0 dh=20 dv=0
EndChar

StartChar: Dcroat
Encoding: 272 272 38
Width: 1425
GlyphClass: 2
Flags: MW
HStem: 0 156<138 600 293 598> 655 156<20 180 49 164 360 573> 1278 156<410 717 410 410>
VStem: 1130 186<578 991>
AnchorPoint: "Anchor-1" 713 1434 basechar 0
AnchorPoint: "Anchor-0" 596 0 basechar 0
LayerCount: 2
Fore
SplineSet
307 1434 m 2,0,-1
 748 1434 l 2,1,2
 1008 1434 1008 1434 1162.5 1293.5 c 128,-1,3
 1317 1153 1317 1153 1317 850 c 0,4,5
 1317 621 1317 621 1257.5 451 c 128,-1,6
 1198 281 1198 281 1094 185 c 0,7,8
 891 0 891 0 598 0 c 2,9,-1
 158 0 l 2,10,11
 103 0 103 0 102 49 c 0,12,13
 102 63 102 63 164 655 c 1,14,-1
 33 655 l 2,15,16
 -2 655 -2 655 -2 700 c 0,17,18
 -2 811 -2 811 49 811 c 2,19,-1
 180 811 l 1,20,-1
 240 1372 l 2,21,22
 246 1434 246 1434 307 1434 c 2,0,-1
293 156 m 1,23,-1
 600 156 l 2,24,25
 823 156 823 156 976.5 318.5 c 128,-1,26
 1130 481 1130 481 1130 821 c 0,27,28
 1130 1063 1130 1063 1018.5 1170.5 c 128,-1,29
 907 1278 907 1278 717 1278 c 2,30,-1
 410 1278 l 1,31,-1
 360 811 l 1,32,-1
 590 811 l 2,33,34
 625 811 625 811 625 766 c 0,35,36
 625 655 625 655 573 655 c 2,37,-1
 344 655 l 1,38,-1
 293 156 l 1,23,-1
EndSplineSet
Position2: "'cpsp' Capital Spacing lookup 0 subtable" dx=10 dy=0 dh=20 dv=0
EndChar

StartChar: Ddotbelow
Encoding: 7692 7692 39
Width: 1423
GlyphClass: 2
Flags: MW
HStem: -358 195<547 584> 0 156<138 600 293 598> 1278 156<410 410 410 717>
VStem: 475 182<-328 -195> 1130 186<578 991>
AnchorPoint: "Anchor-1" 584 -168 basechar 0
AnchorPoint: "Anchor-0" 553 -416 basechar 0
LayerCount: 2
Fore
SplineSet
307 1434 m 2,0,-1
 748 1434 l 2,1,2
 1008 1434 1008 1434 1162.5 1293.5 c 128,-1,3
 1317 1153 1317 1153 1317 850 c 0,4,5
 1317 621 1317 621 1257.5 451 c 128,-1,6
 1198 281 1198 281 1094 185 c 0,7,8
 891 0 891 0 598 0 c 2,9,-1
 158 0 l 2,10,11
 103 0 103 0 102 49 c 0,12,13
 102 74 102 74 162.5 638 c 128,-1,14
 223 1202 223 1202 240 1372 c 0,15,16
 246 1434 246 1434 307 1434 c 2,0,-1
410 1278 m 1,17,-1
 293 156 l 1,18,-1
 600 156 l 2,19,20
 823 156 823 156 976.5 318.5 c 128,-1,21
 1130 481 1130 481 1130 821 c 0,22,23
 1130 1063 1130 1063 1018.5 1170.5 c 128,-1,24
 907 1278 907 1278 717 1278 c 2,25,-1
 410 1278 l 1,17,-1
485 -209 m 2,26,27
 491 -164 491 -164 574 -164 c 128,-1,28
 657 -164 657 -164 657 -209 c 1,29,-1
 647 -313 l 2,30,31
 641 -358 641 -358 558 -358 c 128,-1,32
 475 -358 475 -358 475 -313 c 1,33,-1
 485 -209 l 2,26,27
EndSplineSet
Position2: "'cpsp' Capital Spacing lookup 0 subtable" dx=10 dy=0 dh=20 dv=0
EndChar

StartChar: Dz
Encoding: 498 498 40
Width: 2424
GlyphClass: 2
Flags: MW
HStem: 0 147<1698 2245> 924 147<1606 2355 1636 2144> 1278 156<410 410 410 717>
VStem: 1130 186<578 991>
AnchorPoint: "Anchor-1" 1987 1071 basechar 0
AnchorPoint: "Anchor-0" 1896 0 basechar 0
LayerCount: 2
Fore
SplineSet
307 1434 m 2,0,-1
 748 1434 l 2,1,2
 1008 1434 1008 1434 1162.5 1293.5 c 128,-1,3
 1317 1153 1317 1153 1317 850 c 0,4,5
 1317 621 1317 621 1257.5 451 c 128,-1,6
 1198 281 1198 281 1094 185 c 0,7,8
 891 0 891 0 598 0 c 2,9,-1
 158 0 l 2,10,11
 103 0 103 0 102 49 c 0,12,13
 102 74 102 74 162.5 638 c 128,-1,14
 223 1202 223 1202 240 1372 c 0,15,16
 246 1434 246 1434 307 1434 c 2,0,-1
410 1278 m 1,17,-1
 293 156 l 1,18,-1
 600 156 l 2,19,20
 823 156 823 156 976.5 318.5 c 128,-1,21
 1130 481 1130 481 1130 821 c 0,22,23
 1130 1063 1130 1063 1018.5 1170.5 c 128,-1,24
 907 1278 907 1278 717 1278 c 2,25,-1
 410 1278 l 1,17,-1
1636 1071 m 2,26,-1
 2355 1071 l 2,27,28
 2367 1071 2367 1071 2376.5 1038.5 c 128,-1,29
 2386 1006 2386 1006 2386 979 c 128,-1,30
 2386 952 2386 952 2378 944 c 2,31,-1
 1698 147 l 1,32,-1
 2261 147 l 2,33,34
 2296 147 2296 147 2296 92 c 0,35,36
 2296 0 2296 0 2245 0 c 2,37,-1
 1487 0 l 2,38,39
 1477 0 1477 0 1464.5 31.5 c 128,-1,40
 1452 63 1452 63 1452 90 c 128,-1,41
 1452 117 1452 117 1462 127 c 2,42,-1
 2144 924 l 1,43,-1
 1620 924 l 2,44,45
 1585 924 1585 924 1585 979 c 0,46,47
 1585 1071 1585 1071 1636 1071 c 2,26,-1
EndSplineSet
Position2: "'cpsp' Capital Spacing lookup 0 subtable" dx=10 dy=0 dh=20 dv=0
EndChar

StartChar: Dzcaron
Encoding: 453 453 41
Width: 2424
GlyphClass: 2
Flags: MW
HStem: 0 147<1698 2245> 924 147<1606 2355 1636 2144> 1278 156<410 410 410 717>
VStem: 1130 186<578 991>
AnchorPoint: "Anchor-1" 2023 1434 basechar 0
AnchorPoint: "Anchor-0" 1896 0 basechar 0
LayerCount: 2
Fore
SplineSet
2224 1483 m 2,0,-1
 2228 1483 l 2,1,2
 2273 1483 2273 1483 2273 1454 c 0,3,4
 2273 1438 2273 1438 2259 1417 c 2,5,-1
 2122 1237 l 2,6,7
 2089 1192 2089 1192 2023 1192 c 2,8,-1
 1972 1192 l 2,9,10
 1906 1192 1906 1192 1882 1237 c 2,11,-1
 1788 1417 l 2,12,13
 1778 1435 1778 1435 1780 1459 c 128,-1,14
 1782 1483 1782 1483 1829 1483 c 2,15,-1
 1833 1483 l 2,16,17
 1874 1483 1874 1483 1901 1456 c 1,18,-1
 2009 1305 l 1,19,-1
 2154 1456 l 1,20,21
 2187 1483 2187 1483 2224 1483 c 2,0,-1
307 1434 m 2,22,-1
 748 1434 l 2,23,24
 1008 1434 1008 1434 1162.5 1293.5 c 128,-1,25
 1317 1153 1317 1153 1317 850 c 0,26,27
 1317 621 1317 621 1257.5 451 c 128,-1,28
 1198 281 1198 281 1094 185 c 0,29,30
 891 0 891 0 598 0 c 2,31,-1
 158 0 l 2,32,33
 103 0 103 0 102 49 c 0,34,35
 102 74 102 74 162.5 638 c 128,-1,36
 223 1202 223 1202 240 1372 c 0,37,38
 246 1434 246 1434 307 1434 c 2,22,-1
410 1278 m 1,39,-1
 293 156 l 1,40,-1
 600 156 l 2,41,42
 823 156 823 156 976.5 318.5 c 128,-1,43
 1130 481 1130 481 1130 821 c 0,44,45
 1130 1063 1130 1063 1018.5 1170.5 c 128,-1,46
 907 1278 907 1278 717 1278 c 2,47,-1
 410 1278 l 1,39,-1
1636 1071 m 2,48,-1
 2355 1071 l 2,49,50
 2367 1071 2367 1071 2376.5 1038.5 c 128,-1,51
 2386 1006 2386 1006 2386 979 c 128,-1,52
 2386 952 2386 952 2378 944 c 2,53,-1
 1698 147 l 1,54,-1
 2261 147 l 2,55,56
 2296 147 2296 147 2296 92 c 0,57,58
 2296 0 2296 0 2245 0 c 2,59,-1
 1487 0 l 2,60,61
 1477 0 1477 0 1464.5 31.5 c 128,-1,62
 1452 63 1452 63 1452 90 c 128,-1,63
 1452 117 1452 117 1462 127 c 2,64,-1
 2144 924 l 1,65,-1
 1620 924 l 2,66,67
 1585 924 1585 924 1585 979 c 0,68,69
 1585 1071 1585 1071 1636 1071 c 2,48,-1
EndSplineSet
Position2: "'cpsp' Capital Spacing lookup 0 subtable" dx=10 dy=0 dh=20 dv=0
EndChar

StartChar: E
Encoding: 69 69 42
Width: 1118
GlyphClass: 2
Flags: MW
HStem: 0 156<128 889 283 872> 655 156<350 874 334 891> 1278 156<399 1004 399 399>
VStem: 92 963
AnchorPoint: "Anchor-1" 662 1434 basechar 0
AnchorPoint: "Anchor-0" 514 0 basechar 0
LayerCount: 2
Fore
SplineSet
297 1434 m 2,0,-1
 1020 1434 l 2,1,2
 1055 1434 1055 1434 1055 1389 c 0,3,4
 1055 1278 1055 1278 1004 1278 c 2,5,-1
 399 1278 l 1,6,-1
 350 811 l 1,7,-1
 891 811 l 2,8,9
 926 811 926 811 926 766 c 0,10,11
 926 655 926 655 874 655 c 2,12,-1
 334 655 l 1,13,-1
 283 156 l 1,14,-1
 889 156 l 2,15,16
 924 156 924 156 924 111 c 0,17,18
 924 0 924 0 872 0 c 2,19,-1
 147 0 l 2,20,21
 92 0 92 0 92 49 c 0,22,23
 92 57 92 57 229 1372 c 0,24,25
 236 1434 236 1434 297 1434 c 2,0,-1
EndSplineSet
Position2: "'cpsp' Capital Spacing lookup 0 subtable" dx=10 dy=0 dh=20 dv=0
EndChar

StartChar: Eacute
Encoding: 201 201 43
Width: 1118
GlyphClass: 2
Flags: MW
HStem: 0 156<128 889 283 872> 655 156<350 874 334 891> 1278 156<399 1004 399 399>
VStem: 92 963
AnchorPoint: "Anchor-1" 754 1796 basechar 0
AnchorPoint: "Anchor-0" 514 0 basechar 0
LayerCount: 2
Fore
SplineSet
858 1862 m 128,-1,1
 954 1862 954 1862 954 1837 c 0,2,3
 954 1814 954 1814 737 1597 c 0,4,5
 700 1560 700 1560 642 1560.5 c 128,-1,6
 584 1561 584 1561 584 1579 c 0,7,8
 584 1604 584 1604 725 1808 c 0,9,0
 762 1862 762 1862 858 1862 c 128,-1,1
297 1434 m 2,10,-1
 1020 1434 l 2,11,12
 1055 1434 1055 1434 1055 1389 c 0,13,14
 1055 1278 1055 1278 1004 1278 c 2,15,-1
 399 1278 l 1,16,-1
 350 811 l 1,17,-1
 891 811 l 2,18,19
 926 811 926 811 926 766 c 0,20,21
 926 655 926 655 874 655 c 2,22,-1
 334 655 l 1,23,-1
 283 156 l 1,24,-1
 889 156 l 2,25,26
 924 156 924 156 924 111 c 0,27,28
 924 0 924 0 872 0 c 2,29,-1
 147 0 l 2,30,31
 92 0 92 0 92 49 c 0,32,33
 92 57 92 57 229 1372 c 0,34,35
 236 1434 236 1434 297 1434 c 2,10,-1
EndSplineSet
Position2: "'cpsp' Capital Spacing lookup 0 subtable" dx=10 dy=0 dh=20 dv=0
EndChar

StartChar: Ebreve
Encoding: 276 276 44
Width: 1118
GlyphClass: 2
Flags: MW
HStem: 0 156<128 889 283 872> 655 156<350 874 334 891> 1278 156<399 1004 399 399> 1561 135<636 735 636 740>
VStem: 92 963
AnchorPoint: "Anchor-1" 700 1737 basechar 0
AnchorPoint: "Anchor-0" 514 0 basechar 0
LayerCount: 2
Fore
SplineSet
963 1827 m 0,0,1
 992 1827 992 1827 991 1802 c 0,2,3
 991 1689 991 1689 889.5 1625 c 128,-1,4
 788 1561 788 1561 673.5 1561 c 128,-1,5
 559 1561 559 1561 478 1616 c 128,-1,6
 397 1671 397 1671 397 1772 c 0,7,8
 397 1827 397 1827 432 1827 c 0,9,10
 455 1827 455 1827 459 1817.5 c 128,-1,11
 463 1808 463 1808 466 1796 c 0,12,13
 491 1696 491 1696 676.5 1696 c 128,-1,14
 862 1696 862 1696 913 1776 c 0,15,16
 919 1786 919 1786 925.5 1802.5 c 128,-1,17
 932 1819 932 1819 939.5 1823 c 128,-1,18
 947 1827 947 1827 963 1827 c 0,0,1
297 1434 m 2,19,-1
 1020 1434 l 2,20,21
 1055 1434 1055 1434 1055 1389 c 0,22,23
 1055 1278 1055 1278 1004 1278 c 2,24,-1
 399 1278 l 1,25,-1
 350 811 l 1,26,-1
 891 811 l 2,27,28
 926 811 926 811 926 766 c 0,29,30
 926 655 926 655 874 655 c 2,31,-1
 334 655 l 1,32,-1
 283 156 l 1,33,-1
 889 156 l 2,34,35
 924 156 924 156 924 111 c 0,36,37
 924 0 924 0 872 0 c 2,38,-1
 147 0 l 2,39,40
 92 0 92 0 92 49 c 0,41,42
 92 57 92 57 229 1372 c 0,43,44
 236 1434 236 1434 297 1434 c 2,19,-1
EndSplineSet
Position2: "'cpsp' Capital Spacing lookup 0 subtable" dx=10 dy=0 dh=20 dv=0
EndChar

StartChar: Ecaron
Encoding: 282 282 45
Width: 1118
GlyphClass: 2
Flags: MW
HStem: 0 156<128 889 283 872> 655 156<350 874 334 891> 1278 156<399 1004 399 399>
VStem: 92 963
AnchorPoint: "Anchor-1" 698 1796 basechar 0
AnchorPoint: "Anchor-0" 514 0 basechar 0
LayerCount: 2
Fore
SplineSet
899 1845 m 2,0,-1
 903 1845 l 2,1,2
 948 1845 948 1845 948 1817 c 0,3,4
 948 1801 948 1801 934 1780 c 2,5,-1
 797 1599 l 2,6,7
 764 1554 764 1554 698 1554 c 2,8,-1
 647 1554 l 2,9,10
 581 1554 581 1554 557 1599 c 2,11,-1
 463 1780 l 2,12,13
 453 1798 453 1798 455 1822 c 0,14,15
 457 1846 457 1846 504 1845 c 2,16,-1
 508 1845 l 2,17,18
 549 1845 549 1845 575 1819 c 1,19,-1
 684 1667 l 1,20,-1
 829 1819 l 1,21,22
 862 1845 862 1845 899 1845 c 2,0,-1
297 1434 m 2,23,-1
 1020 1434 l 2,24,25
 1055 1434 1055 1434 1055 1389 c 0,26,27
 1055 1278 1055 1278 1004 1278 c 2,28,-1
 399 1278 l 1,29,-1
 350 811 l 1,30,-1
 891 811 l 2,31,32
 926 811 926 811 926 766 c 0,33,34
 926 655 926 655 874 655 c 2,35,-1
 334 655 l 1,36,-1
 283 156 l 1,37,-1
 889 156 l 2,38,39
 924 156 924 156 924 111 c 0,40,41
 924 0 924 0 872 0 c 2,42,-1
 147 0 l 2,43,44
 92 0 92 0 92 49 c 0,45,46
 92 57 92 57 229 1372 c 0,47,48
 236 1434 236 1434 297 1434 c 2,23,-1
EndSplineSet
Position2: "'cpsp' Capital Spacing lookup 0 subtable" dx=10 dy=0 dh=20 dv=0
EndChar

StartChar: Ecircumflex
Encoding: 202 202 46
Width: 1118
GlyphClass: 2
Flags: MW
HStem: 0 156<128 889 283 872> 655 156<350 874 334 891> 1278 156<399 1004 399 399>
VStem: 92 963
AnchorPoint: "Anchor-1" 1040 1624 basechar 0
AnchorPoint: "Anchor-0" 514 0 basechar 0
LayerCount: 2
Fore
SplineSet
662 1833 m 2,0,-1
 713 1833 l 2,1,2
 779 1833 779 1833 803 1788 c 2,3,-1
 899 1608 l 2,4,5
 909 1592 909 1592 907 1567 c 0,6,7
 905 1542 905 1542 856 1542 c 2,8,-1
 852 1542 l 2,9,10
 813 1542 813 1542 786 1569 c 1,11,-1
 674 1720 l 1,12,-1
 532 1569 l 1,13,14
 499 1542 499 1542 461 1542 c 2,15,-1
 457 1542 l 2,16,17
 414 1542 414 1542 414 1567 c 0,18,19
 414 1585 414 1585 428 1608 c 2,20,-1
 563 1788 l 2,21,22
 596 1833 596 1833 662 1833 c 2,0,-1
297 1434 m 2,23,-1
 1020 1434 l 2,24,25
 1055 1434 1055 1434 1055 1389 c 0,26,27
 1055 1278 1055 1278 1004 1278 c 2,28,-1
 399 1278 l 1,29,-1
 350 811 l 1,30,-1
 891 811 l 2,31,32
 926 811 926 811 926 766 c 0,33,34
 926 655 926 655 874 655 c 2,35,-1
 334 655 l 1,36,-1
 283 156 l 1,37,-1
 889 156 l 2,38,39
 924 156 924 156 924 111 c 0,40,41
 924 0 924 0 872 0 c 2,42,-1
 147 0 l 2,43,44
 92 0 92 0 92 49 c 0,45,46
 92 57 92 57 229 1372 c 0,47,48
 236 1434 236 1434 297 1434 c 2,23,-1
EndSplineSet
Position2: "'cpsp' Capital Spacing lookup 0 subtable" dx=10 dy=0 dh=20 dv=0
EndChar

StartChar: Ecircumflexacute
Encoding: 7870 7870 47
Width: 1118
GlyphClass: 2
Flags: MW
HStem: 0 156<128 889 283 872> 655 156<350 874 334 891> 1278 156<399 1004 399 399> 1542 291<459 729 473 729 678 838 678 842>
VStem: 92 1108
AnchorPoint: "Anchor-1" 963 1698 basechar 0
AnchorPoint: "Anchor-0" 514 0 basechar 0
LayerCount: 2
Fore
SplineSet
1001 1915 m 0,0,1
 1034 1968 1034 1968 1117 1968 c 128,-1,2
 1200 1968 1200 1968 1200 1944 c 0,3,4
 1200 1932 1200 1932 1012 1724 c 0,5,6
 981 1687 981 1687 935 1687.5 c 128,-1,7
 889 1688 889 1688 889 1706 c 0,8,9
 888 1735 888 1735 1001 1915 c 0,0,1
678 1833 m 2,10,-1
 729 1833 l 2,11,12
 778 1833 778 1833 799 1788 c 2,13,-1
 885 1608 l 1,14,15
 895 1592 895 1592 893 1567 c 128,-1,16
 891 1542 891 1542 842 1542 c 2,17,-1
 838 1542 l 2,18,19
 787 1542 787 1542 772 1569 c 2,20,-1
 690 1720 l 1,21,-1
 549 1569 l 1,22,23
 516 1542 516 1542 477 1542 c 2,24,-1
 473 1542 l 2,25,26
 430 1542 430 1542 430 1567 c 0,27,28
 430 1585 430 1585 444 1608 c 2,29,-1
 580 1788 l 2,30,31
 612 1833 612 1833 678 1833 c 2,10,-1
297 1434 m 2,32,-1
 1020 1434 l 2,33,34
 1055 1434 1055 1434 1055 1389 c 0,35,36
 1055 1278 1055 1278 1004 1278 c 2,37,-1
 399 1278 l 1,38,-1
 350 811 l 1,39,-1
 891 811 l 2,40,41
 926 811 926 811 926 766 c 0,42,43
 926 655 926 655 874 655 c 2,44,-1
 334 655 l 1,45,-1
 283 156 l 1,46,-1
 889 156 l 2,47,48
 924 156 924 156 924 111 c 0,49,50
 924 0 924 0 872 0 c 2,51,-1
 147 0 l 2,52,53
 92 0 92 0 92 49 c 0,54,55
 92 57 92 57 229 1372 c 0,56,57
 236 1434 236 1434 297 1434 c 2,32,-1
EndSplineSet
Position2: "'cpsp' Capital Spacing lookup 0 subtable" dx=10 dy=0 dh=20 dv=0
EndChar

StartChar: Ecircumflexdotbelow
Encoding: 7878 7878 48
Width: 1118
GlyphClass: 2
Flags: MW
HStem: -358 195<465 502> 0 156<128 889 283 872> 655 156<350 874 334 891> 1278 156<399 1004 399 399>
VStem: 393 182<-328 -195>
AnchorPoint: "Anchor-1" 502 -168 basechar 0
AnchorPoint: "Anchor-0" 471 -416 basechar 0
LayerCount: 2
Fore
SplineSet
662 1833 m 2,0,-1
 713 1833 l 2,1,2
 779 1833 779 1833 803 1788 c 2,3,-1
 899 1608 l 2,4,5
 909 1592 909 1592 907 1567 c 128,-1,6
 905 1542 905 1542 856 1542 c 2,7,-1
 852 1542 l 2,8,9
 813 1542 813 1542 786 1569 c 1,10,-1
 674 1720 l 1,11,-1
 532 1569 l 1,12,13
 499 1542 499 1542 461 1542 c 2,14,-1
 457 1542 l 2,15,16
 414 1542 414 1542 414 1567 c 0,17,18
 414 1585 414 1585 428 1608 c 2,19,-1
 563 1788 l 2,20,21
 596 1833 596 1833 662 1833 c 2,0,-1
297 1434 m 2,22,-1
 1020 1434 l 2,23,24
 1055 1434 1055 1434 1055 1389 c 0,25,26
 1055 1278 1055 1278 1004 1278 c 2,27,-1
 399 1278 l 1,28,-1
 350 811 l 1,29,-1
 891 811 l 2,30,31
 926 811 926 811 926 766 c 0,32,33
 926 655 926 655 874 655 c 2,34,-1
 334 655 l 1,35,-1
 283 156 l 1,36,-1
 889 156 l 2,37,38
 924 156 924 156 924 111 c 0,39,40
 924 0 924 0 872 0 c 2,41,-1
 147 0 l 2,42,43
 92 0 92 0 92 49 c 0,44,45
 92 57 92 57 229 1372 c 0,46,47
 236 1434 236 1434 297 1434 c 2,22,-1
403 -209 m 2,48,49
 409 -164 409 -164 492 -164 c 128,-1,50
 575 -164 575 -164 575 -209 c 1,51,-1
 565 -313 l 2,52,53
 559 -358 559 -358 476 -358 c 128,-1,54
 393 -358 393 -358 393 -313 c 1,55,-1
 403 -209 l 2,48,49
EndSplineSet
Position2: "'cpsp' Capital Spacing lookup 0 subtable" dx=10 dy=0 dh=20 dv=0
EndChar

StartChar: Ecircumflexgrave
Encoding: 7872 7872 49
Width: 1118
GlyphClass: 2
Flags: MW
HStem: 0 156<128 889 283 872> 655 156<350 874 334 891> 1278 156<399 1004 399 399> 1542 291<459 729 473 729 678 838 678 842>
VStem: 92 963
AnchorPoint: "Anchor-1" 963 1698 basechar 0
AnchorPoint: "Anchor-0" 514 0 basechar 0
LayerCount: 2
Fore
SplineSet
801 1950 m 0,0,1
 801 1975 801 1975 877.5 1974.5 c 128,-1,2
 954 1974 954 1974 975 1921 c 0,3,4
 1051 1737 1051 1737 1051 1706 c 0,5,6
 1051 1688 1051 1688 1000.5 1688 c 128,-1,7
 950 1688 950 1688 930 1724 c 0,8,9
 803 1921 803 1921 801 1950 c 0,0,1
678 1833 m 2,10,-1
 729 1833 l 2,11,12
 778 1833 778 1833 799 1788 c 2,13,-1
 885 1608 l 1,14,15
 895 1592 895 1592 893 1567 c 128,-1,16
 891 1542 891 1542 842 1542 c 2,17,-1
 838 1542 l 2,18,19
 787 1542 787 1542 772 1569 c 2,20,-1
 690 1720 l 1,21,-1
 549 1569 l 1,22,23
 516 1542 516 1542 477 1542 c 2,24,-1
 473 1542 l 2,25,26
 430 1542 430 1542 430 1567 c 0,27,28
 430 1585 430 1585 444 1608 c 2,29,-1
 580 1788 l 2,30,31
 612 1833 612 1833 678 1833 c 2,10,-1
297 1434 m 2,32,-1
 1020 1434 l 2,33,34
 1055 1434 1055 1434 1055 1389 c 0,35,36
 1055 1278 1055 1278 1004 1278 c 2,37,-1
 399 1278 l 1,38,-1
 350 811 l 1,39,-1
 891 811 l 2,40,41
 926 811 926 811 926 766 c 0,42,43
 926 655 926 655 874 655 c 2,44,-1
 334 655 l 1,45,-1
 283 156 l 1,46,-1
 889 156 l 2,47,48
 924 156 924 156 924 111 c 0,49,50
 924 0 924 0 872 0 c 2,51,-1
 147 0 l 2,52,53
 92 0 92 0 92 49 c 0,54,55
 92 57 92 57 229 1372 c 0,56,57
 236 1434 236 1434 297 1434 c 2,32,-1
EndSplineSet
Position2: "'cpsp' Capital Spacing lookup 0 subtable" dx=10 dy=0 dh=20 dv=0
EndChar

StartChar: Ecircumflexhookabove
Encoding: 7874 7874 50
Width: 1118
GlyphClass: 2
Flags: MW
HStem: 0 156<128 889 283 872> 655 156<350 874 334 891> 1278 156<399 1004 399 399> 1542 291<459 729 473 729 678 838 678 842> 1907 98<939 969>
VStem: 1018 119<1837 1870>
AnchorPoint: "Anchor-1" 963 1698 basechar 0
AnchorPoint: "Anchor-0" 514 0 basechar 0
LayerCount: 2
Fore
SplineSet
1018 1851 m 0,0,1
 1018 1906 1018 1906 948 1907 c 0,2,3
 905 1907 905 1907 878.5 1893.5 c 128,-1,4
 852 1880 852 1880 850 1880 c 0,5,6
 838 1880 838 1880 823.5 1905.5 c 128,-1,7
 809 1931 809 1931 809 1949.5 c 128,-1,8
 809 1968 809 1968 864.5 1986.5 c 128,-1,9
 920 2005 920 2005 979 2005 c 128,-1,10
 1038 2005 1038 2005 1087.5 1971 c 128,-1,11
 1137 1937 1137 1937 1137 1869.5 c 128,-1,12
 1137 1802 1137 1802 1051 1735 c 0,13,14
 996 1690 996 1690 963 1690 c 128,-1,15
 930 1690 930 1690 910.5 1703 c 128,-1,16
 891 1716 891 1716 891 1731.5 c 128,-1,17
 891 1747 891 1747 954.5 1779.5 c 128,-1,18
 1018 1812 1018 1812 1018 1851 c 0,0,1
678 1833 m 2,19,-1
 729 1833 l 2,20,21
 778 1833 778 1833 799 1788 c 2,22,-1
 885 1608 l 1,23,24
 895 1592 895 1592 893 1567 c 128,-1,25
 891 1542 891 1542 842 1542 c 2,26,-1
 838 1542 l 2,27,28
 787 1542 787 1542 772 1569 c 2,29,-1
 690 1720 l 1,30,-1
 549 1569 l 1,31,32
 516 1542 516 1542 477 1542 c 2,33,-1
 473 1542 l 2,34,35
 430 1542 430 1542 430 1567 c 0,36,37
 430 1585 430 1585 444 1608 c 2,38,-1
 580 1788 l 2,39,40
 612 1833 612 1833 678 1833 c 2,19,-1
297 1434 m 2,41,-1
 1020 1434 l 2,42,43
 1055 1434 1055 1434 1055 1389 c 0,44,45
 1055 1278 1055 1278 1004 1278 c 2,46,-1
 399 1278 l 1,47,-1
 350 811 l 1,48,-1
 891 811 l 2,49,50
 926 811 926 811 926 766 c 0,51,52
 926 655 926 655 874 655 c 2,53,-1
 334 655 l 1,54,-1
 283 156 l 1,55,-1
 889 156 l 2,56,57
 924 156 924 156 924 111 c 0,58,59
 924 0 924 0 872 0 c 2,60,-1
 147 0 l 2,61,62
 92 0 92 0 92 49 c 0,63,64
 92 57 92 57 229 1372 c 0,65,66
 236 1434 236 1434 297 1434 c 2,41,-1
EndSplineSet
Position2: "'cpsp' Capital Spacing lookup 0 subtable" dx=10 dy=0 dh=20 dv=0
EndChar

StartChar: Ecircumflextilde
Encoding: 7876 7876 51
Width: 1118
GlyphClass: 2
Flags: MW
HStem: 0 156<128 889 283 872> 655 156<350 874 334 891> 1278 156<399 1004 399 399> 1544 240<446 719 461 719 668 856 668 860> 1849 131<823 851> 1913 131<574 602>
VStem: 92 963
AnchorPoint: "Anchor-1" 711 1796 basechar 0
AnchorPoint: "Anchor-0" 514 0 basechar 0
LayerCount: 2
Fore
SplineSet
942 2025 m 0,0,1
 981 2054 981 2054 1015 2016 c 0,2,3
 1049 1978 1049 1978 1010 1939 c 0,4,5
 912 1849 912 1849 824 1849 c 0,6,7
 737 1849 737 1849 674 1881 c 0,8,9
 611 1913 611 1913 585 1913 c 0,10,11
 559 1913 559 1913 500 1879 c 0,12,13
 441 1845 441 1845 410 1889 c 0,14,15
 379 1933 379 1933 414 1960 c 0,16,17
 518 2044 518 2044 612 2044 c 0,18,19
 673 2044 673 2044 742 2012 c 0,20,21
 811 1980 811 1980 847 1980 c 0,22,23
 883 1980 883 1980 942 2025 c 0,0,1
668 1784 m 2,24,-1
 719 1784 l 2,25,26
 768 1784 768 1784 809 1739 c 1,27,-1
 903 1610 l 2,28,29
 913 1594 913 1594 911 1569 c 0,30,31
 909 1544 909 1544 860 1544 c 2,32,-1
 856 1544 l 2,33,34
 825 1544 825 1544 791 1571 c 1,35,-1
 680 1671 l 1,36,-1
 537 1571 l 1,37,38
 492 1544 492 1544 465 1544 c 2,39,-1
 461 1544 l 2,40,41
 418 1544 418 1544 418 1569 c 0,42,43
 418 1587 418 1587 432 1610 c 1,44,-1
 569 1739 l 1,45,46
 625 1784 625 1784 668 1784 c 2,24,-1
297 1434 m 2,47,-1
 1020 1434 l 2,48,49
 1055 1434 1055 1434 1055 1389 c 0,50,51
 1055 1278 1055 1278 1004 1278 c 2,52,-1
 399 1278 l 1,53,-1
 350 811 l 1,54,-1
 891 811 l 2,55,56
 926 811 926 811 926 766 c 0,57,58
 926 655 926 655 874 655 c 2,59,-1
 334 655 l 1,60,-1
 283 156 l 1,61,-1
 889 156 l 2,62,63
 924 156 924 156 924 111 c 0,64,65
 924 0 924 0 872 0 c 2,66,-1
 147 0 l 2,67,68
 92 0 92 0 92 49 c 0,69,70
 92 57 92 57 229 1372 c 0,71,72
 236 1434 236 1434 297 1434 c 2,47,-1
EndSplineSet
Position2: "'cpsp' Capital Spacing lookup 0 subtable" dx=10 dy=0 dh=20 dv=0
EndChar

StartChar: Edieresis
Encoding: 203 203 52
Width: 1118
GlyphClass: 2
Flags: MW
HStem: 0 156<128 889 283 872> 655 156<350 874 334 891> 1278 156<399 1004 399 399> 1606 195<516 553 811 848>
VStem: 444 182<1636 1769> 739 182<1636 1769>
AnchorPoint: "Anchor-1" 702 1796 basechar 0
AnchorPoint: "Anchor-0" 514 0 basechar 0
LayerCount: 2
Fore
SplineSet
455 1755 m 2,0,1
 461 1800 461 1800 544 1800 c 128,-1,2
 627 1800 627 1800 627 1755 c 1,3,-1
 616 1651 l 2,4,5
 610 1606 610 1606 527 1606 c 128,-1,6
 444 1606 444 1606 444 1651 c 1,7,-1
 455 1755 l 2,0,1
750 1755 m 2,8,9
 754 1800 754 1800 838 1800 c 128,-1,10
 922 1800 922 1800 922 1755 c 1,11,-1
 911 1651 l 2,12,13
 905 1606 905 1606 822 1606 c 128,-1,14
 739 1606 739 1606 739 1651 c 1,15,-1
 750 1755 l 2,8,9
297 1434 m 2,16,-1
 1020 1434 l 2,17,18
 1055 1434 1055 1434 1055 1389 c 0,19,20
 1055 1278 1055 1278 1004 1278 c 2,21,-1
 399 1278 l 1,22,-1
 350 811 l 1,23,-1
 891 811 l 2,24,25
 926 811 926 811 926 766 c 0,26,27
 926 655 926 655 874 655 c 2,28,-1
 334 655 l 1,29,-1
 283 156 l 1,30,-1
 889 156 l 2,31,32
 924 156 924 156 924 111 c 0,33,34
 924 0 924 0 872 0 c 2,35,-1
 147 0 l 2,36,37
 92 0 92 0 92 49 c 0,38,39
 92 57 92 57 229 1372 c 0,40,41
 236 1434 236 1434 297 1434 c 2,16,-1
EndSplineSet
Position2: "'cpsp' Capital Spacing lookup 0 subtable" dx=10 dy=0 dh=20 dv=0
EndChar

StartChar: Edotaccent
Encoding: 278 278 53
Width: 1118
GlyphClass: 2
Flags: MW
HStem: 0 156<128 889 283 872> 655 156<350 874 334 891> 1278 156<399 1004 399 399> 1606 195<664 700>
VStem: 592 182<1636 1769>
AnchorPoint: "Anchor-1" 700 1796 basechar 0
AnchorPoint: "Anchor-0" 514 0 basechar 0
LayerCount: 2
Fore
SplineSet
602 1755 m 2,0,1
 608 1800 608 1800 691 1800 c 128,-1,2
 774 1800 774 1800 774 1755 c 1,3,-1
 764 1651 l 2,4,5
 758 1606 758 1606 675 1606 c 128,-1,6
 592 1606 592 1606 592 1651 c 1,7,-1
 602 1755 l 2,0,1
297 1434 m 2,8,-1
 1020 1434 l 2,9,10
 1055 1434 1055 1434 1055 1389 c 0,11,12
 1055 1278 1055 1278 1004 1278 c 2,13,-1
 399 1278 l 1,14,-1
 350 811 l 1,15,-1
 891 811 l 2,16,17
 926 811 926 811 926 766 c 0,18,19
 926 655 926 655 874 655 c 2,20,-1
 334 655 l 1,21,-1
 283 156 l 1,22,-1
 889 156 l 2,23,24
 924 156 924 156 924 111 c 0,25,26
 924 0 924 0 872 0 c 2,27,-1
 147 0 l 2,28,29
 92 0 92 0 92 49 c 0,30,31
 92 57 92 57 229 1372 c 0,32,33
 236 1434 236 1434 297 1434 c 2,8,-1
EndSplineSet
Position2: "'cpsp' Capital Spacing lookup 0 subtable" dx=10 dy=0 dh=20 dv=0
EndChar

StartChar: Edotbelow
Encoding: 7864 7864 54
Width: 1118
GlyphClass: 2
Flags: MW
HStem: -358 195<465 502> 0 156<128 889 283 872> 655 156<350 874 334 891> 1278 156<399 1004 399 399>
VStem: 393 182<-328 -195>
AnchorPoint: "Anchor-1" 502 -168 basechar 0
AnchorPoint: "Anchor-0" 471 -416 basechar 0
LayerCount: 2
Fore
SplineSet
297 1434 m 2,0,-1
 1020 1434 l 2,1,2
 1055 1434 1055 1434 1055 1389 c 0,3,4
 1055 1278 1055 1278 1004 1278 c 2,5,-1
 399 1278 l 1,6,-1
 350 811 l 1,7,-1
 891 811 l 2,8,9
 926 811 926 811 926 766 c 0,10,11
 926 655 926 655 874 655 c 2,12,-1
 334 655 l 1,13,-1
 283 156 l 1,14,-1
 889 156 l 2,15,16
 924 156 924 156 924 111 c 0,17,18
 924 0 924 0 872 0 c 2,19,-1
 147 0 l 2,20,21
 92 0 92 0 92 49 c 0,22,23
 92 57 92 57 229 1372 c 0,24,25
 236 1434 236 1434 297 1434 c 2,0,-1
403 -209 m 2,26,27
 409 -164 409 -164 492 -164 c 128,-1,28
 575 -164 575 -164 575 -209 c 1,29,-1
 565 -313 l 2,30,31
 559 -358 559 -358 476 -358 c 128,-1,32
 393 -358 393 -358 393 -313 c 1,33,-1
 403 -209 l 2,26,27
EndSplineSet
Position2: "'cpsp' Capital Spacing lookup 0 subtable" dx=10 dy=0 dh=20 dv=0
EndChar

StartChar: Egrave
Encoding: 200 200 55
Width: 1118
GlyphClass: 2
Flags: MW
HStem: 0 156<128 889 283 872> 655 156<350 874 334 891> 1278 156<399 1004 399 399>
VStem: 92 963
AnchorPoint: "Anchor-1" 705 1796 basechar 0
AnchorPoint: "Anchor-0" 514 0 basechar 0
LayerCount: 2
Fore
SplineSet
516 1862 m 128,-1,1
 612 1862 612 1862 643 1808 c 0,2,3
 762 1605 762 1605 762 1579 c 0,4,5
 762 1561 762 1561 701 1561 c 0,6,7
 641 1561 641 1561 610 1597 c 0,8,9
 430 1802 430 1802 424 1816 c 0,10,11
 418 1829 418 1829 418 1837 c 0,12,0
 420 1862 420 1862 516 1862 c 128,-1,1
297 1434 m 2,13,-1
 1020 1434 l 2,14,15
 1055 1434 1055 1434 1055 1389 c 0,16,17
 1055 1278 1055 1278 1004 1278 c 2,18,-1
 399 1278 l 1,19,-1
 350 811 l 1,20,-1
 891 811 l 2,21,22
 926 811 926 811 926 766 c 0,23,24
 926 655 926 655 874 655 c 2,25,-1
 334 655 l 1,26,-1
 283 156 l 1,27,-1
 889 156 l 2,28,29
 924 156 924 156 924 111 c 0,30,31
 924 0 924 0 872 0 c 2,32,-1
 147 0 l 2,33,34
 92 0 92 0 92 49 c 0,35,36
 92 57 92 57 229 1372 c 0,37,38
 236 1434 236 1434 297 1434 c 2,13,-1
EndSplineSet
Position2: "'cpsp' Capital Spacing lookup 0 subtable" dx=10 dy=0 dh=20 dv=0
EndChar

StartChar: Ehookabove
Encoding: 7866 7866 56
Width: 1118
GlyphClass: 2
Flags: MW
HStem: 0 156<128 889 283 872> 655 156<350 874 334 891> 1278 156<399 1004 399 399> 1794 104<673 702>
VStem: 752 135<1690 1759>
AnchorPoint: "Anchor-1" 700 1796 basechar 0
AnchorPoint: "Anchor-0" 514 0 basechar 0
LayerCount: 2
Fore
SplineSet
752 1743 m 0,0,1
 752 1794 752 1794 682 1794 c 0,2,3
 631 1794 631 1794 608.5 1780.5 c 128,-1,4
 586 1767 586 1767 584 1767 c 0,5,6
 572 1767 572 1767 557.5 1793 c 128,-1,7
 543 1819 543 1819 543 1837 c 128,-1,8
 543 1855 543 1855 599 1876.5 c 128,-1,9
 655 1898 655 1898 714.5 1898 c 128,-1,10
 774 1898 774 1898 830.5 1863.5 c 128,-1,11
 887 1829 887 1829 887 1767.5 c 128,-1,12
 887 1706 887 1706 858 1658 c 128,-1,13
 829 1610 829 1610 793 1581 c 0,14,15
 709 1515 709 1515 680 1515.5 c 128,-1,16
 651 1516 651 1516 627.5 1526 c 128,-1,17
 604 1536 604 1536 604 1554.5 c 128,-1,18
 604 1573 604 1573 641 1598 c 0,19,20
 752 1675 752 1675 752 1743 c 0,0,1
297 1434 m 2,21,-1
 1020 1434 l 2,22,23
 1055 1434 1055 1434 1055 1389 c 0,24,25
 1055 1278 1055 1278 1004 1278 c 2,26,-1
 399 1278 l 1,27,-1
 350 811 l 1,28,-1
 891 811 l 2,29,30
 926 811 926 811 926 766 c 0,31,32
 926 655 926 655 874 655 c 2,33,-1
 334 655 l 1,34,-1
 283 156 l 1,35,-1
 889 156 l 2,36,37
 924 156 924 156 924 111 c 0,38,39
 924 0 924 0 872 0 c 2,40,-1
 147 0 l 2,41,42
 92 0 92 0 92 49 c 0,43,44
 92 57 92 57 229 1372 c 0,45,46
 236 1434 236 1434 297 1434 c 2,21,-1
EndSplineSet
Position2: "'cpsp' Capital Spacing lookup 0 subtable" dx=10 dy=0 dh=20 dv=0
EndChar

StartChar: Emacron
Encoding: 274 274 57
Width: 1118
GlyphClass: 2
Flags: MW
HStem: 0 156<128 889 283 872> 655 156<350 874 334 891> 1278 156<399 1004 399 399> 1616 145<408 901 438 885>
VStem: 92 963
AnchorPoint: "Anchor-1" 692 1796 basechar 0
AnchorPoint: "Anchor-0" 514 0 basechar 0
LayerCount: 2
Fore
SplineSet
438 1761 m 2,0,-1
 901 1761 l 2,1,2
 936 1761 936 1761 936 1708 c 0,3,4
 936 1616 936 1616 885 1616 c 2,5,-1
 422 1616 l 2,6,7
 387 1616 387 1616 387 1671 c 0,8,9
 387 1761 387 1761 438 1761 c 2,0,-1
297 1434 m 2,10,-1
 1020 1434 l 2,11,12
 1055 1434 1055 1434 1055 1389 c 0,13,14
 1055 1278 1055 1278 1004 1278 c 2,15,-1
 399 1278 l 1,16,-1
 350 811 l 1,17,-1
 891 811 l 2,18,19
 926 811 926 811 926 766 c 0,20,21
 926 655 926 655 874 655 c 2,22,-1
 334 655 l 1,23,-1
 283 156 l 1,24,-1
 889 156 l 2,25,26
 924 156 924 156 924 111 c 0,27,28
 924 0 924 0 872 0 c 2,29,-1
 147 0 l 2,30,31
 92 0 92 0 92 49 c 0,32,33
 92 57 92 57 229 1372 c 0,34,35
 236 1434 236 1434 297 1434 c 2,10,-1
EndSplineSet
Position2: "'cpsp' Capital Spacing lookup 0 subtable" dx=10 dy=0 dh=20 dv=0
EndChar

StartChar: Eogonek
Encoding: 280 280 58
Width: 1118
GlyphClass: 2
Flags: MW
HStem: -375 143<930 957> 0 156<128 889 283 766 872 889 889 898> 655 156<350 874 334 891> 1278 156<399 1004 399 399>
VStem: 692 141<-184 -174>
AnchorPoint: "Anchor-1" 662 1434 basechar 0
AnchorPoint: "Anchor-0" 801 -416 basechar 0
LayerCount: 2
Fore
SplineSet
1083 -195 m 0,0,1
 1095 -195 1095 -195 1096 -221 c 0,2,3
 1096 -375 1096 -375 913 -375 c 0,4,5
 786 -375 786 -375 739 -319.5 c 128,-1,6
 692 -264 692 -264 692 -208 c 0,7,8
 692 -152 692 -152 710.5 -92.5 c 128,-1,9
 729 -33 729 -33 766 0 c 1,10,-1
 147 0 l 2,11,12
 92 0 92 0 92 49 c 0,13,14
 92 57 92 57 229 1372 c 0,15,16
 235 1433 235 1433 297 1434 c 2,17,-1
 1020 1434 l 2,18,19
 1055 1434 1055 1434 1055 1389 c 0,20,21
 1055 1278 1055 1278 1004 1278 c 2,22,-1
 399 1278 l 1,23,-1
 350 811 l 1,24,-1
 891 811 l 2,25,26
 926 811 926 811 926 766 c 0,27,28
 926 655 926 655 874 655 c 2,29,-1
 334 655 l 1,30,-1
 283 156 l 1,31,-1
 889 156 l 2,32,33
 924 156 924 156 924 111 c 0,34,35
 924 0 924 0 872 0 c 1,36,37
 870 -10 870 -10 852 -60.5 c 128,-1,38
 834 -111 834 -111 834 -143 c 0,39,40
 834 -231 834 -231 952 -231 c 0,41,42
 989 -231 989 -231 1034 -213 c 128,-1,43
 1079 -195 1079 -195 1083 -195 c 0,0,1
EndSplineSet
Position2: "'cpsp' Capital Spacing lookup 0 subtable" dx=10 dy=0 dh=20 dv=0
EndChar

StartChar: Etilde
Encoding: 7868 7868 59
Width: 1118
GlyphClass: 2
Flags: MW
HStem: 0 156<128 889 283 872> 655 156<350 874 334 891> 1278 156<399 1004 399 399> 1561 131<821 851> 1624 131<548 579>
VStem: 92 963
AnchorPoint: "Anchor-1" 733 1796 basechar 0
AnchorPoint: "Anchor-0" 514 0 basechar 0
LayerCount: 2
Fore
SplineSet
952 1737 m 0,0,1
 995 1766 995 1766 1032 1729 c 0,2,3
 1069 1692 1069 1692 1026 1651 c 0,4,5
 917 1561 917 1561 821 1561 c 0,6,7
 725 1561 725 1561 655 1592 c 0,8,9
 585 1624 585 1624 557 1624 c 0,10,11
 528 1624 528 1624 464 1590 c 0,12,13
 399 1556 399 1556 367 1601 c 0,14,15
 334 1645 334 1645 371 1671 c 0,16,17
 488 1755 488 1755 590 1755 c 0,18,19
 653 1755 653 1755 730 1723 c 0,20,21
 807 1691 807 1691 846 1692 c 0,22,23
 884 1692 884 1692 952 1737 c 0,0,1
297 1434 m 2,24,-1
 1020 1434 l 2,25,26
 1055 1434 1055 1434 1055 1389 c 0,27,28
 1055 1278 1055 1278 1004 1278 c 2,29,-1
 399 1278 l 1,30,-1
 350 811 l 1,31,-1
 891 811 l 2,32,33
 926 811 926 811 926 766 c 0,34,35
 926 655 926 655 874 655 c 2,36,-1
 334 655 l 1,37,-1
 283 156 l 1,38,-1
 889 156 l 2,39,40
 924 156 924 156 924 111 c 0,41,42
 924 0 924 0 872 0 c 2,43,-1
 147 0 l 2,44,45
 92 0 92 0 92 49 c 0,46,47
 92 57 92 57 229 1372 c 0,48,49
 236 1434 236 1434 297 1434 c 2,24,-1
EndSplineSet
Position2: "'cpsp' Capital Spacing lookup 0 subtable" dx=10 dy=0 dh=20 dv=0
EndChar

StartChar: F
Encoding: 70 70 60
Width: 1030
GlyphClass: 2
Flags: MW
HStem: 655 156<360 858 344 874> 1278 156<410 940 410 410>
VStem: 100 891
LayerCount: 2
Fore
SplineSet
307 1434 m 2,0,-1
 956 1434 l 2,1,2
 991 1434 991 1434 991 1389 c 0,3,4
 991 1278 991 1278 940 1278 c 2,5,-1
 410 1278 l 1,6,-1
 360 811 l 1,7,-1
 874 811 l 2,8,9
 909 811 909 811 909 766 c 0,10,11
 909 655 909 655 858 655 c 2,12,-1
 344 655 l 1,13,-1
 281 41 l 2,14,15
 275 -4 275 -4 195 -4 c 2,16,-1
 178 -4 l 2,17,18
 100 -4 100 -4 100 41 c 1,19,-1
 240 1372 l 2,20,21
 246 1434 246 1434 307 1434 c 2,0,-1
EndSplineSet
Position2: "'cpsp' Capital Spacing lookup 0 subtable" dx=10 dy=0 dh=20 dv=0
EndChar

StartChar: G
Encoding: 71 71 61
Width: 1376
GlyphClass: 2
Flags: MW
HStem: -12 156<545 754 545 788> 584 156<758 1147 786 1012> 1290 156<647 932>
VStem: 106 188<464 808 464 867>
AnchorPoint: "Anchor-1" 811 1434 basechar 0
AnchorPoint: "Anchor-0" 688 0 basechar 0
LayerCount: 2
Fore
SplineSet
856 1446 m 0,0,1
 999 1446 999 1446 1116 1405 c 128,-1,2
 1233 1364 1233 1364 1233 1321 c 0,3,4
 1233 1296 1233 1296 1201 1248 c 128,-1,5
 1169 1200 1169 1200 1151 1200 c 0,6,7
 1147 1200 1147 1200 1108 1222.5 c 128,-1,8
 1069 1245 1069 1245 994.5 1267.5 c 128,-1,9
 920 1290 920 1290 827 1290 c 0,10,11
 563 1290 563 1290 429 1107 c 128,-1,12
 295 924 295 924 295 590 c 0,13,14
 295 144 295 144 700 143 c 0,15,16
 864 143 864 143 967 170 c 1,17,-1
 1012 584 l 1,18,-1
 770 584 l 2,19,20
 735 584 735 584 735 629 c 0,21,22
 735 740 735 740 786 739 c 2,23,-1
 1147 739 l 2,24,25
 1202 739 1202 739 1202 690 c 0,26,27
 1202 676 1202 676 1192 582 c 2,28,-1
 1166 346 l 2,29,30
 1151 205 1151 205 1145 135 c 0,31,32
 1129 -12 1129 -12 672 -12 c 0,33,34
 107 -12 107 -12 106 563 c 0,35,36
 106 1005 106 1005 305 1225.5 c 128,-1,37
 504 1446 504 1446 856 1446 c 0,0,1
EndSplineSet
Position2: "'cpsp' Capital Spacing lookup 0 subtable" dx=10 dy=0 dh=20 dv=0
EndChar

StartChar: Gbreve
Encoding: 286 286 62
Width: 1376
GlyphClass: 2
Flags: MW
HStem: -12 156<545 754 545 788> 584 156<758 1147 786 1012> 1290 156<647 932> 1561 135<785 885 785 890>
VStem: 106 188<464 808 464 867>
AnchorPoint: "Anchor-1" 850 1737 basechar 0
AnchorPoint: "Anchor-0" 688 0 basechar 0
LayerCount: 2
Fore
SplineSet
1112 1827 m 0,0,1
 1141 1827 1141 1827 1141 1802 c 0,2,3
 1141 1689 1141 1689 1039.5 1625 c 128,-1,4
 938 1561 938 1561 823.5 1561 c 128,-1,5
 709 1561 709 1561 628 1616 c 128,-1,6
 547 1671 547 1671 547 1772 c 0,7,8
 547 1827 547 1827 582 1827 c 0,9,10
 605 1827 605 1827 608.5 1817.5 c 128,-1,11
 612 1808 612 1808 615 1796 c 0,12,13
 640 1696 640 1696 826 1696 c 128,-1,14
 1012 1696 1012 1696 1063 1776 c 0,15,16
 1069 1786 1069 1786 1075 1802.5 c 128,-1,17
 1081 1819 1081 1819 1088.5 1823 c 128,-1,18
 1096 1827 1096 1827 1112 1827 c 0,0,1
856 1446 m 0,19,20
 999 1446 999 1446 1116 1405 c 128,-1,21
 1233 1364 1233 1364 1233 1321 c 0,22,23
 1233 1296 1233 1296 1201 1248 c 128,-1,24
 1169 1200 1169 1200 1151 1200 c 0,25,26
 1147 1200 1147 1200 1108 1222.5 c 128,-1,27
 1069 1245 1069 1245 994.5 1267.5 c 128,-1,28
 920 1290 920 1290 827 1290 c 0,29,30
 563 1290 563 1290 429 1107 c 128,-1,31
 295 924 295 924 295 590 c 0,32,33
 295 144 295 144 700 143 c 0,34,35
 864 143 864 143 967 170 c 1,36,-1
 1012 584 l 1,37,-1
 770 584 l 2,38,39
 735 584 735 584 735 629 c 0,40,41
 735 740 735 740 786 739 c 2,42,-1
 1147 739 l 2,43,44
 1202 739 1202 739 1202 690 c 0,45,46
 1202 676 1202 676 1192 582 c 2,47,-1
 1166 346 l 2,48,49
 1151 205 1151 205 1145 135 c 0,50,51
 1129 -12 1129 -12 672 -12 c 0,52,53
 107 -12 107 -12 106 563 c 0,54,55
 106 1005 106 1005 305 1225.5 c 128,-1,56
 504 1446 504 1446 856 1446 c 0,19,20
EndSplineSet
Position2: "'cpsp' Capital Spacing lookup 0 subtable" dx=10 dy=0 dh=20 dv=0
EndChar

StartChar: Gcircumflex
Encoding: 284 284 63
Width: 1376
GlyphClass: 2
Flags: MW
HStem: -12 156<545 754 545 788> 584 156<758 1147 786 1012> 1290 156<647 932>
VStem: 106 188<464 808 464 867>
AnchorPoint: "Anchor-1" 1190 1624 basechar 0
AnchorPoint: "Anchor-0" 688 0 basechar 0
LayerCount: 2
Fore
SplineSet
811 1833 m 2,0,-1
 862 1833 l 2,1,2
 928 1833 928 1833 952 1788 c 2,3,-1
 1049 1608 l 2,4,5
 1059 1592 1059 1592 1057 1567 c 128,-1,6
 1055 1542 1055 1542 1006 1542 c 2,7,-1
 1001 1542 l 2,8,9
 962 1542 962 1542 936 1569 c 1,10,-1
 823 1720 l 1,11,-1
 682 1569 l 1,12,13
 649 1542 649 1542 610 1542 c 2,14,-1
 606 1542 l 2,15,16
 563 1542 563 1542 563 1567 c 0,17,18
 563 1585 563 1585 578 1608 c 2,19,-1
 713 1788 l 2,20,21
 745 1833 745 1833 811 1833 c 2,0,-1
856 1446 m 0,22,23
 999 1446 999 1446 1116 1405 c 128,-1,24
 1233 1364 1233 1364 1233 1321 c 0,25,26
 1233 1296 1233 1296 1201 1248 c 128,-1,27
 1169 1200 1169 1200 1151 1200 c 0,28,29
 1147 1200 1147 1200 1108 1222.5 c 128,-1,30
 1069 1245 1069 1245 994.5 1267.5 c 128,-1,31
 920 1290 920 1290 827 1290 c 0,32,33
 563 1290 563 1290 429 1107 c 128,-1,34
 295 924 295 924 295 590 c 0,35,36
 295 144 295 144 700 143 c 0,37,38
 864 143 864 143 967 170 c 1,39,-1
 1012 584 l 1,40,-1
 770 584 l 2,41,42
 735 584 735 584 735 629 c 0,43,44
 735 740 735 740 786 739 c 2,45,-1
 1147 739 l 2,46,47
 1202 739 1202 739 1202 690 c 0,48,49
 1202 676 1202 676 1192 582 c 2,50,51
 1166 346 l 2,52,53
 1151 205 1151 205 1145 135 c 0,54,55
 1129 -12 1129 -12 672 -12 c 0,56,57
 107 -12 107 -12 106 563 c 0,58,59
 106 1005 106 1005 305 1225.5 c 128,-1,60
 504 1446 504 1446 856 1446 c 0,22,23
EndSplineSet
Position2: "'cpsp' Capital Spacing lookup 0 subtable" dx=10 dy=0 dh=20 dv=0
EndChar

StartChar: Gcommaaccent
Encoding: 290 290 64
Width: 1376
GlyphClass: 2
Flags: MW
HStem: -12 156<545 754 545 788> 584 156<758 1147 786 1012> 1290 156<647 932>
VStem: 106 188<464 808 464 867> 586 184<-221 -151>
AnchorPoint: "Anchor-1" 811 1434 basechar 0
AnchorPoint: "Anchor-0" 643 -416 basechar 0
LayerCount: 2
Fore
SplineSet
856 1446 m 0,0,1
 999 1446 999 1446 1116 1405 c 128,-1,2
 1233 1364 1233 1364 1233 1321 c 0,3,4
 1233 1296 1233 1296 1201 1248 c 128,-1,5
 1169 1200 1169 1200 1151 1200 c 0,6,7
 1147 1200 1147 1200 1108 1222.5 c 128,-1,8
 1069 1245 1069 1245 994.5 1267.5 c 128,-1,9
 920 1290 920 1290 827 1290 c 0,10,11
 563 1290 563 1290 429 1107 c 128,-1,12
 295 924 295 924 295 590 c 0,13,14
 295 144 295 144 700 143 c 0,15,16
 864 143 864 143 967 170 c 1,17,-1
 1012 584 l 1,18,-1
 770 584 l 2,19,20
 735 584 735 584 735 629 c 0,21,22
 735 740 735 740 786 739 c 2,23,-1
 1147 739 l 2,24,25
 1202 739 1202 739 1202 690 c 0,26,27
 1202 676 1202 676 1192 582 c 2,28,-1
 1166 346 l 2,29,30
 1151 205 1151 205 1145 135 c 0,31,32
 1129 -12 1129 -12 672 -12 c 0,33,34
 107 -12 107 -12 106 563 c 0,35,36
 106 1005 106 1005 305 1225.5 c 128,-1,37
 504 1446 504 1446 856 1446 c 0,0,1
676 -104 m 2,38,-1
 694 -104 l 2,39,40
 770 -104 770 -104 770 -162 c 0,41,42
 770 -246 770 -246 675 -363.5 c 128,-1,43
 580 -481 580 -481 524.5 -481 c 128,-1,44
 469 -481 469 -481 469 -451 c 0,45,46
 469 -428 469 -428 527.5 -336 c 128,-1,47
 586 -244 586 -244 586 -170 c 0,48,49
 586 -141 586 -141 610.5 -122.5 c 128,-1,50
 635 -104 635 -104 676 -104 c 2,38,-1
EndSplineSet
Position2: "'cpsp' Capital Spacing lookup 0 subtable" dx=10 dy=0 dh=20 dv=0
EndChar

StartChar: Gdotaccent
Encoding: 288 288 65
Width: 1376
GlyphClass: 2
Flags: MW
HStem: -12 156<545 754 545 788> 584 156<758 1147 786 1012> 1290 156<647 932> 1606 195<813 850>
VStem: 106 188<464 808 464 867> 741 182<1636 1769>
AnchorPoint: "Anchor-1" 850 1796 basechar 0
AnchorPoint: "Anchor-0" 688 0 basechar 0
LayerCount: 2
Fore
SplineSet
752 1755 m 2,0,1
 758 1800 758 1800 841 1800 c 128,-1,2
 924 1800 924 1800 924 1755 c 1,3,-1
 913 1651 l 2,4,5
 907 1606 907 1606 824 1606 c 128,-1,6
 741 1606 741 1606 741 1651 c 1,7,-1
 752 1755 l 2,0,1
856 1446 m 0,8,9
 999 1446 999 1446 1116 1405 c 128,-1,10
 1233 1364 1233 1364 1233 1321 c 0,11,12
 1233 1296 1233 1296 1201 1248 c 128,-1,13
 1169 1200 1169 1200 1151 1200 c 0,14,15
 1147 1200 1147 1200 1108 1222.5 c 128,-1,16
 1069 1245 1069 1245 994.5 1267.5 c 128,-1,17
 920 1290 920 1290 827 1290 c 0,18,19
 563 1290 563 1290 429 1107 c 128,-1,20
 295 924 295 924 295 590 c 0,21,22
 295 144 295 144 700 143 c 0,23,24
 864 143 864 143 967 170 c 1,25,-1
 1012 584 l 1,26,-1
 770 584 l 2,27,28
 735 584 735 584 735 629 c 0,29,30
 735 740 735 740 786 739 c 2,31,-1
 1147 739 l 2,32,33
 1202 739 1202 739 1202 690 c 0,34,35
 1202 676 1202 676 1192 582 c 2,36,-1
 1166 346 l 2,37,38
 1151 205 1151 205 1145 135 c 0,39,40
 1129 -12 1129 -12 672 -12 c 0,41,42
 107 -12 107 -12 106 563 c 0,43,44
 106 1005 106 1005 305 1225.5 c 128,-1,45
 504 1446 504 1446 856 1446 c 0,8,9
EndSplineSet
Position2: "'cpsp' Capital Spacing lookup 0 subtable" dx=10 dy=0 dh=20 dv=0
EndChar

StartChar: H
Encoding: 72 72 66
Width: 1501
GlyphClass: 2
Flags: MW
HStem: 657 156<387 1112 371 1128> 1397 41G<354 371 371 400 1276 1292 1292 1322>
VStem: 127 1243
AnchorPoint: "Anchor-1" 829 1434 basechar 0
AnchorPoint: "Anchor-0" 715 4 basechar 0
LayerCount: 2
Fore
SplineSet
1276 1438 m 2,0,-1
 1292 1438 l 2,1,2
 1370 1438 1370 1438 1370 1393 c 1,3,-1
 1229 41 l 2,4,5
 1223 -4 1223 -4 1143 -4 c 2,6,-1
 1126 -4 l 2,7,8
 1048 -4 1048 -4 1049 41 c 1,9,-1
 1112 657 l 1,10,-1
 371 657 l 1,11,-1
 307 41 l 2,12,13
 301 -4 301 -4 221 -4 c 2,14,-1
 205 -4 l 2,15,16
 127 -4 127 -4 127 41 c 1,17,-1
 268 1393 l 2,18,19
 272 1438 272 1438 354 1438 c 2,20,-1
 371 1438 l 2,21,22
 449 1438 449 1438 449 1393 c 1,23,-1
 387 813 l 1,24,-1
 1128 813 l 1,25,-1
 1190 1393 l 2,26,27
 1194 1438 1194 1438 1276 1438 c 2,0,-1
EndSplineSet
Position2: "'cpsp' Capital Spacing lookup 0 subtable" dx=10 dy=0 dh=20 dv=0
EndChar

StartChar: Hbar
Encoding: 294 294 67
Width: 1501
GlyphClass: 2
Flags: MW
HStem: 657 156<387 1112 371 1128> 1004 145<141 244 172 227 422 1149 1346 1376> 1397 41G<354 371 371 400 1276 1292 1292 1322>
VStem: 121 276 256 193 1177 194
AnchorPoint: "Anchor-1" 829 1434 basechar 0
AnchorPoint: "Anchor-0" 715 4 basechar 0
LayerCount: 2
Fore
SplineSet
1346 1149 m 1,0,-1
 1393 1149 l 2,1,2
 1428 1149 1428 1149 1427 1096 c 0,3,4
 1427 1004 1427 1004 1376 1004 c 2,5,-1
 1329 1004 l 1,6,-1
 1229 41 l 2,7,8
 1223 -4 1223 -4 1143 -4 c 2,9,-1
 1126 -4 l 2,10,11
 1048 -4 1048 -4 1049 41 c 1,12,-1
 1112 657 l 1,13,-1
 371 657 l 1,14,-1
 307 41 l 2,15,16
 301 -4 301 -4 221 -4 c 2,17,-1
 205 -4 l 2,18,19
 127 -4 127 -4 127 41 c 1,20,-1
 227 1004 l 1,21,-1
 156 1004 l 2,22,23
 121 1004 121 1004 121 1059 c 0,24,25
 121 1149 121 1149 172 1149 c 2,26,-1
 244 1149 l 1,27,-1
 268 1393 l 2,28,29
 272 1438 272 1438 354 1438 c 2,30,-1
 371 1438 l 2,31,32
 449 1438 449 1438 449 1393 c 1,33,-1
 422 1149 l 1,34,-1
 1163 1149 l 1,35,-1
 1190 1393 l 2,36,37
 1194 1438 1194 1438 1276 1438 c 2,38,-1
 1292 1438 l 2,39,40
 1370 1438 1370 1438 1370 1393 c 1,41,-1
 1346 1149 l 1,0,-1
1149 1004 m 1,42,-1
 408 1004 l 1,43,-1
 387 813 l 1,44,-1
 1128 813 l 1,45,-1
 1149 1004 l 1,42,-1
EndSplineSet
Position2: "'cpsp' Capital Spacing lookup 0 subtable" dx=10 dy=0 dh=20 dv=0
EndChar

StartChar: Hcircumflex
Encoding: 292 292 68
Width: 1501
GlyphClass: 2
Flags: MW
HStem: 657 156<387 1112 371 1128> 1397 41G<354 371 371 400 1276 1292 1292 1322>
VStem: 127 1243
AnchorPoint: "Anchor-1" 1208 1624 basechar 0
AnchorPoint: "Anchor-0" 715 4 basechar 0
LayerCount: 2
Fore
SplineSet
829 1833 m 2,0,-1
 881 1833 l 2,1,2
 947 1833 947 1833 971 1788 c 2,3,-1
 1067 1608 l 2,4,5
 1077 1592 1077 1592 1075 1567 c 0,6,7
 1073 1542 1073 1542 1024 1542 c 2,8,-1
 1020 1542 l 2,9,10
 981 1542 981 1542 954 1569 c 1,11,-1
 842 1720 l 1,12,-1
 700 1569 l 1,13,14
 667 1542 667 1542 629 1542 c 2,15,-1
 625 1542 l 2,16,17
 582 1542 582 1542 582 1567 c 0,18,19
 582 1585 582 1585 596 1608 c 2,20,-1
 731 1788 l 2,21,22
 763 1833 763 1833 829 1833 c 2,0,-1
1276 1438 m 2,23,-1
 1292 1438 l 2,24,25
 1370 1438 1370 1438 1370 1393 c 1,26,-1
 1229 41 l 2,27,28
 1223 -4 1223 -4 1143 -4 c 2,29,-1
 1126 -4 l 2,30,31
 1048 -4 1048 -4 1049 41 c 1,32,-1
 1112 657 l 1,33,-1
 371 657 l 1,34,-1
 307 41 l 2,35,36
 301 -4 301 -4 221 -4 c 2,37,-1
 205 -4 l 2,38,39
 127 -4 127 -4 127 41 c 1,40,-1
 268 1393 l 2,41,42
 272 1438 272 1438 354 1438 c 2,43,-1
 371 1438 l 2,44,45
 449 1438 449 1438 449 1393 c 1,46,-1
 387 813 l 1,47,-1
 1128 813 l 1,48,-1
 1190 1393 l 2,49,50
 1194 1438 1194 1438 1276 1438 c 2,23,-1
EndSplineSet
Position2: "'cpsp' Capital Spacing lookup 0 subtable" dx=10 dy=0 dh=20 dv=0
EndChar

StartChar: Hdotbelow
Encoding: 7716 7716 69
Width: 1501
GlyphClass: 2
Flags: MW
HStem: -354 195<666 702> 657 156<387 1112 371 1128> 1397 41G<354 371 371 400 1276 1292 1292 1322>
VStem: 594 182<-324 -190>
AnchorPoint: "Anchor-1" 702 -164 basechar 0
AnchorPoint: "Anchor-0" 672 -412 basechar 0
LayerCount: 2
Fore
SplineSet
1276 1438 m 2,0,-1
 1292 1438 l 2,1,2
 1370 1438 1370 1438 1370 1393 c 1,3,-1
 1229 41 l 2,4,5
 1223 -4 1223 -4 1143 -4 c 2,6,-1
 1126 -4 l 2,7,8
 1048 -4 1048 -4 1049 41 c 1,9,-1
 1112 657 l 1,10,-1
 371 657 l 1,11,-1
 307 41 l 2,12,13
 301 -4 301 -4 221 -4 c 2,14,-1
 205 -4 l 2,15,16
 127 -4 127 -4 127 41 c 1,17,-1
 268 1393 l 2,18,19
 272 1438 272 1438 354 1438 c 2,20,-1
 371 1438 l 2,21,22
 449 1438 449 1438 449 1393 c 1,23,-1
 387 813 l 1,24,-1
 1128 813 l 1,25,-1
 1190 1393 l 2,26,27
 1194 1438 1194 1438 1276 1438 c 2,0,-1
604 -205 m 2,28,29
 610 -160 610 -160 693 -160 c 128,-1,30
 776 -160 776 -160 776 -205 c 1,31,-1
 766 -309 l 2,32,33
 760 -354 760 -354 677 -354 c 128,-1,34
 594 -354 594 -354 594 -309 c 1,35,-1
 604 -205 l 2,28,29
EndSplineSet
Position2: "'cpsp' Capital Spacing lookup 0 subtable" dx=10 dy=0 dh=20 dv=0
EndChar

StartChar: I
Encoding: 73 73 70
Width: 577
GlyphClass: 2
Flags: MW
HStem: 1397 41G<354 371 371 400>
VStem: 127 322
AnchorPoint: "Anchor-1" 369 1434 basechar 0
AnchorPoint: "Anchor-0" 207 0 basechar 0
LayerCount: 2
Fore
SplineSet
354 1438 m 2,0,-1
 371 1438 l 2,1,2
 449 1438 449 1438 449 1393 c 1,3,-1
 307 41 l 2,4,5
 301 -4 301 -4 221 -4 c 2,6,-1
 205 -4 l 2,7,8
 127 -4 127 -4 127 41 c 1,9,-1
 268 1393 l 2,10,11
 272 1438 272 1438 354 1438 c 2,0,-1
EndSplineSet
Position2: "'cpsp' Capital Spacing lookup 0 subtable" dx=10 dy=0 dh=20 dv=0
EndChar

StartChar: IJ
Encoding: 306 306 71
Width: 1400
GlyphClass: 2
Flags: MW
HStem: -12 168<691 816 680 886> 1397 41G<354 371 371 400 1208 1225 1225 1254>
VStem: 127 1176
AnchorPoint: "Anchor-1" 1208 1438 basechar 0
AnchorPoint: "Anchor-0" 207 0 basechar 0
LayerCount: 2
Fore
SplineSet
354 1438 m 2,0,-1
 371 1438 l 2,1,2
 449 1438 449 1438 449 1393 c 1,3,-1
 307 41 l 2,4,5
 301 -4 301 -4 221 -4 c 2,6,-1
 205 -4 l 2,7,8
 127 -4 127 -4 127 41 c 1,9,-1
 268 1393 l 2,10,11
 272 1438 272 1438 354 1438 c 2,0,-1
1208 1438 m 2,12,-1
 1225 1438 l 2,13,14
 1303 1438 1303 1438 1303 1393 c 1,15,-1
 1200 420 l 2,16,17
 1155 -12 1155 -12 735 -12 c 0,18,19
 555 -12 555 -12 555 53 c 0,20,21
 555 174 555 174 586 174 c 0,22,23
 588 174 588 174 630 165 c 128,-1,24
 672 156 672 156 721 156 c 0,25,26
 862 156 862 156 933 217.5 c 128,-1,27
 1004 279 1004 279 1018 412 c 2,28,-1
 1122 1393 l 2,29,30
 1126 1438 1126 1438 1208 1438 c 2,12,-1
EndSplineSet
Position2: "'cpsp' Capital Spacing lookup 0 subtable" dx=10 dy=0 dh=20 dv=0
EndChar

StartChar: Iacute
Encoding: 205 205 72
Width: 577
GlyphClass: 2
Flags: MW
HStem: 1397 41G<354 371 371 400>
VStem: 127 535
AnchorPoint: "Anchor-1" 461 1796 basechar 0
AnchorPoint: "Anchor-0" 207 0 basechar 0
LayerCount: 2
Fore
SplineSet
565.5 1862 m 128,-1,1
 662 1862 662 1862 662 1837 c 0,2,3
 662 1814 662 1814 444 1597 c 0,4,5
 407 1560 407 1560 349 1560.5 c 128,-1,6
 291 1561 291 1561 291 1579 c 0,7,8
 291 1604 291 1604 432 1808 c 0,9,0
 469 1862 469 1862 565.5 1862 c 128,-1,1
354 1438 m 2,10,-1
 371 1438 l 2,11,12
 449 1438 449 1438 449 1393 c 1,13,-1
 307 41 l 2,14,15
 301 -4 301 -4 221 -4 c 2,16,-1
 205 -4 l 2,17,18
 127 -4 127 -4 127 41 c 1,19,-1
 268 1393 l 2,20,21
 272 1438 272 1438 354 1438 c 2,10,-1
EndSplineSet
Position2: "'cpsp' Capital Spacing lookup 0 subtable" dx=10 dy=0 dh=20 dv=0
EndChar

StartChar: Ibreve
Encoding: 300 300 73
Width: 577
GlyphClass: 2
Flags: MW
HStem: 1397 41G<354 371 371 400> 1561 135<343 442 343 447>
VStem: 104 594<1721 1789>
AnchorPoint: "Anchor-1" 408 1737 basechar 0
AnchorPoint: "Anchor-0" 207 0 basechar 0
LayerCount: 2
Fore
SplineSet
670 1827 m 0,0,1
 699 1827 699 1827 698 1802 c 0,2,3
 698 1689 698 1689 597 1625 c 128,-1,4
 496 1561 496 1561 381 1561 c 128,-1,5
 266 1561 266 1561 185 1616 c 128,-1,6
 104 1671 104 1671 104 1772 c 0,7,8
 104 1827 104 1827 139 1827 c 0,9,10
 162 1827 162 1827 166 1817.5 c 128,-1,11
 170 1808 170 1808 173 1796 c 0,12,13
 198 1696 198 1696 383.5 1696 c 128,-1,14
 569 1696 569 1696 621 1776 c 0,15,16
 627 1786 627 1786 633 1802.5 c 128,-1,17
 639 1819 639 1819 646.5 1823 c 128,-1,18
 654 1827 654 1827 670 1827 c 0,0,1
354 1438 m 2,19,-1
 371 1438 l 2,20,21
 449 1438 449 1438 449 1393 c 1,22,-1
 307 41 l 2,23,24
 301 -4 301 -4 221 -4 c 2,25,-1
 205 -4 l 2,26,27
 127 -4 127 -4 127 41 c 1,28,-1
 268 1393 l 2,29,30
 272 1438 272 1438 354 1438 c 2,19,-1
EndSplineSet
Position2: "'cpsp' Capital Spacing lookup 0 subtable" dx=10 dy=0 dh=20 dv=0
EndChar

StartChar: Icircumflex
Encoding: 206 206 74
Width: 577
GlyphClass: 2
Flags: MW
HStem: 1397 41G<354 371 371 400>
VStem: 121 496<1559 1578>
AnchorPoint: "Anchor-1" 748 1624 basechar 0
AnchorPoint: "Anchor-0" 207 0 basechar 0
LayerCount: 2
Fore
SplineSet
369 1833 m 2,0,-1
 420 1833 l 2,1,2
 486 1833 486 1833 510 1788 c 2,3,-1
 606 1608 l 2,4,5
 616 1592 616 1592 614 1567 c 0,6,7
 612 1542 612 1542 563 1542 c 2,8,-1
 559 1542 l 2,9,10
 520 1542 520 1542 494 1569 c 1,11,-1
 381 1720 l 1,12,-1
 240 1569 l 1,13,14
 207 1542 207 1542 168 1542 c 2,15,-1
 164 1542 l 2,16,17
 121 1542 121 1542 121 1567 c 0,18,19
 121 1585 121 1585 135 1608 c 2,20,-1
 270 1788 l 2,21,22
 303 1833 303 1833 369 1833 c 2,0,-1
354 1438 m 2,23,-1
 371 1438 l 2,24,25
 449 1438 449 1438 449 1393 c 1,26,-1
 307 41 l 2,27,28
 301 -4 301 -4 221 -4 c 2,29,-1
 205 -4 l 2,30,31
 127 -4 127 -4 127 41 c 1,32,-1
 268 1393 l 2,33,34
 272 1438 272 1438 354 1438 c 2,23,-1
EndSplineSet
Position2: "'cpsp' Capital Spacing lookup 0 subtable" dx=10 dy=0 dh=20 dv=0
EndChar

StartChar: Idieresis
Encoding: 207 207 75
Width: 577
GlyphClass: 2
Flags: MW
HStem: 1397 41G<354 371 371 400> 1606 195<223 260 518 555>
VStem: 152 182<1636 1769> 446 182<1636 1769>
AnchorPoint: "Anchor-1" 410 1796 basechar 0
AnchorPoint: "Anchor-0" 207 0 basechar 0
LayerCount: 2
Fore
SplineSet
162 1755 m 2,0,1
 168 1800 168 1800 251 1800 c 128,-1,2
 334 1800 334 1800 334 1755 c 1,3,-1
 324 1651 l 2,4,5
 318 1606 318 1606 235 1606 c 128,-1,6
 152 1606 152 1606 152 1651 c 1,7,-1
 162 1755 l 2,0,1
457 1755 m 2,8,9
 461 1800 461 1800 545 1800 c 128,-1,10
 629 1800 629 1800 629 1755 c 1,11,-1
 618 1651 l 2,12,13
 612 1606 612 1606 529 1606 c 128,-1,14
 446 1606 446 1606 446 1651 c 1,15,-1
 457 1755 l 2,8,9
354 1438 m 2,16,-1
 371 1438 l 2,17,18
 449 1438 449 1438 449 1393 c 1,19,-1
 307 41 l 2,20,21
 301 -4 301 -4 221 -4 c 2,22,-1
 205 -4 l 2,23,24
 127 -4 127 -4 127 41 c 1,25,-1
 268 1393 l 2,26,27
 272 1438 272 1438 354 1438 c 2,16,-1
EndSplineSet
Position2: "'cpsp' Capital Spacing lookup 0 subtable" dx=10 dy=0 dh=20 dv=0
EndChar

StartChar: Idotaccent
Encoding: 304 304 76
Width: 577
GlyphClass: 2
Flags: MW
HStem: 1397 41G<354 371 371 400> 1606 195<371 408>
VStem: 299 182<1636 1769>
AnchorPoint: "Anchor-1" 408 1796 basechar 0
AnchorPoint: "Anchor-0" 207 0 basechar 0
LayerCount: 2
Fore
SplineSet
309 1755 m 2,0,1
 315 1800 315 1800 398 1800 c 128,-1,2
 481 1800 481 1800 481 1755 c 1,3,-1
 471 1651 l 2,4,5
 465 1606 465 1606 382 1606 c 128,-1,6
 299 1606 299 1606 299 1651 c 1,7,-1
 309 1755 l 2,0,1
354 1438 m 2,8,-1
 371 1438 l 2,9,10
 449 1438 449 1438 449 1393 c 1,11,-1
 307 41 l 2,12,13
 301 -4 301 -4 221 -4 c 2,14,-1
 205 -4 l 2,15,16
 127 -4 127 -4 127 41 c 1,17,-1
 268 1393 l 2,18,19
 272 1438 272 1438 354 1438 c 2,8,-1
EndSplineSet
Position2: "'cpsp' Capital Spacing lookup 0 subtable" dx=10 dy=0 dh=20 dv=0
EndChar

StartChar: Idotbelow
Encoding: 7882 7882 77
Width: 577
GlyphClass: 2
Flags: MW
HStem: -358 195<158 195> 1397 41G<354 371 371 400>
VStem: 86 182<-328 -195>
AnchorPoint: "Anchor-1" 195 -168 basechar 0
AnchorPoint: "Anchor-0" 164 -416 basechar 0
LayerCount: 2
Fore
SplineSet
354 1438 m 2,0,-1
 371 1438 l 2,1,2
 449 1438 449 1438 449 1393 c 1,3,-1
 307 41 l 2,4,5
 301 -4 301 -4 221 -4 c 2,6,-1
 205 -4 l 2,7,8
 127 -4 127 -4 127 41 c 1,9,-1
 268 1393 l 2,10,11
 272 1438 272 1438 354 1438 c 2,0,-1
96 -209 m 2,12,13
 102 -164 102 -164 185 -164 c 128,-1,14
 268 -164 268 -164 268 -209 c 1,15,-1
 258 -313 l 2,16,17
 252 -358 252 -358 169 -358 c 128,-1,18
 86 -358 86 -358 86 -313 c 1,19,-1
 96 -209 l 2,12,13
EndSplineSet
Position2: "'cpsp' Capital Spacing lookup 0 subtable" dx=10 dy=0 dh=20 dv=0
EndChar

StartChar: Igrave
Encoding: 204 204 78
Width: 577
GlyphClass: 2
Flags: MW
HStem: 1397 41G<354 371 371 400>
VStem: 125 344<1573 1837>
AnchorPoint: "Anchor-1" 412 1796 basechar 0
AnchorPoint: "Anchor-0" 207 0 basechar 0
LayerCount: 2
Fore
SplineSet
223 1862 m 128,-1,1
 319 1862 319 1862 350 1808 c 0,2,3
 469 1605 469 1605 469 1579 c 0,4,5
 469 1561 469 1561 409 1561 c 0,6,7
 349 1561 349 1561 317 1597 c 0,8,9
 137 1802 137 1802 131 1816 c 0,10,11
 125 1829 125 1829 125 1837 c 0,12,0
 127 1862 127 1862 223 1862 c 128,-1,1
354 1438 m 2,13,-1
 371 1438 l 2,14,15
 449 1438 449 1438 449 1393 c 1,16,-1
 307 41 l 2,17,18
 301 -4 301 -4 221 -4 c 2,19,-1
 205 -4 l 2,20,21
 127 -4 127 -4 127 41 c 1,22,-1
 268 1393 l 2,23,24
 272 1438 272 1438 354 1438 c 2,13,-1
EndSplineSet
Position2: "'cpsp' Capital Spacing lookup 0 subtable" dx=10 dy=0 dh=20 dv=0
EndChar

StartChar: Ihookabove
Encoding: 7880 7880 79
Width: 577
GlyphClass: 2
Flags: MW
HStem: 1397 41G<354 371 371 400> 1794 104<380 410>
VStem: 459 135<1690 1759>
AnchorPoint: "Anchor-1" 408 1796 basechar 0
AnchorPoint: "Anchor-0" 207 0 basechar 0
LayerCount: 2
Fore
SplineSet
459 1743 m 0,0,1
 459 1794 459 1794 389 1794 c 0,2,3
 338 1794 338 1794 315.5 1780.5 c 128,-1,4
 293 1767 293 1767 291 1767 c 0,5,6
 279 1767 279 1767 264.5 1793 c 128,-1,7
 250 1819 250 1819 250 1837 c 128,-1,8
 250 1855 250 1855 306 1876.5 c 128,-1,9
 362 1898 362 1898 421.5 1898 c 128,-1,10
 481 1898 481 1898 537.5 1863.5 c 128,-1,11
 594 1829 594 1829 594 1767.5 c 128,-1,12
 594 1706 594 1706 565.5 1658 c 128,-1,13
 537 1610 537 1610 500 1581 c 0,14,15
 416 1515 416 1515 387 1515.5 c 128,-1,16
 358 1516 358 1516 334.5 1526 c 128,-1,17
 311 1536 311 1536 311 1554.5 c 128,-1,18
 311 1573 311 1573 348 1598 c 0,19,20
 459 1675 459 1675 459 1743 c 0,0,1
354 1438 m 2,21,-1
 371 1438 l 2,22,23
 449 1438 449 1438 449 1393 c 1,24,-1
 307 41 l 2,25,26
 301 -4 301 -4 221 -4 c 2,27,-1
 205 -4 l 2,28,29
 127 -4 127 -4 127 41 c 1,30,-1
 268 1393 l 2,31,32
 272 1438 272 1438 354 1438 c 2,21,-1
EndSplineSet
Position2: "'cpsp' Capital Spacing lookup 0 subtable" dx=10 dy=0 dh=20 dv=0
EndChar

StartChar: Imacron
Encoding: 298 298 80
Width: 577
GlyphClass: 2
Flags: MW
HStem: 1397 41G<354 371 371 400> 1616 145<115 608 145 592>
VStem: 94 549<1655 1724>
AnchorPoint: "Anchor-1" 399 1796 basechar 0
AnchorPoint: "Anchor-0" 207 0 basechar 0
LayerCount: 2
Fore
SplineSet
145 1761 m 2,0,-1
 608 1761 l 2,1,2
 643 1761 643 1761 643 1708 c 0,3,4
 643 1616 643 1616 592 1616 c 2,5,-1
 129 1616 l 2,6,7
 94 1616 94 1616 94 1671 c 0,8,9
 94 1761 94 1761 145 1761 c 2,0,-1
354 1438 m 2,10,-1
 371 1438 l 2,11,12
 449 1438 449 1438 449 1393 c 1,13,-1
 307 41 l 2,14,15
 301 -4 301 -4 221 -4 c 2,16,-1
 205 -4 l 2,17,18
 127 -4 127 -4 127 41 c 1,19,-1
 268 1393 l 2,20,21
 272 1438 272 1438 354 1438 c 2,10,-1
EndSplineSet
Position2: "'cpsp' Capital Spacing lookup 0 subtable" dx=10 dy=0 dh=20 dv=0
EndChar

StartChar: Iogonek
Encoding: 302 302 81
Width: 577
GlyphClass: 2
Flags: MW
HStem: -375 143<319 347> 1397 41G<354 371 371 400>
VStem: 82 141<-184 -174>
AnchorPoint: "Anchor-1" 369 1434 basechar 0
AnchorPoint: "Anchor-0" 190 -416 basechar 0
LayerCount: 2
Fore
SplineSet
473 -195 m 0,0,1
 485 -195 485 -195 485 -221 c 0,2,3
 485 -375 485 -375 303 -375 c 0,4,5
 176 -375 176 -375 129 -319.5 c 128,-1,6
 82 -264 82 -264 82 -208 c 0,7,8
 82 -152 82 -152 100.5 -91.5 c 128,-1,9
 119 -31 119 -31 158 2 c 1,10,11
 127 10 127 10 127 41 c 1,12,-1
 268 1393 l 2,13,14
 272 1438 272 1438 354 1438 c 2,15,-1
 371 1438 l 2,16,17
 449 1438 449 1438 449 1393 c 1,18,-1
 307 41 l 2,19,20
 303 10 303 10 262 0 c 1,21,22
 262 -12 262 -12 242.5 -62.5 c 128,-1,23
 223 -113 223 -113 223 -143 c 0,24,25
 223 -231 223 -231 342 -231 c 0,26,27
 379 -231 379 -231 424 -213 c 128,-1,28
 469 -195 469 -195 473 -195 c 0,0,1
EndSplineSet
Position2: "'cpsp' Capital Spacing lookup 0 subtable" dx=10 dy=0 dh=20 dv=0
EndChar

StartChar: Itilde
Encoding: 296 296 82
Width: 577
GlyphClass: 2
Flags: MW
HStem: 1397 41G<354 371 371 400> 1561 131<512 539> 1624 131<265 293>
VStem: 90 626
AnchorPoint: "Anchor-1" 432 1796 basechar 0
AnchorPoint: "Anchor-0" 207 0 basechar 0
LayerCount: 2
Fore
SplineSet
629 1737 m 0,0,1
 668 1766 668 1766 701 1727 c 0,2,3
 735 1689 735 1689 696 1651 c 0,4,5
 598 1561 598 1561 511 1561 c 0,6,7
 424 1561 424 1561 362 1592 c 0,8,9
 301 1624 301 1624 275 1624 c 0,10,11
 249 1624 249 1624 191 1590 c 0,12,13
 133 1556 133 1556 102 1601 c 0,14,15
 71 1645 71 1645 106 1671 c 0,16,17
 210 1755 210 1755 303 1755 c 0,18,19
 362 1755 362 1755 431 1723 c 0,20,21
 500 1691 500 1691 535 1692 c 0,22,23
 570 1692 570 1692 629 1737 c 0,0,1
354 1438 m 2,24,-1
 371 1438 l 2,25,26
 449 1438 449 1438 449 1393 c 1,27,-1
 307 41 l 2,28,29
 301 -4 301 -4 221 -4 c 2,30,-1
 205 -4 l 2,31,32
 127 -4 127 -4 127 41 c 1,33,-1
 268 1393 l 2,34,35
 272 1438 272 1438 354 1438 c 2,24,-1
EndSplineSet
Position2: "'cpsp' Capital Spacing lookup 0 subtable" dx=10 dy=0 dh=20 dv=0
EndChar

StartChar: J
Encoding: 74 74 83
Width: 823
GlyphClass: 2
Flags: MW
HStem: -12 168<114 239 102 308> 1397 41G<631 647 647 677>
VStem: -23 748
AnchorPoint: "Anchor-1" 631 1438 basechar 0
AnchorPoint: "Anchor-0" 0 0 basechar 0
LayerCount: 2
Fore
SplineSet
631 1438 m 2,0,-1
 647 1438 l 2,1,2
 725 1438 725 1438 725 1393 c 1,3,-1
 623 420 l 2,4,5
 578 -12 578 -12 158 -12 c 0,6,7
 -22 -12 -22 -12 -23 53 c 0,8,9
 -23 174 -23 174 8 174 c 0,10,11
 10 174 10 174 52 165 c 128,-1,12
 94 156 94 156 143 156 c 0,13,14
 284 156 284 156 355 217.5 c 128,-1,15
 426 279 426 279 440 412 c 2,16,-1
 545 1393 l 2,17,18
 549 1438 549 1438 631 1438 c 2,0,-1
EndSplineSet
Position2: "'cpsp' Capital Spacing lookup 0 subtable" dx=10 dy=0 dh=20 dv=0
EndChar

StartChar: Jcircumflex
Encoding: 308 308 84
Width: 823
GlyphClass: 2
Flags: MW
HStem: -12 168<114 239 102 308> 1397 41G<631 647 647 677>
VStem: -23 901
AnchorPoint: "Anchor-1" 1010 1628 basechar 0
AnchorPoint: "Anchor-0" 0 0 basechar 0
LayerCount: 2
Fore
SplineSet
631 1837 m 2,0,-1
 682 1837 l 2,1,2
 748 1837 748 1837 772 1792 c 2,3,-1
 868 1612 l 1,4,5
 878 1598 878 1598 877 1572 c 0,6,7
 875 1546 875 1546 825 1546 c 2,8,-1
 821 1546 l 2,9,10
 782 1546 782 1546 756 1573 c 1,11,-1
 643 1724 l 1,12,-1
 502 1573 l 1,13,14
 469 1546 469 1546 430 1546 c 2,15,-1
 426 1546 l 2,16,17
 383 1546 383 1546 383 1571 c 0,18,19
 383 1589 383 1589 397 1612 c 2,20,-1
 532 1792 l 2,21,22
 565 1837 565 1837 631 1837 c 2,0,-1
631 1438 m 2,23,-1
 647 1438 l 2,24,25
 725 1438 725 1438 725 1393 c 1,26,-1
 623 420 l 2,27,28
 578 -12 578 -12 158 -12 c 0,29,30
 -22 -12 -22 -12 -23 53 c 0,31,32
 -23 174 -23 174 8 174 c 0,33,34
 10 174 10 174 52 165 c 128,-1,35
 94 156 94 156 143 156 c 0,36,37
 284 156 284 156 355 217.5 c 128,-1,38
 426 279 426 279 440 412 c 2,39,-1
 545 1393 l 2,40,41
 549 1438 549 1438 631 1438 c 2,23,-1
EndSplineSet
Position2: "'cpsp' Capital Spacing lookup 0 subtable" dx=10 dy=0 dh=20 dv=0
EndChar

StartChar: K
Encoding: 75 75 85
Width: 1179
GlyphClass: 2
Flags: MW
HStem: 1397 41G<317 334 334 364 1034 1055 1055 1078>
VStem: 90 1034
AnchorPoint: "Anchor-1" 645 1434 basechar 0
AnchorPoint: "Anchor-0" 532 0 basechar 0
LayerCount: 2
Fore
SplineSet
1034 1438 m 2,0,-1
 1055 1438 l 2,1,2
 1125 1438 1125 1438 1124 1413 c 0,3,4
 1124 1395 1124 1395 1100 1370 c 2,5,-1
 530 737 l 1,6,-1
 1065 57 l 2,7,8
 1079 39 1079 39 1079 25 c 0,9,10
 1077 -4 1077 -4 987 -4 c 2,11,-1
 973 -4 l 2,12,13
 885 -4 885 -4 862 23 c 2,14,-1
 346 682 l 1,15,-1
 338 682 l 1,16,-1
 270 41 l 2,17,18
 264 -4 264 -4 184 -4 c 2,19,-1
 168 -4 l 2,20,21
 90 -4 90 -4 90 41 c 1,22,-1
 231 1393 l 2,23,24
 235 1438 235 1438 317 1438 c 2,25,-1
 334 1438 l 2,26,27
 412 1438 412 1438 412 1393 c 1,28,-1
 346 766 l 1,29,-1
 354 766 l 1,30,-1
 922 1409 l 2,31,32
 948 1438 948 1438 1034 1438 c 2,0,-1
EndSplineSet
Position2: "'cpsp' Capital Spacing lookup 0 subtable" dx=10 dy=0 dh=20 dv=0
EndChar

StartChar: Kcommaaccent
Encoding: 310 310 86
Width: 1179
GlyphClass: 2
Flags: MW
HStem: 1397 41G<317 334 334 364 1034 1055 1055 1078>
VStem: 430 184<-221 -151>
AnchorPoint: "Anchor-1" 645 1434 basechar 0
AnchorPoint: "Anchor-0" 487 -416 basechar 0
LayerCount: 2
Fore
SplineSet
1034 1438 m 2,0,-1
 1055 1438 l 2,1,2
 1125 1438 1125 1438 1124 1413 c 0,3,4
 1124 1395 1124 1395 1100 1370 c 2,5,-1
 530 737 l 1,6,-1
 1065 57 l 2,7,8
 1079 39 1079 39 1079 25 c 0,9,10
 1077 -4 1077 -4 987 -4 c 2,11,-1
 973 -4 l 2,12,13
 885 -4 885 -4 862 23 c 2,14,-1
 346 682 l 1,15,-1
 338 682 l 1,16,-1
 270 41 l 2,17,18
 264 -4 264 -4 184 -4 c 2,19,-1
 168 -4 l 2,20,21
 90 -4 90 -4 90 41 c 1,22,-1
 231 1393 l 2,23,24
 235 1438 235 1438 317 1438 c 2,25,-1
 334 1438 l 2,26,27
 412 1438 412 1438 412 1393 c 1,28,-1
 346 766 l 1,29,-1
 354 766 l 1,30,-1
 922 1409 l 2,31,32
 948 1438 948 1438 1034 1438 c 2,0,-1
520 -104 m 2,33,-1
 539 -104 l 2,34,35
 615 -104 615 -104 614 -162 c 0,36,37
 614 -246 614 -246 519 -363.5 c 128,-1,38
 424 -481 424 -481 368.5 -481 c 128,-1,39
 313 -481 313 -481 313 -451 c 0,40,41
 313 -428 313 -428 371.5 -336 c 128,-1,42
 430 -244 430 -244 430 -170 c 0,43,44
 430 -141 430 -141 454.5 -122.5 c 128,-1,45
 479 -104 479 -104 520 -104 c 2,33,-1
EndSplineSet
Position2: "'cpsp' Capital Spacing lookup 0 subtable" dx=10 dy=0 dh=20 dv=0
EndChar

StartChar: L
Encoding: 76 76 87
Width: 991
GlyphClass: 2
Flags: MW
HStem: 0 156<135 889 293 872> 1397 41G<328 344 344 374>
VStem: 102 821<40 126>
AnchorPoint: "Anchor-1" 344 1438 basechar 0
AnchorPoint: "Anchor-0" 496 0 basechar 0
LayerCount: 2
Fore
SplineSet
328 1438 m 2,0,-1
 344 1438 l 2,1,2
 422 1438 422 1438 422 1393 c 1,3,-1
 293 156 l 1,4,-1
 889 156 l 2,5,6
 924 156 924 156 924 111 c 0,7,8
 924 0 924 0 872 0 c 2,9,-1
 158 0 l 2,10,11
 125 0 125 0 113.5 14.5 c 128,-1,12
 102 29 102 29 102 61 c 1,13,-1
 242 1393 l 2,14,15
 246 1438 246 1438 328 1438 c 2,0,-1
EndSplineSet
Position2: "'cpsp' Capital Spacing lookup 0 subtable" dx=10 dy=0 dh=20 dv=0
EndChar

StartChar: LJ
Encoding: 455 455 88
Width: 1470
GlyphClass: 2
Flags: MW
HStem: -326 168<701 826 690 896> 0 156<135 717 293 700> 1397 41G<328 344 344 374 1251 1268 1268 1297>
VStem: 102 1243
LayerCount: 2
Fore
SplineSet
328 1438 m 2,0,-1
 344 1438 l 2,1,2
 422 1438 422 1438 422 1393 c 1,3,-1
 293 156 l 1,4,-1
 717 156 l 2,5,6
 752 156 752 156 752 111 c 0,7,8
 752 0 752 0 700 0 c 2,9,-1
 158 0 l 2,10,11
 125 0 125 0 113.5 14.5 c 128,-1,12
 102 29 102 29 102 61 c 1,13,-1
 242 1393 l 2,14,15
 246 1438 246 1438 328 1438 c 2,0,-1
1251 1438 m 2,16,-1
 1268 1438 l 2,17,18
 1346 1438 1346 1438 1346 1393 c 1,19,-1
 1210 106 l 2,20,21
 1165 -326 1165 -326 745 -326 c 0,22,23
 565 -326 565 -326 565 -260 c 0,24,25
 565 -139 565 -139 596 -139 c 0,26,27
 598 -139 598 -139 640 -148.5 c 128,-1,28
 682 -158 682 -158 731 -158 c 0,29,30
 872 -158 872 -158 943 -96.5 c 128,-1,31
 1014 -35 1014 -35 1028 98 c 2,32,-1
 1165 1393 l 2,33,34
 1169 1438 1169 1438 1251 1438 c 2,16,-1
EndSplineSet
Position2: "'cpsp' Capital Spacing lookup 0 subtable" dx=10 dy=0 dh=20 dv=0
EndChar

StartChar: Lacute
Encoding: 313 313 89
Width: 991
GlyphClass: 2
Flags: MW
HStem: 0 156<135 889 293 872> 1397 41G<328 344 344 374>
VStem: 102 821<40 126>
AnchorPoint: "Anchor-1" 436 1800 basechar 0
AnchorPoint: "Anchor-0" 496 0 basechar 0
LayerCount: 2
Fore
SplineSet
540.5 1866 m 128,-1,1
 637 1866 637 1866 637 1841 c 0,2,3
 637 1818 637 1818 420 1602 c 0,4,5
 383 1565 383 1565 324.5 1565 c 128,-1,6
 266 1565 266 1565 266 1583 c 0,7,8
 266 1608 266 1608 408 1812 c 0,9,0
 444 1866 444 1866 540.5 1866 c 128,-1,1
328 1438 m 2,10,-1
 344 1438 l 2,11,12
 422 1438 422 1438 422 1393 c 1,13,-1
 293 156 l 1,14,-1
 889 156 l 2,15,16
 924 156 924 156 924 111 c 0,17,18
 924 0 924 0 872 0 c 2,19,-1
 158 0 l 2,20,21
 125 0 125 0 113.5 14.5 c 128,-1,22
 102 29 102 29 102 61 c 1,23,-1
 242 1393 l 2,24,25
 246 1438 246 1438 328 1438 c 2,10,-1
EndSplineSet
Position2: "'cpsp' Capital Spacing lookup 0 subtable" dx=10 dy=0 dh=20 dv=0
EndChar

StartChar: Lcaron
Encoding: 317 317 90
Width: 991
GlyphClass: 2
Flags: MW
HStem: 0 156<135 889 293 872> 1393 41G 1397 41G<328 344 344 374>
VStem: 721 184<1325 1388>
AnchorPoint: "Anchor-1" 344 1438 basechar 0
AnchorPoint: "Anchor-0" 496 0 basechar 0
LayerCount: 2
Fore
SplineSet
328 1438 m 2,0,-1
 344 1438 l 2,1,2
 422 1438 422 1438 422 1393 c 1,3,-1
 293 156 l 1,4,-1
 889 156 l 2,5,6
 924 156 924 156 924 111 c 0,7,8
 924 0 924 0 872 0 c 2,9,-1
 158 0 l 2,10,11
 125 0 125 0 113.5 14.5 c 128,-1,12
 102 29 102 29 102 61 c 1,13,-1
 242 1393 l 2,14,15
 246 1438 246 1438 328 1438 c 2,0,-1
811 1434 m 2,16,-1
 829 1434 l 2,17,18
 905 1434 905 1434 905 1376 c 0,19,20
 905 1302 905 1302 832.5 1200 c 128,-1,21
 760 1098 760 1098 721 1098 c 0,22,23
 666 1098 666 1098 666 1128 c 0,24,25
 666 1148 666 1148 693.5 1227.5 c 128,-1,26
 721 1307 721 1307 721 1352 c 0,27,28
 721 1434 721 1434 811 1434 c 2,16,-1
EndSplineSet
Position2: "'cpsp' Capital Spacing lookup 0 subtable" dx=10 dy=0 dh=20 dv=0
EndChar

StartChar: Lcommaaccent
Encoding: 315 315 91
Width: 991
GlyphClass: 2
Flags: MW
HStem: 0 156<135 889 293 872> 1397 41G<328 344 344 374>
VStem: 393 184<-221 -151>
AnchorPoint: "Anchor-1" 344 1438 basechar 0
AnchorPoint: "Anchor-0" 451 -416 basechar 0
LayerCount: 2
Fore
SplineSet
328 1438 m 2,0,-1
 344 1438 l 2,1,2
 422 1438 422 1438 422 1393 c 1,3,-1
 293 156 l 1,4,-1
 889 156 l 2,5,6
 924 156 924 156 924 111 c 0,7,8
 924 0 924 0 872 0 c 2,9,-1
 158 0 l 2,10,11
 125 0 125 0 113.5 14.5 c 128,-1,12
 102 29 102 29 102 61 c 1,13,-1
 242 1393 l 2,14,15
 246 1438 246 1438 328 1438 c 2,0,-1
483 -104 m 2,16,-1
 502 -104 l 2,17,18
 578 -104 578 -104 578 -162 c 0,19,20
 578 -246 578 -246 482.5 -363.5 c 128,-1,21
 387 -481 387 -481 331.5 -481 c 128,-1,22
 276 -481 276 -481 276 -451 c 0,23,24
 276 -428 276 -428 334.5 -336 c 128,-1,25
 393 -244 393 -244 393 -170 c 0,26,27
 393 -141 393 -141 417.5 -122.5 c 128,-1,28
 442 -104 442 -104 483 -104 c 2,16,-1
EndSplineSet
Position2: "'cpsp' Capital Spacing lookup 0 subtable" dx=10 dy=0 dh=20 dv=0
EndChar

StartChar: Ldot
Encoding: 319 319 92
Width: 991
GlyphClass: 2
Flags: MW
HStem: 0 156<135 889 293 872> 633 211<593 636> 1397 41G<328 344 344 374>
VStem: 510 211<714 759>
AnchorPoint: "Anchor-1" 344 1438 basechar 0
AnchorPoint: "Anchor-0" 496 0 basechar 0
LayerCount: 2
Fore
SplineSet
328 1438 m 2,0,-1
 344 1438 l 2,1,2
 422 1438 422 1438 422 1393 c 1,3,-1
 293 156 l 1,4,-1
 889 156 l 2,5,6
 924 156 924 156 924 111 c 0,7,8
 924 0 924 0 872 0 c 2,9,-1
 158 0 l 2,10,11
 125 0 125 0 113.5 14.5 c 128,-1,12
 102 29 102 29 102 61 c 1,13,-1
 242 1393 l 2,14,15
 246 1438 246 1438 328 1438 c 2,0,-1
542.5 810 m 128,-1,17
 575 844 575 844 621.5 844 c 128,-1,18
 668 844 668 844 694.5 817.5 c 128,-1,19
 721 791 721 791 721 743.5 c 128,-1,20
 721 696 721 696 687 664.5 c 128,-1,21
 653 633 653 633 608 633 c 128,-1,22
 563 633 563 633 536.5 658.5 c 128,-1,23
 510 684 510 684 510 730 c 128,-1,16
 510 776 510 776 542.5 810 c 128,-1,17
EndSplineSet
Ligature2: "Ligature Substitution lookup 19 subtable" L periodcentered
Position2: "'cpsp' Capital Spacing lookup 0 subtable" dx=10 dy=0 dh=20 dv=0
EndChar

StartChar: Lj
Encoding: 456 456 93
Width: 1556
GlyphClass: 2
Flags: MW
HStem: -434 147<967 1023 955 1066> 0 156<135 889 293 872> 1034 41G<1323 1331 1331 1360> 1329 211<1325 1389 1364 1376> 1397 41G<328 344 344 374>
VStem: 1266 201<1356 1511>
AnchorPoint: "Anchor-1" 344 1438 basechar 0
AnchorPoint: "Anchor-0" 496 0 basechar 0
LayerCount: 2
Fore
SplineSet
1364 1540 m 2,0,-1
 1389 1540 l 2,1,2
 1467 1540 1467 1540 1466 1495 c 1,3,-1
 1454 1374 l 1,4,5
 1454 1329 1454 1329 1376 1329 c 2,6,-1
 1352 1329 l 2,7,8
 1266 1329 1266 1329 1266 1374 c 1,9,-1
 1278 1495 l 2,10,11
 1284 1540 1284 1540 1364 1540 c 2,0,-1
328 1438 m 2,12,-1
 344 1438 l 2,13,14
 422 1438 422 1438 422 1393 c 1,15,-1
 293 156 l 1,16,-1
 889 156 l 2,17,18
 924 156 924 156 924 111 c 0,19,20
 924 0 924 0 872 0 c 2,21,-1
 158 0 l 2,22,23
 125 0 125 0 113.5 14.5 c 128,-1,24
 102 29 102 29 102 61 c 1,25,-1
 242 1393 l 2,26,27
 246 1438 246 1438 328 1438 c 2,12,-1
1323 1075 m 2,28,-1
 1331 1075 l 2,29,30
 1409 1075 1409 1075 1409 1030 c 1,31,-1
 1284 -152 l 2,32,33
 1268 -312 1268 -312 1191 -373 c 128,-1,34
 1114 -434 1114 -434 1029 -434 c 0,35,36
 944 -434 944 -434 899 -410.5 c 128,-1,37
 854 -387 854 -387 854 -350 c 0,38,39
 854 -252 854 -252 877 -252 c 0,40,41
 879 -252 879 -252 913.5 -269.5 c 128,-1,42
 948 -287 948 -287 996 -287 c 0,43,44
 1044 -287 1044 -287 1075 -254 c 128,-1,45
 1106 -221 1106 -221 1114 -135 c 2,46,-1
 1237 1030 l 2,47,48
 1243 1075 1243 1075 1323 1075 c 2,28,-1
EndSplineSet
Position2: "'cpsp' Capital Spacing lookup 0 subtable" dx=10 dy=0 dh=20 dv=0
EndChar

StartChar: Lslash
Encoding: 321 321 94
Width: 995
GlyphClass: 2
Flags: MW
HStem: 0 156<137 891 295 874> 1397 41G<330 346 346 376>
VStem: -10 936<87 672>
LayerCount: 2
Fore
SplineSet
330 1438 m 2,0,-1
 346 1438 l 2,1,2
 424 1438 424 1438 424 1393 c 1,3,-1
 375 915 l 1,4,-1
 608 1047 l 2,5,6
 624 1055 624 1055 631 1055 c 0,7,8
 645 1055 645 1055 645 1016 c 0,9,10
 645 977 645 977 598 952 c 2,11,-1
 365 821 l 1,12,-1
 295 156 l 1,13,-1
 891 156 l 2,14,15
 926 156 926 156 926 111 c 0,16,17
 926 0 926 0 874 0 c 2,18,-1
 160 0 l 2,19,20
 127 0 127 0 115.5 14.5 c 128,-1,21
 104 29 104 29 104 61 c 1,22,-1
 172 713 l 1,23,-1
 25 631 l 2,24,25
 9 623 9 623 4 623 c 0,26,27
 -10 623 -10 623 -10 660 c 0,28,29
 -10 698 -10 698 35 725 c 2,30,-1
 182 807 l 1,31,-1
 244 1393 l 2,32,33
 248 1438 248 1438 330 1438 c 2,0,-1
EndSplineSet
Position2: "'cpsp' Capital Spacing lookup 0 subtable" dx=10 dy=0 dh=20 dv=0
EndChar

StartChar: M
Encoding: 77 77 95
Width: 1726
GlyphClass: 2
Flags: MW
HStem: 1397 41G<338 412 412 436 1464 1532 1532 1562>
VStem: 111 1499<27 1407>
LayerCount: 2
Fore
SplineSet
1464 1438 m 2,0,-1
 1532 1438 l 2,1,2
 1610 1438 1610 1438 1610 1393 c 1,3,-1
 1468 41 l 2,4,5
 1462 -4 1462 -4 1382 -4 c 2,6,-1
 1368 -4 l 2,7,8
 1290 -4 1290 -4 1290 41 c 1,9,-1
 1405 1143 l 1,10,-1
 920 426 l 2,11,12
 902 399 902 399 870 399 c 2,13,-1
 788 399 l 2,14,15
 759 399 759 399 748 426 c 2,16,-1
 412 1143 l 1,17,-1
 406 1155 l 1,18,-1
 289 41 l 2,19,20
 283 -4 283 -4 203 -4 c 2,21,-1
 188 -4 l 2,22,23
 110 -4 110 -4 111 41 c 1,24,-1
 252 1393 l 2,25,26
 256 1438 256 1438 338 1438 c 2,27,-1
 412 1438 l 2,28,29
 480 1438 480 1438 496 1401 c 2,30,-1
 811 729 l 1,31,-1
 852 600 l 1,32,-1
 918 717 l 1,33,-1
 1376 1401 l 2,34,35
 1398 1438 1398 1438 1464 1438 c 2,0,-1
EndSplineSet
Position2: "'cpsp' Capital Spacing lookup 0 subtable" dx=10 dy=0 dh=20 dv=0
EndChar

StartChar: N
Encoding: 78 78 96
Width: 1472
GlyphClass: 2
Flags: MW
HStem: 1397 41G<334 377 377 399 1272 1286 1286 1316>
VStem: 106 1257
AnchorPoint: "Anchor-1" 801 1434 basechar 0
AnchorPoint: "Anchor-0" 688 0 basechar 0
LayerCount: 2
Fore
SplineSet
1272 1438 m 2,0,-1
 1286 1438 l 2,1,2
 1364 1438 1364 1438 1364 1393 c 1,3,-1
 1223 41 l 2,4,5
 1217 -4 1217 -4 1137 -4 c 2,6,-1
 1096 -4 l 2,7,8
 1043 -4 1043 -4 1026 25 c 2,9,-1
 444 1044 l 1,10,-1
 401 1149 l 1,11,-1
 285 41 l 2,12,13
 279 -4 279 -4 199 -4 c 2,14,-1
 184 -4 l 2,15,16
 106 -4 106 -4 106 41 c 1,17,-1
 248 1393 l 2,18,19
 252 1438 252 1438 334 1438 c 2,20,-1
 377 1438 l 2,21,22
 436 1438 436 1438 459 1399 c 2,23,-1
 1022 412 l 1,24,-1
 1071 297 l 1,25,-1
 1186 1393 l 2,26,27
 1190 1438 1190 1438 1272 1438 c 2,0,-1
EndSplineSet
Position2: "'cpsp' Capital Spacing lookup 0 subtable" dx=10 dy=0 dh=20 dv=0
EndChar

StartChar: NJ
Encoding: 458 458 97
Width: 2295
GlyphClass: 2
Flags: MW
HStem: -12 168<1586 1711 1575 1781> 1397 41G<334 377 377 399 1272 1286 1286 1316 2103 2120 2120 2149>
VStem: 106 2091<27 1407>
AnchorPoint: "Anchor-1" 2103 1438 basechar 0
AnchorPoint: "Anchor-0" 688 0 basechar 0
LayerCount: 2
Fore
SplineSet
1272 1438 m 2,0,-1
 1286 1438 l 2,1,2
 1364 1438 1364 1438 1364 1393 c 1,3,-1
 1223 41 l 2,4,5
 1217 -4 1217 -4 1137 -4 c 2,6,-1
 1096 -4 l 2,7,8
 1043 -4 1043 -4 1026 25 c 2,9,-1
 444 1044 l 1,10,-1
 401 1149 l 1,11,-1
 285 41 l 2,12,13
 279 -4 279 -4 199 -4 c 2,14,-1
 184 -4 l 2,15,16
 106 -4 106 -4 106 41 c 1,17,-1
 248 1393 l 2,18,19
 252 1438 252 1438 334 1438 c 2,20,-1
 377 1438 l 2,21,22
 436 1438 436 1438 459 1399 c 2,23,-1
 1022 412 l 1,24,-1
 1071 297 l 1,25,-1
 1186 1393 l 2,26,27
 1190 1438 1190 1438 1272 1438 c 2,0,-1
2103 1438 m 2,28,-1
 2120 1438 l 2,29,30
 2198 1438 2198 1438 2198 1393 c 1,31,-1
 2095 420 l 2,32,33
 2050 -12 2050 -12 1630 -12 c 0,34,35
 1450 -12 1450 -12 1450 53 c 0,36,37
 1450 174 1450 174 1481 174 c 0,38,39
 1483 174 1483 174 1525 165 c 128,-1,40
 1567 156 1567 156 1616 156 c 0,41,42
 1757 156 1757 156 1827.5 217.5 c 128,-1,43
 1898 279 1898 279 1913 412 c 2,44,-1
 2017 1393 l 2,45,46
 2021 1438 2021 1438 2103 1438 c 2,28,-1
EndSplineSet
Position2: "'cpsp' Capital Spacing lookup 0 subtable" dx=10 dy=0 dh=20 dv=0
EndChar

StartChar: Nacute
Encoding: 323 323 98
Width: 1472
GlyphClass: 2
Flags: MW
HStem: 1397 41G<334 377 377 399 1272 1286 1286 1316>
VStem: 106 1257
AnchorPoint: "Anchor-1" 893 1796 basechar 0
AnchorPoint: "Anchor-0" 688 0 basechar 0
LayerCount: 2
Fore
SplineSet
997.5 1862 m 128,-1,1
 1094 1862 1094 1862 1094 1837 c 0,2,3
 1094 1814 1094 1814 877 1597 c 0,4,5
 840 1560 840 1560 781.5 1560.5 c 128,-1,6
 723 1561 723 1561 723 1579 c 0,7,8
 723 1604 723 1604 864 1808 c 0,9,0
 901 1862 901 1862 997.5 1862 c 128,-1,1
1272 1438 m 2,10,-1
 1286 1438 l 2,11,12
 1364 1438 1364 1438 1364 1393 c 1,13,-1
 1223 41 l 2,14,15
 1217 -4 1217 -4 1137 -4 c 2,16,-1
 1096 -4 l 2,17,18
 1043 -4 1043 -4 1026 25 c 2,19,-1
 444 1044 l 1,20,-1
 401 1149 l 1,21,-1
 285 41 l 2,22,23
 279 -4 279 -4 199 -4 c 2,24,-1
 184 -4 l 2,25,26
 106 -4 106 -4 106 41 c 1,27,-1
 248 1393 l 2,28,29
 252 1438 252 1438 334 1438 c 2,30,-1
 377 1438 l 2,31,32
 436 1438 436 1438 459 1399 c 2,33,-1
 1022 412 l 1,34,-1
 1071 297 l 1,35,-1
 1186 1393 l 2,36,37
 1190 1438 1190 1438 1272 1438 c 2,10,-1
EndSplineSet
Substitution2: "'locl' Localized Forms in Latin lookup 11 subtable" Nacute.loclPLK
Substitution2: "'aalt' Access All Alternates lookup 0 subtable" Nacute.loclPLK
Position2: "'cpsp' Capital Spacing lookup 0 subtable" dx=10 dy=0 dh=20 dv=0
EndChar

StartChar: Ncaron
Encoding: 327 327 99
Width: 1472
GlyphClass: 2
Flags: MW
HStem: 1397 41G<334 377 377 399 1272 1286 1286 1316>
VStem: 106 1257
AnchorPoint: "Anchor-1" 838 1796 basechar 0
AnchorPoint: "Anchor-0" 688 0 basechar 0
LayerCount: 2
Fore
SplineSet
1038 1845 m 2,0,-1
 1042 1845 l 2,1,2
 1087 1845 1087 1845 1087 1817 c 0,3,4
 1087 1801 1087 1801 1073 1780 c 2,5,-1
 936 1599 l 2,6,7
 903 1554 903 1554 838 1554 c 2,8,-1
 786 1554 l 2,9,10
 720 1554 720 1554 696 1599 c 2,11,-1
 602 1780 l 2,12,13
 592 1798 592 1798 594 1822 c 0,14,15
 596 1846 596 1846 643 1845 c 2,16,-1
 647 1845 l 2,17,18
 688 1845 688 1845 715 1819 c 1,19,-1
 823 1667 l 1,20,-1
 969 1819 l 1,21,22
 1001 1845 1001 1845 1038 1845 c 2,0,-1
1272 1438 m 2,23,-1
 1286 1438 l 2,24,25
 1364 1438 1364 1438 1364 1393 c 1,26,-1
 1223 41 l 2,27,28
 1217 -4 1217 -4 1137 -4 c 2,29,-1
 1096 -4 l 2,30,31
 1043 -4 1043 -4 1026 25 c 2,32,-1
 444 1044 l 1,33,-1
 401 1149 l 1,34,-1
 285 41 l 2,35,36
 279 -4 279 -4 199 -4 c 2,37,-1
 184 -4 l 2,38,39
 106 -4 106 -4 106 41 c 1,40,-1
 248 1393 l 2,41,42
 252 1438 252 1438 334 1438 c 2,43,-1
 377 1438 l 2,44,45
 436 1438 436 1438 459 1399 c 2,46,-1
 1022 412 l 1,47,-1
 1071 297 l 1,48,-1
 1186 1393 l 2,49,50
 1190 1438 1190 1438 1272 1438 c 2,23,-1
EndSplineSet
Position2: "'cpsp' Capital Spacing lookup 0 subtable" dx=10 dy=0 dh=20 dv=0
EndChar

StartChar: Ncommaaccent
Encoding: 325 325 100
Width: 1472
GlyphClass: 2
Flags: MW
HStem: 1397 41G<334 377 377 399 1272 1286 1286 1316>
VStem: 586 184<-221 -151>
AnchorPoint: "Anchor-1" 801 1434 basechar 0
AnchorPoint: "Anchor-0" 643 -416 basechar 0
LayerCount: 2
Fore
SplineSet
1272 1438 m 2,0,-1
 1286 1438 l 2,1,2
 1364 1438 1364 1438 1364 1393 c 1,3,-1
 1223 41 l 2,4,5
 1217 -4 1217 -4 1137 -4 c 2,6,-1
 1096 -4 l 2,7,8
 1043 -4 1043 -4 1026 25 c 2,9,-1
 444 1044 l 1,10,-1
 401 1149 l 1,11,-1
 285 41 l 2,12,13
 279 -4 279 -4 199 -4 c 2,14,-1
 184 -4 l 2,15,16
 106 -4 106 -4 106 41 c 1,17,-1
 248 1393 l 2,18,19
 252 1438 252 1438 334 1438 c 2,20,-1
 377 1438 l 2,21,22
 436 1438 436 1438 459 1399 c 2,23,-1
 1022 412 l 1,24,-1
 1071 297 l 1,25,-1
 1186 1393 l 2,26,27
 1190 1438 1190 1438 1272 1438 c 2,0,-1
676 -104 m 2,28,-1
 694 -104 l 2,29,30
 770 -104 770 -104 770 -162 c 0,31,32
 770 -246 770 -246 675 -363.5 c 128,-1,33
 580 -481 580 -481 524.5 -481 c 128,-1,34
 469 -481 469 -481 469 -451 c 0,35,36
 469 -428 469 -428 527.5 -336 c 128,-1,37
 586 -244 586 -244 586 -170 c 0,38,39
 586 -141 586 -141 610.5 -122.5 c 128,-1,40
 635 -104 635 -104 676 -104 c 2,28,-1
EndSplineSet
Position2: "'cpsp' Capital Spacing lookup 0 subtable" dx=10 dy=0 dh=20 dv=0
EndChar

StartChar: Ndotaccent
Encoding: 7748 7748 101
Width: 1472
GlyphClass: 2
Flags: MW
HStem: 1397 41G<334 377 377 399 1272 1286 1286 1316> 1606 195<803 840>
VStem: 731 182<1636 1769>
AnchorPoint: "Anchor-1" 840 1796 basechar 0
AnchorPoint: "Anchor-0" 688 0 basechar 0
LayerCount: 2
Fore
SplineSet
741 1755 m 2,0,1
 747 1800 747 1800 830 1800 c 128,-1,2
 913 1800 913 1800 913 1755 c 1,3,-1
 903 1651 l 2,4,5
 897 1606 897 1606 814 1606 c 128,-1,6
 731 1606 731 1606 731 1651 c 1,7,-1
 741 1755 l 2,0,1
1272 1438 m 2,8,-1
 1286 1438 l 2,9,10
 1364 1438 1364 1438 1364 1393 c 1,11,-1
 1223 41 l 2,12,13
 1217 -4 1217 -4 1137 -4 c 2,14,-1
 1096 -4 l 2,15,16
 1043 -4 1043 -4 1026 25 c 2,17,-1
 444 1044 l 1,18,-1
 401 1149 l 1,19,-1
 285 41 l 2,20,21
 279 -4 279 -4 199 -4 c 2,22,-1
 184 -4 l 2,23,24
 106 -4 106 -4 106 41 c 1,25,-1
 248 1393 l 2,26,27
 252 1438 252 1438 334 1438 c 2,28,-1
 377 1438 l 2,29,30
 436 1438 436 1438 459 1399 c 2,31,-1
 1022 412 l 1,32,-1
 1071 297 l 1,33,-1
 1186 1393 l 2,34,35
 1190 1438 1190 1438 1272 1438 c 2,8,-1
EndSplineSet
Position2: "'cpsp' Capital Spacing lookup 0 subtable" dx=10 dy=0 dh=20 dv=0
EndChar

StartChar: Eng
Encoding: 330 330 102
Width: 1472
GlyphClass: 2
Flags: MW
HStem: -434 147<885 941 873 984> 1397 41G<334 377 377 399 1272 1286 1286 1316>
VStem: 1039 173
AnchorPoint: "Anchor-1" 1247 1071 basechar 0
AnchorPoint: "Anchor-0" 0 0 basechar 0
LayerCount: 2
Fore
SplineSet
1327 1036 m 1,0,-1
 1327 1030 l 1,1,-1
 1235 150 l 1,2,-1
 1202 -152 l 2,3,4
 1186 -312 1186 -312 1109 -373 c 128,-1,5
 1032 -434 1032 -434 947 -434 c 128,-1,6
 862 -434 862 -434 817 -410.5 c 128,-1,7
 772 -387 772 -387 772 -350 c 0,8,9
 772 -252 772 -252 795 -252 c 0,10,11
 797 -252 797 -252 831.5 -269.5 c 128,-1,12
 866 -287 866 -287 914.5 -287 c 128,-1,13
 963 -287 963 -287 993.5 -254 c 128,-1,14
 1024 -221 1024 -221 1032 -135 c 2,15,-1
 1047 -8 l 1,16,-1
 444 1044 l 1,17,-1
 401 1149 l 1,18,-1
 285 41 l 2,19,20
 279 -4 279 -4 199 -4 c 2,21,-1
 184 -4 l 2,22,23
 106 -4 106 -4 106 41 c 1,24,-1
 248 1393 l 2,25,26
 252 1438 252 1438 334 1438 c 2,27,-1
 377 1438 l 2,28,29
 436 1438 436 1438 459 1399 c 2,30,-1
 1022 412 l 1,31,-1
 1071 297 l 1,32,-1
 1186 1393 l 2,33,34
 1190 1438 1190 1438 1272 1438 c 2,35,-1
 1286 1438 l 2,36,37
 1364 1438 1364 1438 1364 1393 c 1,38,-1
 1327 1036 l 1,0,-1
EndSplineSet
Position2: "'cpsp' Capital Spacing lookup 0 subtable" dx=10 dy=0 dh=20 dv=0
EndChar

StartChar: Nj
Encoding: 459 459 103
Width: 2037
GlyphClass: 2
Flags: MW
HStem: -434 147<1448 1504 1437 1547> 1034 41G<1804 1812 1812 1841> 1329 211<1806 1870 1845 1858> 1397 41G<334 377 377 399 1272 1286 1286 1316>
VStem: 1747 201<1356 1511>
AnchorPoint: "Anchor-1" 801 1434 basechar 0
AnchorPoint: "Anchor-0" 688 0 basechar 0
LayerCount: 2
Fore
SplineSet
1845 1540 m 2,0,-1
 1870 1540 l 2,1,2
 1948 1540 1948 1540 1948 1495 c 1,3,-1
 1935 1374 l 1,4,5
 1935 1329 1935 1329 1858 1329 c 2,6,-1
 1833 1329 l 2,7,8
 1747 1329 1747 1329 1747 1374 c 1,9,-1
 1759 1495 l 2,10,11
 1765 1540 1765 1540 1845 1540 c 2,0,-1
1272 1438 m 2,12,-1
 1286 1438 l 2,13,14
 1364 1438 1364 1438 1364 1393 c 1,15,-1
 1223 41 l 2,16,17
 1217 -4 1217 -4 1137 -4 c 2,18,-1
 1096 -4 l 2,19,20
 1043 -4 1043 -4 1026 25 c 2,21,-1
 444 1044 l 1,22,-1
 401 1149 l 1,23,-1
 285 41 l 2,24,25
 279 -4 279 -4 199 -4 c 2,26,-1
 184 -4 l 2,27,28
 106 -4 106 -4 106 41 c 1,29,-1
 248 1393 l 2,30,31
 252 1438 252 1438 334 1438 c 2,32,-1
 377 1438 l 2,33,34
 436 1438 436 1438 459 1399 c 2,35,-1
 1022 412 l 1,36,-1
 1071 297 l 1,37,-1
 1186 1393 l 2,38,39
 1190 1438 1190 1438 1272 1438 c 2,12,-1
1804 1075 m 2,40,-1
 1812 1075 l 2,41,42
 1890 1075 1890 1075 1890 1030 c 1,43,-1
 1765 -152 l 2,44,45
 1749 -312 1749 -312 1672 -373 c 128,-1,46
 1595 -434 1595 -434 1510 -434 c 0,47,48
 1425 -434 1425 -434 1380 -410.5 c 128,-1,49
 1335 -387 1335 -387 1335 -350 c 0,50,51
 1335 -252 1335 -252 1358 -252 c 0,52,53
 1360 -252 1360 -252 1395 -269.5 c 128,-1,54
 1430 -287 1430 -287 1478 -287 c 0,55,56
 1526 -287 1526 -287 1556.5 -254 c 128,-1,57
 1587 -221 1587 -221 1595 -135 c 2,58,-1
 1718 1030 l 2,59,60
 1724 1075 1724 1075 1804 1075 c 2,40,-1
EndSplineSet
Position2: "'cpsp' Capital Spacing lookup 0 subtable" dx=10 dy=0 dh=20 dv=0
EndChar

StartChar: Ntilde
Encoding: 209 209 104
Width: 1472
GlyphClass: 2
Flags: MW
HStem: 1397 41G<334 377 377 399 1272 1286 1286 1316> 1561 131<961 990> 1624 131<687 718>
VStem: 106 1257
AnchorPoint: "Anchor-1" 872 1796 basechar 0
AnchorPoint: "Anchor-0" 688 0 basechar 0
LayerCount: 2
Fore
SplineSet
1092 1737 m 0,0,1
 1135 1766 1135 1766 1171 1729 c 0,2,3
 1208 1692 1208 1692 1165 1651 c 0,4,5
 1056 1561 1056 1561 961 1561 c 0,6,7
 865 1561 865 1561 795 1592 c 0,8,9
 725 1624 725 1624 696 1624 c 0,10,11
 667 1624 667 1624 603 1590 c 0,12,13
 538 1556 538 1556 506 1601 c 0,14,15
 473 1645 473 1645 510 1671 c 0,16,17
 627 1755 627 1755 729 1755 c 0,18,19
 792 1755 792 1755 869 1723 c 0,20,21
 946 1691 946 1691 985 1692 c 0,22,23
 1024 1692 1024 1692 1092 1737 c 0,0,1
1272 1438 m 2,24,-1
 1286 1438 l 2,25,26
 1364 1438 1364 1438 1364 1393 c 1,27,-1
 1223 41 l 2,28,29
 1217 -4 1217 -4 1137 -4 c 2,30,-1
 1096 -4 l 2,31,32
 1043 -4 1043 -4 1026 25 c 2,33,-1
 444 1044 l 1,34,-1
 401 1149 l 1,35,-1
 285 41 l 2,36,37
 279 -4 279 -4 199 -4 c 2,38,-1
 184 -4 l 2,39,40
 106 -4 106 -4 106 41 c 1,41,-1
 248 1393 l 2,42,43
 252 1438 252 1438 334 1438 c 2,44,-1
 377 1438 l 2,45,46
 436 1438 436 1438 459 1399 c 2,47,-1
 1022 412 l 1,48,-1
 1071 297 l 1,49,-1
 1186 1393 l 2,50,51
 1190 1438 1190 1438 1272 1438 c 2,24,-1
EndSplineSet
Position2: "'cpsp' Capital Spacing lookup 0 subtable" dx=10 dy=0 dh=20 dv=0
EndChar

StartChar: O
Encoding: 79 79 105
Width: 1497
GlyphClass: 2
Flags: MW
HStem: -12 156<558 840 558 889> 1290 156<651 935>
VStem: 109 186<447 793> 1200 188<613 989>
AnchorPoint: "Anchor-1" 823 1434 basechar 0
AnchorPoint: "Anchor-0" 670 0 basechar 0
LayerCount: 2
Fore
SplineSet
823 1446 m 0,0,1
 1099 1446 1099 1446 1244 1297.5 c 128,-1,2
 1389 1149 1389 1149 1389 860 c 0,3,4
 1389 440 1389 440 1196.5 214 c 128,-1,5
 1004 -12 1004 -12 670 -12 c 0,6,7
 396 -12 396 -12 252.5 137.5 c 128,-1,8
 109 287 109 287 109 578 c 0,9,10
 109 857 109 857 206 1068 c 0,11,12
 258 1182 258 1182 338 1265 c 128,-1,13
 418 1348 418 1348 542.5 1397 c 128,-1,14
 667 1446 667 1446 823 1446 c 0,0,1
807 1290 m 0,15,16
 569 1290 569 1290 432 1112 c 128,-1,17
 295 934 295 934 295 596 c 0,18,19
 295 373 295 373 394.5 258 c 128,-1,20
 494 143 494 143 686 143 c 0,21,22
 922 143 922 143 1061 324.5 c 128,-1,23
 1200 506 1200 506 1200 840 c 0,24,25
 1200 1063 1200 1063 1100 1176.5 c 128,-1,26
 1000 1290 1000 1290 807 1290 c 0,15,16
EndSplineSet
Substitution2: "Single Substitution lookup 20 subtable" ordmasculine
Substitution2: "'aalt' Access All Alternates lookup 0 subtable" ordmasculine
Position2: "'cpsp' Capital Spacing lookup 0 subtable" dx=10 dy=0 dh=20 dv=0
EndChar

StartChar: Oacute
Encoding: 211 211 106
Width: 1497
GlyphClass: 2
Flags: MW
HStem: -12 156<558 840 558 889> 1290 156<651 935>
VStem: 109 186<447 793> 1200 188<613 989>
AnchorPoint: "Anchor-1" 915 1796 basechar 0
AnchorPoint: "Anchor-0" 670 0 basechar 0
LayerCount: 2
Fore
SplineSet
1020 1862 m 128,-1,1
 1116 1862 1116 1862 1116 1837 c 0,2,3
 1116 1814 1116 1814 899 1597 c 0,4,5
 862 1560 862 1560 803.5 1560.5 c 128,-1,6
 745 1561 745 1561 745 1579 c 0,7,8
 745 1604 745 1604 887 1808 c 0,9,0
 924 1862 924 1862 1020 1862 c 128,-1,1
823 1446 m 0,10,11
 1099 1446 1099 1446 1244 1297.5 c 128,-1,12
 1389 1149 1389 1149 1389 860 c 0,13,14
 1389 440 1389 440 1196.5 214 c 128,-1,15
 1004 -12 1004 -12 670 -12 c 0,16,17
 396 -12 396 -12 252.5 137.5 c 128,-1,18
 109 287 109 287 109 578 c 0,19,20
 109 857 109 857 206 1068 c 0,21,22
 258 1182 258 1182 338 1265 c 128,-1,23
 418 1348 418 1348 542.5 1397 c 128,-1,24
 667 1446 667 1446 823 1446 c 0,10,11
807 1290 m 0,25,26
 569 1290 569 1290 432 1112 c 128,-1,27
 295 934 295 934 295 596 c 0,28,29
 295 373 295 373 394.5 258 c 128,-1,30
 494 143 494 143 686 143 c 0,31,32
 922 143 922 143 1061 324.5 c 128,-1,33
 1200 506 1200 506 1200 840 c 0,34,35
 1200 1063 1200 1063 1100 1176.5 c 128,-1,36
 1000 1290 1000 1290 807 1290 c 0,25,26
EndSplineSet
Substitution2: "'locl' Localized Forms in Latin lookup 11 subtable" Oacute.loclPLK
Substitution2: "'aalt' Access All Alternates lookup 0 subtable" Oacute.loclPLK
Position2: "'cpsp' Capital Spacing lookup 0 subtable" dx=10 dy=0 dh=20 dv=0
EndChar

StartChar: Obreve
Encoding: 334 334 107
Width: 1497
GlyphClass: 2
Flags: MW
HStem: -12 156<558 840 558 889> 1290 156<651 935> 1561 135<798 897 798 902>
VStem: 109 186<447 793> 1200 188<613 989>
AnchorPoint: "Anchor-1" 862 1737 basechar 0
AnchorPoint: "Anchor-0" 670 0 basechar 0
LayerCount: 2
Fore
SplineSet
1124 1827 m 0,0,1
 1153 1827 1153 1827 1153 1802 c 0,2,3
 1153 1689 1153 1689 1051.5 1625 c 128,-1,4
 950 1561 950 1561 835.5 1561 c 128,-1,5
 721 1561 721 1561 640 1616 c 128,-1,6
 559 1671 559 1671 559 1772 c 0,7,8
 559 1827 559 1827 594 1827 c 0,9,10
 617 1827 617 1827 621 1817.5 c 128,-1,11
 625 1808 625 1808 628 1796 c 0,12,13
 653 1696 653 1696 838.5 1696 c 128,-1,14
 1024 1696 1024 1696 1075 1776 c 0,15,16
 1081 1786 1081 1786 1087.5 1802.5 c 128,-1,17
 1094 1819 1094 1819 1101 1823 c 128,-1,18
 1108 1827 1108 1827 1124 1827 c 0,0,1
823 1446 m 0,19,20
 1099 1446 1099 1446 1244 1297.5 c 128,-1,21
 1389 1149 1389 1149 1389 860 c 0,22,23
 1389 440 1389 440 1196.5 214 c 128,-1,24
 1004 -12 1004 -12 670 -12 c 0,25,26
 396 -12 396 -12 252.5 137.5 c 128,-1,27
 109 287 109 287 109 578 c 0,28,29
 109 857 109 857 206 1068 c 0,30,31
 258 1182 258 1182 338 1265 c 128,-1,32
 418 1348 418 1348 542.5 1397 c 128,-1,33
 667 1446 667 1446 823 1446 c 0,19,20
807 1290 m 0,34,35
 569 1290 569 1290 432 1112 c 128,-1,36
 295 934 295 934 295 596 c 0,37,38
 295 373 295 373 394.5 258 c 128,-1,39
 494 143 494 143 686 143 c 0,40,41
 922 143 922 143 1061 324.5 c 128,-1,42
 1200 506 1200 506 1200 840 c 0,43,44
 1200 1063 1200 1063 1100 1176.5 c 128,-1,45
 1000 1290 1000 1290 807 1290 c 0,34,35
EndSplineSet
Position2: "'cpsp' Capital Spacing lookup 0 subtable" dx=10 dy=0 dh=20 dv=0
EndChar

StartChar: Ocircumflex
Encoding: 212 212 108
Width: 1497
GlyphClass: 2
Flags: MW
HStem: -12 156<558 840 558 889> 1290 156<651 935>
VStem: 109 186<447 793> 1200 188<613 989>
AnchorPoint: "Anchor-1" 1202 1624 basechar 0
AnchorPoint: "Anchor-0" 670 0 basechar 0
LayerCount: 2
Fore
SplineSet
823 1833 m 2,0,-1
 874 1833 l 2,1,2
 940 1833 940 1833 965 1788 c 2,3,-1
 1061 1608 l 2,4,5
 1071 1592 1071 1592 1069 1567 c 128,-1,6
 1067 1542 1067 1542 1018 1542 c 2,7,-1
 1014 1542 l 2,8,9
 975 1542 975 1542 948 1569 c 1,10,-1
 836 1720 l 1,11,-1
 694 1569 l 1,12,13
 661 1542 661 1542 623 1542 c 2,14,-1
 618 1542 l 2,15,16
 575 1542 575 1542 575 1567 c 0,17,18
 575 1585 575 1585 590 1608 c 2,19,-1
 725 1788 l 2,20,21
 757 1833 757 1833 823 1833 c 2,0,-1
823 1446 m 0,22,23
 1099 1446 1099 1446 1244 1297.5 c 128,-1,24
 1389 1149 1389 1149 1389 860 c 0,25,26
 1389 440 1389 440 1196.5 214 c 128,-1,27
 1004 -12 1004 -12 670 -12 c 0,28,29
 396 -12 396 -12 252.5 137.5 c 128,-1,30
 109 287 109 287 109 578 c 0,31,32
 109 857 109 857 206 1068 c 0,33,34
 258 1182 258 1182 338 1265 c 128,-1,35
 418 1348 418 1348 542.5 1397 c 128,-1,36
 667 1446 667 1446 823 1446 c 0,22,23
807 1290 m 0,37,38
 569 1290 569 1290 432 1112 c 128,-1,39
 295 934 295 934 295 596 c 0,40,41
 295 373 295 373 394.5 258 c 128,-1,42
 494 143 494 143 686 143 c 0,43,44
 922 143 922 143 1061 324.5 c 128,-1,45
 1200 506 1200 506 1200 840 c 0,46,47
 1200 1063 1200 1063 1100 1176.5 c 128,-1,48
 1000 1290 1000 1290 807 1290 c 0,37,38
EndSplineSet
Position2: "'cpsp' Capital Spacing lookup 0 subtable" dx=10 dy=0 dh=20 dv=0
EndChar

StartChar: Ocircumflexacute
Encoding: 7888 7888 109
Width: 1497
GlyphClass: 2
Flags: MW
HStem: -12 156<558 840 558 889> 1290 156<651 935> 1542 291<621 891 635 891 840 999 840 1004>
VStem: 109 186<447 793> 1200 188<613 989>
AnchorPoint: "Anchor-1" 1124 1698 basechar 0
AnchorPoint: "Anchor-0" 670 0 basechar 0
LayerCount: 2
Fore
SplineSet
1163 1915 m 0,0,1
 1196 1968 1196 1968 1279 1968 c 128,-1,2
 1362 1968 1362 1968 1362 1944 c 0,3,4
 1362 1932 1362 1932 1174 1724 c 0,5,6
 1143 1687 1143 1687 1097 1687.5 c 128,-1,7
 1051 1688 1051 1688 1051 1706 c 0,8,9
 1050 1735 1050 1735 1163 1915 c 0,0,1
840 1833 m 2,10,-1
 891 1833 l 2,11,12
 940 1833 940 1833 961 1788 c 2,13,-1
 1047 1608 l 1,14,15
 1057 1592 1057 1592 1055 1567 c 128,-1,16
 1053 1542 1053 1542 1004 1542 c 2,17,-1
 999 1542 l 2,18,19
 948 1542 948 1542 934 1569 c 2,20,-1
 852 1720 l 1,21,-1
 711 1569 l 1,22,23
 678 1542 678 1542 639 1542 c 2,24,-1
 635 1542 l 2,25,26
 592 1542 592 1542 592 1567 c 0,27,28
 592 1585 592 1585 606 1608 c 2,29,-1
 741 1788 l 2,30,31
 774 1833 774 1833 840 1833 c 2,10,-1
823 1446 m 0,32,33
 1099 1446 1099 1446 1244 1297.5 c 128,-1,34
 1389 1149 1389 1149 1389 860 c 0,35,36
 1389 440 1389 440 1196.5 214 c 128,-1,37
 1004 -12 1004 -12 670 -12 c 0,38,39
 396 -12 396 -12 252.5 137.5 c 128,-1,40
 109 287 109 287 109 578 c 0,41,42
 109 857 109 857 206 1068 c 0,43,44
 258 1182 258 1182 338 1265 c 128,-1,45
 418 1348 418 1348 542.5 1397 c 128,-1,46
 667 1446 667 1446 823 1446 c 0,32,33
807 1290 m 0,47,48
 569 1290 569 1290 432 1112 c 128,-1,49
 295 934 295 934 295 596 c 0,50,51
 295 373 295 373 394.5 258 c 128,-1,52
 494 143 494 143 686 143 c 0,53,54
 922 143 922 143 1061 324.5 c 128,-1,55
 1200 506 1200 506 1200 840 c 0,56,57
 1200 1063 1200 1063 1100 1176.5 c 128,-1,58
 1000 1290 1000 1290 807 1290 c 0,47,48
EndSplineSet
Position2: "'cpsp' Capital Spacing lookup 0 subtable" dx=10 dy=0 dh=20 dv=0
EndChar

StartChar: Ocircumflexdotbelow
Encoding: 7896 7896 110
Width: 1497
GlyphClass: 2
Flags: MW
HStem: -358 195<621 657> -12 156<558 840 558 889> 1290 156<651 935>
VStem: 109 186<447 793> 549 182<-328 -195> 1200 188<613 989>
AnchorPoint: "Anchor-1" 657 -168 basechar 0
AnchorPoint: "Anchor-0" 627 -416 basechar 0
LayerCount: 2
Fore
SplineSet
823 1833 m 2,0,-1
 874 1833 l 2,1,2
 940 1833 940 1833 965 1788 c 2,3,-1
 1061 1608 l 2,4,5
 1071 1592 1071 1592 1069 1567 c 128,-1,6
 1067 1542 1067 1542 1018 1542 c 2,7,-1
 1014 1542 l 2,8,9
 975 1542 975 1542 948 1569 c 1,10,-1
 836 1720 l 1,11,-1
 694 1569 l 1,12,13
 661 1542 661 1542 623 1542 c 2,14,-1
 618 1542 l 2,15,16
 575 1542 575 1542 575 1567 c 0,17,18
 575 1585 575 1585 590 1608 c 2,19,-1
 725 1788 l 2,20,21
 757 1833 757 1833 823 1833 c 2,0,-1
823 1446 m 0,22,23
 1099 1446 1099 1446 1244 1297.5 c 128,-1,24
 1389 1149 1389 1149 1389 860 c 0,25,26
 1389 440 1389 440 1196.5 214 c 128,-1,27
 1004 -12 1004 -12 670 -12 c 0,28,29
 396 -12 396 -12 252.5 137.5 c 128,-1,30
 109 287 109 287 109 578 c 0,31,32
 109 857 109 857 206 1068 c 0,33,34
 258 1182 258 1182 338 1265 c 128,-1,35
 418 1348 418 1348 542.5 1397 c 128,-1,36
 667 1446 667 1446 823 1446 c 0,22,23
807 1290 m 0,37,38
 569 1290 569 1290 432 1112 c 128,-1,39
 295 934 295 934 295 596 c 0,40,41
 295 373 295 373 394.5 258 c 128,-1,42
 494 143 494 143 686 143 c 0,43,44
 922 143 922 143 1061 324.5 c 128,-1,45
 1200 506 1200 506 1200 840 c 0,46,47
 1200 1063 1200 1063 1100 1176.5 c 128,-1,48
 1000 1290 1000 1290 807 1290 c 0,37,38
559 -209 m 2,49,50
 565 -164 565 -164 648 -164 c 128,-1,51
 731 -164 731 -164 731 -209 c 1,52,-1
 721 -313 l 2,53,54
 715 -358 715 -358 632 -358 c 128,-1,55
 549 -358 549 -358 549 -313 c 1,56,-1
 559 -209 l 2,49,50
EndSplineSet
Position2: "'cpsp' Capital Spacing lookup 0 subtable" dx=10 dy=0 dh=20 dv=0
EndChar

StartChar: Ocircumflexgrave
Encoding: 7890 7890 111
Width: 1497
GlyphClass: 2
Flags: MW
HStem: -12 156<558 840 558 889> 1290 156<651 935> 1542 291<621 891 635 891 840 999 840 1004>
VStem: 109 186<447 793> 1200 188<613 989>
AnchorPoint: "Anchor-1" 1124 1698 basechar 0
AnchorPoint: "Anchor-0" 670 0 basechar 0
LayerCount: 2
Fore
SplineSet
963 1950 m 0,0,1
 963 1975 963 1975 1039.5 1974.5 c 128,-1,2
 1116 1974 1116 1974 1137 1921 c 0,3,4
 1213 1737 1213 1737 1212 1706 c 0,5,6
 1212 1688 1212 1688 1163 1688 c 128,-1,7
 1114 1688 1114 1688 1092 1724 c 0,8,9
 965 1921 965 1921 963 1950 c 0,0,1
840 1833 m 2,10,-1
 891 1833 l 2,11,12
 940 1833 940 1833 961 1788 c 2,13,-1
 1047 1608 l 1,14,15
 1057 1592 1057 1592 1055 1567 c 128,-1,16
 1053 1542 1053 1542 1004 1542 c 2,17,-1
 999 1542 l 2,18,19
 948 1542 948 1542 934 1569 c 2,20,-1
 852 1720 l 1,21,-1
 711 1569 l 1,22,23
 678 1542 678 1542 639 1542 c 2,24,-1
 635 1542 l 2,25,26
 592 1542 592 1542 592 1567 c 0,27,28
 592 1585 592 1585 606 1608 c 2,29,-1
 741 1788 l 2,30,31
 774 1833 774 1833 840 1833 c 2,10,-1
823 1446 m 0,32,33
 1099 1446 1099 1446 1244 1297.5 c 128,-1,34
 1389 1149 1389 1149 1389 860 c 0,35,36
 1389 440 1389 440 1196.5 214 c 128,-1,37
 1004 -12 1004 -12 670 -12 c 0,38,39
 396 -12 396 -12 252.5 137.5 c 128,-1,40
 109 287 109 287 109 578 c 0,41,42
 109 857 109 857 206 1068 c 0,43,44
 258 1182 258 1182 338 1265 c 128,-1,45
 418 1348 418 1348 542.5 1397 c 128,-1,46
 667 1446 667 1446 823 1446 c 0,32,33
807 1290 m 0,47,48
 569 1290 569 1290 432 1112 c 128,-1,49
 295 934 295 934 295 596 c 0,50,51
 295 373 295 373 394.5 258 c 128,-1,52
 494 143 494 143 686 143 c 0,53,54
 922 143 922 143 1061 324.5 c 128,-1,55
 1200 506 1200 506 1200 840 c 0,56,57
 1200 1063 1200 1063 1100 1176.5 c 128,-1,58
 1000 1290 1000 1290 807 1290 c 0,47,48
EndSplineSet
Position2: "'cpsp' Capital Spacing lookup 0 subtable" dx=10 dy=0 dh=20 dv=0
EndChar

StartChar: Ocircumflexhookabove
Encoding: 7892 7892 112
Width: 1497
GlyphClass: 2
Flags: MW
HStem: -12 156<558 840 558 889> 1290 156<651 935> 1542 291<621 891 635 891 840 999 840 1004> 1907 98<1101 1130>
VStem: 109 186<447 793> 1180 119<1837 1870> 1200 188<613 989>
AnchorPoint: "Anchor-1" 1124 1698 basechar 0
AnchorPoint: "Anchor-0" 670 0 basechar 0
LayerCount: 2
Fore
SplineSet
1180 1851 m 0,0,1
 1180 1906 1180 1906 1110 1907 c 0,2,3
 1067 1907 1067 1907 1040.5 1893.5 c 128,-1,4
 1014 1880 1014 1880 1012 1880 c 0,5,6
 1000 1880 1000 1880 985.5 1905.5 c 128,-1,7
 971 1931 971 1931 971 1949.5 c 128,-1,8
 971 1968 971 1968 1026 1986.5 c 128,-1,9
 1081 2005 1081 2005 1140.5 2005 c 128,-1,10
 1200 2005 1200 2005 1249 1971 c 128,-1,11
 1298 1937 1298 1937 1298 1869.5 c 128,-1,12
 1298 1802 1298 1802 1212 1735 c 0,13,14
 1155 1690 1155 1690 1123.5 1690 c 128,-1,15
 1092 1690 1092 1690 1072.5 1703 c 128,-1,16
 1053 1716 1053 1716 1053 1731.5 c 128,-1,17
 1053 1747 1053 1747 1116.5 1779.5 c 128,-1,18
 1180 1812 1180 1812 1180 1851 c 0,0,1
840 1833 m 2,19,-1
 891 1833 l 2,20,21
 940 1833 940 1833 961 1788 c 2,22,-1
 1047 1608 l 1,23,24
 1057 1592 1057 1592 1055 1567 c 128,-1,25
 1053 1542 1053 1542 1004 1542 c 2,26,-1
 999 1542 l 2,27,28
 948 1542 948 1542 934 1569 c 2,29,-1
 852 1720 l 1,30,-1
 711 1569 l 1,31,32
 678 1542 678 1542 639 1542 c 2,33,-1
 635 1542 l 2,34,35
 592 1542 592 1542 592 1567 c 0,36,37
 592 1585 592 1585 606 1608 c 2,38,-1
 741 1788 l 2,39,40
 774 1833 774 1833 840 1833 c 2,19,-1
823 1446 m 0,41,42
 1099 1446 1099 1446 1244 1297.5 c 128,-1,43
 1389 1149 1389 1149 1389 860 c 0,44,45
 1389 440 1389 440 1196.5 214 c 128,-1,46
 1004 -12 1004 -12 670 -12 c 0,47,48
 396 -12 396 -12 252.5 137.5 c 128,-1,49
 109 287 109 287 109 578 c 0,50,51
 109 857 109 857 206 1068 c 0,52,53
 258 1182 258 1182 338 1265 c 128,-1,54
 418 1348 418 1348 542.5 1397 c 128,-1,55
 667 1446 667 1446 823 1446 c 0,41,42
807 1290 m 0,56,57
 569 1290 569 1290 432 1112 c 128,-1,58
 295 934 295 934 295 596 c 0,59,60
 295 373 295 373 394.5 258 c 128,-1,61
 494 143 494 143 686 143 c 0,62,63
 922 143 922 143 1061 324.5 c 128,-1,64
 1200 506 1200 506 1200 840 c 0,65,66
 1200 1063 1200 1063 1100 1176.5 c 128,-1,67
 1000 1290 1000 1290 807 1290 c 0,56,57
EndSplineSet
Position2: "'cpsp' Capital Spacing lookup 0 subtable" dx=10 dy=0 dh=20 dv=0
EndChar

StartChar: Ocircumflextilde
Encoding: 7894 7894 113
Width: 1497
GlyphClass: 2
Flags: MW
HStem: -12 156<558 840 558 889> 1290 156<651 935> 1544 240<608 881 623 881 829 1018 829 1022> 1849 131<985 1013> 1913 131<736 764>
VStem: 109 186<447 793> 1200 188<613 989>
AnchorPoint: "Anchor-1" 872 1796 basechar 0
AnchorPoint: "Anchor-0" 670 0 basechar 0
LayerCount: 2
Fore
SplineSet
1104 2025 m 0,0,1
 1143 2054 1143 2054 1176.5 2016 c 128,-1,2
 1210 1978 1210 1978 1171 1939 c 0,3,4
 1073 1849 1073 1849 986 1849 c 128,-1,5
 899 1849 899 1849 835.5 1881 c 128,-1,6
 772 1913 772 1913 746.5 1913 c 128,-1,7
 721 1913 721 1913 661.5 1879 c 128,-1,8
 602 1845 602 1845 571.5 1889 c 128,-1,9
 541 1933 541 1933 575 1960 c 0,10,11
 679 2044 679 2044 774 2044 c 0,12,13
 835 2044 835 2044 904 2012 c 128,-1,14
 973 1980 973 1980 1009 1980 c 128,-1,15
 1045 1980 1045 1980 1104 2025 c 0,0,1
829 1784 m 2,16,-1
 881 1784 l 2,17,18
 930 1784 930 1784 971 1739 c 1,19,-1
 1065 1610 l 2,20,21
 1075 1594 1075 1594 1073 1569 c 128,-1,22
 1071 1544 1071 1544 1022 1544 c 2,23,-1
 1018 1544 l 2,24,25
 987 1544 987 1544 952 1571 c 1,26,-1
 842 1671 l 1,27,-1
 698 1571 l 1,28,29
 653 1544 653 1544 627 1544 c 2,30,-1
 623 1544 l 2,31,32
 580 1544 580 1544 580 1569 c 0,33,34
 580 1587 580 1587 594 1610 c 1,35,-1
 731 1739 l 1,36,37
 786 1784 786 1784 829 1784 c 2,16,-1
823 1446 m 0,38,39
 1099 1446 1099 1446 1244 1297.5 c 128,-1,40
 1389 1149 1389 1149 1389 860 c 0,41,42
 1389 440 1389 440 1196.5 214 c 128,-1,43
 1004 -12 1004 -12 670 -12 c 0,44,45
 396 -12 396 -12 252.5 137.5 c 128,-1,46
 109 287 109 287 109 578 c 0,47,48
 109 857 109 857 206 1068 c 0,49,50
 258 1182 258 1182 338 1265 c 128,-1,51
 418 1348 418 1348 542.5 1397 c 128,-1,52
 667 1446 667 1446 823 1446 c 0,38,39
807 1290 m 0,53,54
 569 1290 569 1290 432 1112 c 128,-1,55
 295 934 295 934 295 596 c 0,56,57
 295 373 295 373 394.5 258 c 128,-1,58
 494 143 494 143 686 143 c 0,59,60
 922 143 922 143 1061 324.5 c 128,-1,61
 1200 506 1200 506 1200 840 c 0,62,63
 1200 1063 1200 1063 1100 1176.5 c 128,-1,64
 1000 1290 1000 1290 807 1290 c 0,53,54
EndSplineSet
Position2: "'cpsp' Capital Spacing lookup 0 subtable" dx=10 dy=0 dh=20 dv=0
EndChar

StartChar: Odieresis
Encoding: 214 214 114
Width: 1497
GlyphClass: 2
Flags: MW
HStem: -12 156<558 840 558 889> 1290 156<651 935> 1606 195<678 715 973 1010>
VStem: 109 186<447 793> 606 182<1636 1769> 901 182<1636 1769> 1200 188<613 989>
AnchorPoint: "Anchor-1" 864 1796 basechar 0
AnchorPoint: "Anchor-0" 670 0 basechar 0
LayerCount: 2
Fore
SplineSet
616 1755 m 2,0,1
 622 1800 622 1800 705 1800 c 128,-1,2
 788 1800 788 1800 788 1755 c 1,3,-1
 778 1651 l 2,4,5
 772 1606 772 1606 689 1606 c 128,-1,6
 606 1606 606 1606 606 1651 c 1,7,-1
 616 1755 l 2,0,1
911 1755 m 2,8,9
 915 1800 915 1800 999 1800 c 128,-1,10
 1083 1800 1083 1800 1083 1755 c 1,11,-1
 1073 1651 l 2,12,13
 1067 1606 1067 1606 984 1606 c 128,-1,14
 901 1606 901 1606 901 1651 c 1,15,-1
 911 1755 l 2,8,9
823 1446 m 0,16,17
 1099 1446 1099 1446 1244 1297.5 c 128,-1,18
 1389 1149 1389 1149 1389 860 c 0,19,20
 1389 440 1389 440 1196.5 214 c 128,-1,21
 1004 -12 1004 -12 670 -12 c 0,22,23
 396 -12 396 -12 252.5 137.5 c 128,-1,24
 109 287 109 287 109 578 c 0,25,26
 109 857 109 857 206 1068 c 0,27,28
 258 1182 258 1182 338 1265 c 128,-1,29
 418 1348 418 1348 542.5 1397 c 128,-1,30
 667 1446 667 1446 823 1446 c 0,16,17
807 1290 m 0,31,32
 569 1290 569 1290 432 1112 c 128,-1,33
 295 934 295 934 295 596 c 0,34,35
 295 373 295 373 394.5 258 c 128,-1,36
 494 143 494 143 686 143 c 0,37,38
 922 143 922 143 1061 324.5 c 128,-1,39
 1200 506 1200 506 1200 840 c 0,40,41
 1200 1063 1200 1063 1100 1176.5 c 128,-1,42
 1000 1290 1000 1290 807 1290 c 0,31,32
EndSplineSet
Position2: "'cpsp' Capital Spacing lookup 0 subtable" dx=10 dy=0 dh=20 dv=0
EndChar

StartChar: Odotbelow
Encoding: 7884 7884 115
Width: 1497
GlyphClass: 2
Flags: MW
HStem: -358 195<621 657> -12 156<558 840 558 889> 1290 156<651 935>
VStem: 109 186<447 793> 549 182<-328 -195> 1200 188<613 989>
AnchorPoint: "Anchor-1" 657 -168 basechar 0
AnchorPoint: "Anchor-0" 627 -416 basechar 0
LayerCount: 2
Fore
SplineSet
823 1446 m 0,0,1
 1099 1446 1099 1446 1244 1297.5 c 128,-1,2
 1389 1149 1389 1149 1389 860 c 0,3,4
 1389 440 1389 440 1196.5 214 c 128,-1,5
 1004 -12 1004 -12 670 -12 c 0,6,7
 396 -12 396 -12 252.5 137.5 c 128,-1,8
 109 287 109 287 109 578 c 0,9,10
 109 857 109 857 206 1068 c 0,11,12
 258 1182 258 1182 338 1265 c 128,-1,13
 418 1348 418 1348 542.5 1397 c 128,-1,14
 667 1446 667 1446 823 1446 c 0,0,1
807 1290 m 0,15,16
 569 1290 569 1290 432 1112 c 128,-1,17
 295 934 295 934 295 596 c 0,18,19
 295 373 295 373 394.5 258 c 128,-1,20
 494 143 494 143 686 143 c 0,21,22
 922 143 922 143 1061 324.5 c 128,-1,23
 1200 506 1200 506 1200 840 c 0,24,25
 1200 1063 1200 1063 1100 1176.5 c 128,-1,26
 1000 1290 1000 1290 807 1290 c 0,15,16
559 -209 m 2,27,28
 565 -164 565 -164 648 -164 c 128,-1,29
 731 -164 731 -164 731 -209 c 1,30,-1
 721 -313 l 2,31,32
 715 -358 715 -358 632 -358 c 128,-1,33
 549 -358 549 -358 549 -313 c 1,34,-1
 559 -209 l 2,27,28
EndSplineSet
Position2: "'cpsp' Capital Spacing lookup 0 subtable" dx=10 dy=0 dh=20 dv=0
EndChar

StartChar: Ograve
Encoding: 210 210 116
Width: 1497
GlyphClass: 2
Flags: MW
HStem: -12 156<558 840 558 889> 1290 156<651 935>
VStem: 109 186<447 793> 1200 188<613 989>
AnchorPoint: "Anchor-1" 866 1796 basechar 0
AnchorPoint: "Anchor-0" 670 0 basechar 0
LayerCount: 2
Fore
SplineSet
678 1862 m 128,-1,1
 774 1862 774 1862 805 1808 c 0,2,3
 924 1605 924 1605 924 1579 c 0,4,5
 924 1561 924 1561 863.5 1561 c 128,-1,6
 803 1561 803 1561 772 1597 c 0,7,8
 592 1802 592 1802 586 1815 c 128,-1,9
 580 1828 580 1828 580 1837 c 0,10,0
 582 1862 582 1862 678 1862 c 128,-1,1
823 1446 m 0,11,12
 1099 1446 1099 1446 1244 1297.5 c 128,-1,13
 1389 1149 1389 1149 1389 860 c 0,14,15
 1389 440 1389 440 1196.5 214 c 128,-1,16
 1004 -12 1004 -12 670 -12 c 0,17,18
 396 -12 396 -12 252.5 137.5 c 128,-1,19
 109 287 109 287 109 578 c 0,20,21
 109 857 109 857 206 1068 c 0,22,23
 258 1182 258 1182 338 1265 c 128,-1,24
 418 1348 418 1348 542.5 1397 c 128,-1,25
 667 1446 667 1446 823 1446 c 0,11,12
807 1290 m 0,26,27
 569 1290 569 1290 432 1112 c 128,-1,28
 295 934 295 934 295 596 c 0,29,30
 295 373 295 373 394.5 258 c 128,-1,31
 494 143 494 143 686 143 c 0,32,33
 922 143 922 143 1061 324.5 c 128,-1,34
 1200 506 1200 506 1200 840 c 0,35,36
 1200 1063 1200 1063 1100 1176.5 c 128,-1,37
 1000 1290 1000 1290 807 1290 c 0,26,27
EndSplineSet
Position2: "'cpsp' Capital Spacing lookup 0 subtable" dx=10 dy=0 dh=20 dv=0
EndChar

StartChar: Ohookabove
Encoding: 7886 7886 117
Width: 1497
GlyphClass: 2
Flags: MW
HStem: -12 156<558 840 558 889> 1290 156<651 935> 1794 104<835 864>
VStem: 109 186<447 793> 913 135<1690 1759> 1200 188<613 989>
AnchorPoint: "Anchor-1" 862 1796 basechar 0
AnchorPoint: "Anchor-0" 670 0 basechar 0
LayerCount: 2
Fore
SplineSet
913 1743 m 0,0,1
 913 1794 913 1794 844 1794 c 0,2,3
 793 1794 793 1794 770.5 1780.5 c 128,-1,4
 748 1767 748 1767 745 1767 c 0,5,6
 733 1767 733 1767 719 1793 c 128,-1,7
 705 1819 705 1819 705 1837 c 128,-1,8
 705 1855 705 1855 761 1876.5 c 128,-1,9
 817 1898 817 1898 876.5 1898 c 128,-1,10
 936 1898 936 1898 992.5 1863.5 c 128,-1,11
 1049 1829 1049 1829 1049 1767.5 c 128,-1,12
 1049 1706 1049 1706 1020 1658 c 128,-1,13
 991 1610 991 1610 954 1581 c 0,14,15
 870 1515 870 1515 841.5 1515.5 c 128,-1,16
 813 1516 813 1516 789.5 1526 c 128,-1,17
 766 1536 766 1536 766 1554.5 c 128,-1,18
 766 1573 766 1573 803 1598 c 0,19,20
 913 1675 913 1675 913 1743 c 0,0,1
823 1446 m 0,21,22
 1099 1446 1099 1446 1244 1297.5 c 128,-1,23
 1389 1149 1389 1149 1389 860 c 0,24,25
 1389 440 1389 440 1196.5 214 c 128,-1,26
 1004 -12 1004 -12 670 -12 c 0,27,28
 396 -12 396 -12 252.5 137.5 c 128,-1,29
 109 287 109 287 109 578 c 0,30,31
 109 857 109 857 206 1068 c 0,32,33
 258 1182 258 1182 338 1265 c 128,-1,34
 418 1348 418 1348 542.5 1397 c 128,-1,35
 667 1446 667 1446 823 1446 c 0,21,22
807 1290 m 0,36,37
 569 1290 569 1290 432 1112 c 128,-1,38
 295 934 295 934 295 596 c 0,39,40
 295 373 295 373 394.5 258 c 128,-1,41
 494 143 494 143 686 143 c 0,42,43
 922 143 922 143 1061 324.5 c 128,-1,44
 1200 506 1200 506 1200 840 c 0,45,46
 1200 1063 1200 1063 1100 1176.5 c 128,-1,47
 1000 1290 1000 1290 807 1290 c 0,36,37
EndSplineSet
Position2: "'cpsp' Capital Spacing lookup 0 subtable" dx=10 dy=0 dh=20 dv=0
EndChar

StartChar: Ohorn
Encoding: 416 416 118
Width: 1497
GlyphClass: 2
Flags: MW
HStem: -12 156<558 840 558 889> 1290 106 1290 156<651 877 554 935>
VStem: 109 186<447 793> 1200 188<613 973 575 989> 1223 129<1487 1502>
AnchorPoint: "Anchor-1" 850 1438 basechar 0
AnchorPoint: "Anchor-0" 670 0 basechar 0
LayerCount: 2
Fore
SplineSet
1196 1341 m 1,0,1
 1389 1196 1389 1196 1389 860 c 0,2,3
 1389 440 1389 440 1196.5 214 c 128,-1,4
 1004 -12 1004 -12 670 -12 c 0,5,6
 396 -12 396 -12 252.5 137.5 c 128,-1,7
 109 287 109 287 109 578 c 0,8,9
 109 857 109 857 206 1068 c 0,10,11
 258 1182 258 1182 338 1265 c 128,-1,12
 418 1348 418 1348 543 1397 c 128,-1,13
 668 1446 668 1446 825.5 1446 c 128,-1,14
 983 1446 983 1446 1098 1397 c 1,15,-1
 1102 1397 l 2,16,17
 1223 1397 1223 1397 1223 1479 c 0,18,19
 1223 1506 1223 1506 1201.5 1543.5 c 128,-1,20
 1180 1581 1180 1581 1180 1596.5 c 128,-1,21
 1180 1612 1180 1612 1202 1624 c 2,22,-1
 1255 1657 l 2,23,24
 1265 1665 1265 1665 1280 1665 c 0,25,26
 1313 1665 1313 1665 1332.5 1621 c 128,-1,27
 1352 1577 1352 1577 1352 1520.5 c 128,-1,28
 1352 1464 1352 1464 1311 1412.5 c 128,-1,29
 1270 1361 1270 1361 1196 1341 c 1,0,1
686 143 m 0,30,31
 922 143 922 143 1061 324.5 c 128,-1,32
 1200 506 1200 506 1200 840 c 0,33,34
 1200 1063 1200 1063 1099.5 1176.5 c 128,-1,35
 999 1290 999 1290 807 1290 c 0,36,37
 569 1290 569 1290 432 1112 c 128,-1,38
 295 934 295 934 295 596 c 0,39,40
 295 373 295 373 394 258 c 128,-1,41
 493 143 493 143 686 143 c 0,30,31
EndSplineSet
Position2: "'cpsp' Capital Spacing lookup 0 subtable" dx=10 dy=0 dh=20 dv=0
EndChar

StartChar: Ohornacute
Encoding: 7898 7898 119
Width: 1497
GlyphClass: 2
Flags: MW
HStem: -12 156<558 840 558 889> 1290 106 1290 156<651 877 554 935>
VStem: 109 186<447 793> 1200 188<613 973 575 989> 1223 129<1487 1502>
AnchorPoint: "Anchor-1" 850 1438 basechar 0
AnchorPoint: "Anchor-0" 670 0 basechar 0
LayerCount: 2
Fore
SplineSet
1046.5 1866 m 128,-1,1
 1143 1866 1143 1866 1143 1842.5 c 128,-1,2
 1143 1819 1143 1819 924 1599 c 0,3,4
 889 1564 889 1564 830.5 1564.5 c 128,-1,5
 772 1565 772 1565 772 1583 c 0,6,7
 772 1608 772 1608 913 1812 c 0,8,0
 950 1866 950 1866 1046.5 1866 c 128,-1,1
1196 1341 m 1,9,10
 1389 1196 1389 1196 1389 860 c 0,11,12
 1389 440 1389 440 1196.5 214 c 128,-1,13
 1004 -12 1004 -12 670 -12 c 0,14,15
 396 -12 396 -12 252.5 137.5 c 128,-1,16
 109 287 109 287 109 578 c 0,17,18
 109 857 109 857 206 1068 c 0,19,20
 258 1182 258 1182 338 1265 c 128,-1,21
 418 1348 418 1348 543 1397 c 128,-1,22
 668 1446 668 1446 825.5 1446 c 128,-1,23
 983 1446 983 1446 1098 1397 c 1,24,-1
 1102 1397 l 2,25,26
 1223 1397 1223 1397 1223 1479 c 0,27,28
 1223 1506 1223 1506 1201.5 1543.5 c 128,-1,29
 1180 1581 1180 1581 1180 1596.5 c 128,-1,30
 1180 1612 1180 1612 1202 1624 c 2,31,-1
 1255 1657 l 2,32,33
 1265 1665 1265 1665 1280 1665 c 0,34,35
 1313 1665 1313 1665 1332.5 1621 c 128,-1,36
 1352 1577 1352 1577 1352 1520.5 c 128,-1,37
 1352 1464 1352 1464 1311 1412.5 c 128,-1,38
 1270 1361 1270 1361 1196 1341 c 1,9,10
686 143 m 0,39,40
 922 143 922 143 1061 324.5 c 128,-1,41
 1200 506 1200 506 1200 840 c 0,42,43
 1200 1063 1200 1063 1099.5 1176.5 c 128,-1,44
 999 1290 999 1290 807 1290 c 0,45,46
 569 1290 569 1290 432 1112 c 128,-1,47
 295 934 295 934 295 596 c 0,48,49
 295 373 295 373 394 258 c 128,-1,50
 493 143 493 143 686 143 c 0,39,40
EndSplineSet
Position2: "'cpsp' Capital Spacing lookup 0 subtable" dx=10 dy=0 dh=20 dv=0
EndChar

StartChar: Ohorndotbelow
Encoding: 7906 7906 120
Width: 1497
GlyphClass: 2
Flags: MW
HStem: -358 195<621 657> -12 156<558 840 558 889> 1290 106 1290 156<651 877 554 935>
VStem: 109 186<447 793> 549 182<-328 -195> 1200 188<613 973 575 989> 1223 129<1487 1502>
AnchorPoint: "Anchor-1" 850 1438 basechar 0
AnchorPoint: "Anchor-0" 627 -416 basechar 0
LayerCount: 2
Fore
SplineSet
1196 1341 m 1,0,1
 1389 1196 1389 1196 1389 860 c 0,2,3
 1389 440 1389 440 1196.5 214 c 128,-1,4
 1004 -12 1004 -12 670 -12 c 0,5,6
 396 -12 396 -12 252.5 137.5 c 128,-1,7
 109 287 109 287 109 578 c 0,8,9
 109 857 109 857 206 1068 c 0,10,11
 258 1182 258 1182 338 1265 c 128,-1,12
 418 1348 418 1348 543 1397 c 128,-1,13
 668 1446 668 1446 825.5 1446 c 128,-1,14
 983 1446 983 1446 1098 1397 c 1,15,-1
 1102 1397 l 2,16,17
 1223 1397 1223 1397 1223 1479 c 0,18,19
 1223 1506 1223 1506 1201.5 1543.5 c 128,-1,20
 1180 1581 1180 1581 1180 1596.5 c 128,-1,21
 1180 1612 1180 1612 1202 1624 c 2,22,-1
 1255 1657 l 2,23,24
 1265 1665 1265 1665 1280 1665 c 0,25,26
 1313 1665 1313 1665 1332.5 1621 c 128,-1,27
 1352 1577 1352 1577 1352 1520.5 c 128,-1,28
 1352 1464 1352 1464 1311 1412.5 c 128,-1,29
 1270 1361 1270 1361 1196 1341 c 1,0,1
686 143 m 0,30,31
 922 143 922 143 1061 324.5 c 128,-1,32
 1200 506 1200 506 1200 840 c 0,33,34
 1200 1063 1200 1063 1099.5 1176.5 c 128,-1,35
 999 1290 999 1290 807 1290 c 0,36,37
 569 1290 569 1290 432 1112 c 128,-1,38
 295 934 295 934 295 596 c 0,39,40
 295 373 295 373 394 258 c 128,-1,41
 493 143 493 143 686 143 c 0,30,31
559 -209 m 2,42,43
 565 -164 565 -164 648 -164 c 128,-1,44
 731 -164 731 -164 731 -209 c 1,45,-1
 721 -313 l 2,46,47
 715 -358 715 -358 632 -358 c 128,-1,48
 549 -358 549 -358 549 -313 c 1,49,-1
 559 -209 l 2,42,43
EndSplineSet
Position2: "'cpsp' Capital Spacing lookup 0 subtable" dx=10 dy=0 dh=20 dv=0
EndChar

StartChar: Ohorngrave
Encoding: 7900 7900 121
Width: 1497
GlyphClass: 2
Flags: MW
HStem: -12 156<558 840 558 889> 1290 106 1290 156<651 877 554 935>
VStem: 109 186<447 793> 1200 188<613 973 575 989> 1223 129<1487 1502>
AnchorPoint: "Anchor-1" 850 1438 basechar 0
AnchorPoint: "Anchor-0" 670 0 basechar 0
LayerCount: 2
Fore
SplineSet
950 1583 m 0,0,1
 950 1565 950 1565 889.5 1565 c 128,-1,2
 829 1565 829 1565 799 1602 c 0,3,4
 619 1807 619 1807 612.5 1819.5 c 128,-1,5
 606 1832 606 1832 606 1841 c 0,6,7
 608 1866 608 1866 704.5 1866 c 128,-1,8
 801 1866 801 1866 831 1812 c 0,9,10
 950 1610 950 1610 950 1583 c 0,0,1
1196 1341 m 1,11,12
 1389 1196 1389 1196 1389 860 c 0,13,14
 1389 440 1389 440 1196.5 214 c 128,-1,15
 1004 -12 1004 -12 670 -12 c 0,16,17
 396 -12 396 -12 252.5 137.5 c 128,-1,18
 109 287 109 287 109 578 c 0,19,20
 109 857 109 857 206 1068 c 0,21,22
 258 1182 258 1182 338 1265 c 128,-1,23
 418 1348 418 1348 543 1397 c 128,-1,24
 668 1446 668 1446 825.5 1446 c 128,-1,25
 983 1446 983 1446 1098 1397 c 1,26,-1
 1102 1397 l 2,27,28
 1223 1397 1223 1397 1223 1479 c 0,29,30
 1223 1506 1223 1506 1201.5 1543.5 c 128,-1,31
 1180 1581 1180 1581 1180 1596.5 c 128,-1,32
 1180 1612 1180 1612 1202 1624 c 2,33,-1
 1255 1657 l 2,34,35
 1265 1665 1265 1665 1280 1665 c 0,36,37
 1313 1665 1313 1665 1332.5 1621 c 128,-1,38
 1352 1577 1352 1577 1352 1520.5 c 128,-1,39
 1352 1464 1352 1464 1311 1412.5 c 128,-1,40
 1270 1361 1270 1361 1196 1341 c 1,11,12
686 143 m 0,41,42
 922 143 922 143 1061 324.5 c 128,-1,43
 1200 506 1200 506 1200 840 c 0,44,45
 1200 1063 1200 1063 1099.5 1176.5 c 128,-1,46
 999 1290 999 1290 807 1290 c 0,47,48
 569 1290 569 1290 432 1112 c 128,-1,49
 295 934 295 934 295 596 c 0,50,51
 295 373 295 373 394 258 c 128,-1,52
 493 143 493 143 686 143 c 0,41,42
EndSplineSet
Position2: "'cpsp' Capital Spacing lookup 0 subtable" dx=10 dy=0 dh=20 dv=0
EndChar

StartChar: Ohornhookabove
Encoding: 7902 7902 122
Width: 1497
GlyphClass: 2
Flags: MW
HStem: -12 156<558 840 558 889> 1290 106 1290 156<651 877 554 935> 1798 104<861 891>
VStem: 109 186<447 793> 940 135<1694 1763> 1200 188<613 973 575 989> 1223 129<1487 1502>
AnchorPoint: "Anchor-1" 850 1438 basechar 0
AnchorPoint: "Anchor-0" 670 0 basechar 0
LayerCount: 2
Fore
SplineSet
772 1772 m 0,0,1
 760 1772 760 1772 745.5 1797.5 c 128,-1,2
 731 1823 731 1823 731 1841.5 c 128,-1,3
 731 1860 731 1860 787.5 1881.5 c 128,-1,4
 844 1903 844 1903 903.5 1903 c 128,-1,5
 963 1903 963 1903 1019 1868 c 128,-1,6
 1075 1833 1075 1833 1075 1771.5 c 128,-1,7
 1075 1710 1075 1710 1046.5 1662 c 128,-1,8
 1018 1614 1018 1614 981 1585 c 0,9,10
 897 1519 897 1519 868.5 1519.5 c 128,-1,11
 840 1520 840 1520 816.5 1530 c 128,-1,12
 793 1540 793 1540 793 1558.5 c 128,-1,13
 793 1577 793 1577 829 1603 c 0,14,15
 940 1680 940 1680 940 1747 c 0,16,17
 940 1798 940 1798 870 1798 c 0,18,19
 819 1798 819 1798 796.5 1785 c 128,-1,20
 774 1772 774 1772 772 1772 c 0,0,1
1196 1341 m 1,21,22
 1389 1196 1389 1196 1389 860 c 0,23,24
 1389 440 1389 440 1196.5 214 c 128,-1,25
 1004 -12 1004 -12 670 -12 c 0,26,27
 396 -12 396 -12 252.5 137.5 c 128,-1,28
 109 287 109 287 109 578 c 0,29,30
 109 857 109 857 206 1068 c 0,31,32
 258 1182 258 1182 338 1265 c 128,-1,33
 418 1348 418 1348 543 1397 c 128,-1,34
 668 1446 668 1446 825.5 1446 c 128,-1,35
 983 1446 983 1446 1098 1397 c 1,36,-1
 1102 1397 l 2,37,38
 1223 1397 1223 1397 1223 1479 c 0,39,40
 1223 1506 1223 1506 1201.5 1543.5 c 128,-1,41
 1180 1581 1180 1581 1180 1596.5 c 128,-1,42
 1180 1612 1180 1612 1202 1624 c 2,43,-1
 1255 1657 l 2,44,45
 1265 1665 1265 1665 1280 1665 c 0,46,47
 1313 1665 1313 1665 1332.5 1621 c 128,-1,48
 1352 1577 1352 1577 1352 1520.5 c 128,-1,49
 1352 1464 1352 1464 1311 1412.5 c 128,-1,50
 1270 1361 1270 1361 1196 1341 c 1,21,22
686 143 m 0,51,52
 922 143 922 143 1061 324.5 c 128,-1,53
 1200 506 1200 506 1200 840 c 0,54,55
 1200 1063 1200 1063 1099.5 1176.5 c 128,-1,56
 999 1290 999 1290 807 1290 c 0,57,58
 569 1290 569 1290 432 1112 c 128,-1,59
 295 934 295 934 295 596 c 0,60,61
 295 373 295 373 394 258 c 128,-1,62
 493 143 493 143 686 143 c 0,51,52
EndSplineSet
Position2: "'cpsp' Capital Spacing lookup 0 subtable" dx=10 dy=0 dh=20 dv=0
EndChar

StartChar: Ohorntilde
Encoding: 7904 7904 123
Width: 1497
GlyphClass: 2
Flags: MW
HStem: -12 156<558 840 558 889> 1290 106 1290 156<651 877 554 935> 1565 131<993 1020> 1628 131<746 774>
VStem: 109 186<447 793> 1200 188<613 973 575 989> 1223 129<1487 1502>
AnchorPoint: "Anchor-1" 850 1438 basechar 0
AnchorPoint: "Anchor-0" 670 0 basechar 0
LayerCount: 2
Fore
SplineSet
1178 1655 m 0,0,1
 1080 1565 1080 1565 992.5 1565 c 128,-1,2
 905 1565 905 1565 843.5 1596.5 c 128,-1,3
 782 1628 782 1628 756.5 1628 c 128,-1,4
 731 1628 731 1628 672.5 1594.5 c 128,-1,5
 614 1561 614 1561 583.5 1605 c 128,-1,6
 553 1649 553 1649 588 1675 c 0,7,8
 692 1759 692 1759 784 1759 c 0,9,10
 843 1759 843 1759 912 1727.5 c 128,-1,11
 981 1696 981 1696 1016 1696 c 128,-1,12
 1051 1696 1051 1696 1110 1741 c 0,13,14
 1149 1770 1149 1770 1183 1732 c 128,-1,15
 1217 1694 1217 1694 1178 1655 c 0,0,1
1196 1341 m 1,16,17
 1389 1196 1389 1196 1389 860 c 0,18,19
 1389 440 1389 440 1196.5 214 c 128,-1,20
 1004 -12 1004 -12 670 -12 c 0,21,22
 396 -12 396 -12 252.5 137.5 c 128,-1,23
 109 287 109 287 109 578 c 0,24,25
 109 857 109 857 206 1068 c 0,26,27
 258 1182 258 1182 338 1265 c 128,-1,28
 418 1348 418 1348 543 1397 c 128,-1,29
 668 1446 668 1446 825.5 1446 c 128,-1,30
 983 1446 983 1446 1098 1397 c 1,31,-1
 1102 1397 l 2,32,33
 1223 1397 1223 1397 1223 1479 c 0,34,35
 1223 1506 1223 1506 1201.5 1543.5 c 128,-1,36
 1180 1581 1180 1581 1180 1596.5 c 128,-1,37
 1180 1612 1180 1612 1202 1624 c 2,38,-1
 1255 1657 l 2,39,40
 1265 1665 1265 1665 1280 1665 c 0,41,42
 1313 1665 1313 1665 1332.5 1621 c 128,-1,43
 1352 1577 1352 1577 1352 1520.5 c 128,-1,44
 1352 1464 1352 1464 1311 1412.5 c 128,-1,45
 1270 1361 1270 1361 1196 1341 c 1,16,17
686 143 m 0,46,47
 922 143 922 143 1061 324.5 c 128,-1,48
 1200 506 1200 506 1200 840 c 0,49,50
 1200 1063 1200 1063 1099.5 1176.5 c 128,-1,51
 999 1290 999 1290 807 1290 c 0,52,53
 569 1290 569 1290 432 1112 c 128,-1,54
 295 934 295 934 295 596 c 0,55,56
 295 373 295 373 394 258 c 128,-1,57
 493 143 493 143 686 143 c 0,46,47
EndSplineSet
Position2: "'cpsp' Capital Spacing lookup 0 subtable" dx=10 dy=0 dh=20 dv=0
EndChar

StartChar: Ohungarumlaut
Encoding: 336 336 124
Width: 1497
GlyphClass: 2
Flags: MW
HStem: -12 156<558 840 558 889> 1290 156<651 935>
VStem: 109 186<447 793> 1200 188<613 989>
AnchorPoint: "Anchor-1" 895 1796 basechar 0
AnchorPoint: "Anchor-0" 670 0 basechar 0
LayerCount: 2
Fore
SplineSet
893 1862 m 128,-1,1
 989 1862 989 1862 989 1837 c 0,2,3
 989 1814 989 1814 772 1597 c 0,4,5
 735 1560 735 1560 676.5 1560.5 c 128,-1,6
 618 1561 618 1561 618 1579 c 0,7,8
 618 1604 618 1604 760 1808 c 0,9,0
 797 1862 797 1862 893 1862 c 128,-1,1
1192 1862 m 128,-1,11
 1288 1862 1288 1862 1288 1837 c 0,12,13
 1288 1814 1288 1814 1071 1597 c 0,14,15
 1034 1560 1034 1560 976 1560.5 c 128,-1,16
 918 1561 918 1561 918 1579 c 0,17,18
 918 1604 918 1604 1059 1808 c 0,19,10
 1096 1862 1096 1862 1192 1862 c 128,-1,11
823 1446 m 0,20,21
 1099 1446 1099 1446 1244 1297.5 c 128,-1,22
 1389 1149 1389 1149 1389 860 c 0,23,24
 1389 440 1389 440 1196.5 214 c 128,-1,25
 1004 -12 1004 -12 670 -12 c 0,26,27
 396 -12 396 -12 252.5 137.5 c 128,-1,28
 109 287 109 287 109 578 c 0,29,30
 109 857 109 857 206 1068 c 0,31,32
 258 1182 258 1182 338 1265 c 128,-1,33
 418 1348 418 1348 542.5 1397 c 128,-1,34
 667 1446 667 1446 823 1446 c 0,20,21
807 1290 m 0,35,36
 569 1290 569 1290 432 1112 c 128,-1,37
 295 934 295 934 295 596 c 0,38,39
 295 373 295 373 394.5 258 c 128,-1,40
 494 143 494 143 686 143 c 0,41,42
 922 143 922 143 1061 324.5 c 128,-1,43
 1200 506 1200 506 1200 840 c 0,44,45
 1200 1063 1200 1063 1100 1176.5 c 128,-1,46
 1000 1290 1000 1290 807 1290 c 0,35,36
EndSplineSet
Position2: "'cpsp' Capital Spacing lookup 0 subtable" dx=10 dy=0 dh=20 dv=0
EndChar

StartChar: Omacron
Encoding: 332 332 125
Width: 1497
GlyphClass: 2
Flags: MW
HStem: -12 156<558 840 558 889> 1290 156<651 935> 1616 145<569 1063 600 1047>
VStem: 109 186<447 793> 1200 188<613 989>
AnchorPoint: "Anchor-1" 854 1796 basechar 0
AnchorPoint: "Anchor-0" 670 0 basechar 0
LayerCount: 2
Fore
SplineSet
600 1761 m 2,0,-1
 1063 1761 l 2,1,2
 1098 1761 1098 1761 1098 1708 c 0,3,4
 1098 1616 1098 1616 1047 1616 c 2,5,-1
 584 1616 l 2,6,7
 549 1616 549 1616 549 1671 c 0,8,9
 549 1761 549 1761 600 1761 c 2,0,-1
823 1446 m 0,10,11
 1099 1446 1099 1446 1244 1297.5 c 128,-1,12
 1389 1149 1389 1149 1389 860 c 0,13,14
 1389 440 1389 440 1196.5 214 c 128,-1,15
 1004 -12 1004 -12 670 -12 c 0,16,17
 396 -12 396 -12 252.5 137.5 c 128,-1,18
 109 287 109 287 109 578 c 0,19,20
 109 857 109 857 206 1068 c 0,21,22
 258 1182 258 1182 338 1265 c 128,-1,23
 418 1348 418 1348 542.5 1397 c 128,-1,24
 667 1446 667 1446 823 1446 c 0,10,11
807 1290 m 0,25,26
 569 1290 569 1290 432 1112 c 128,-1,27
 295 934 295 934 295 596 c 0,28,29
 295 373 295 373 394.5 258 c 128,-1,30
 494 143 494 143 686 143 c 0,31,32
 922 143 922 143 1061 324.5 c 128,-1,33
 1200 506 1200 506 1200 840 c 0,34,35
 1200 1063 1200 1063 1100 1176.5 c 128,-1,36
 1000 1290 1000 1290 807 1290 c 0,25,26
EndSplineSet
Position2: "'cpsp' Capital Spacing lookup 0 subtable" dx=10 dy=0 dh=20 dv=0
EndChar

StartChar: Oogonek
Encoding: 490 490 126
Width: 1497
GlyphClass: 2
Flags: MW
HStem: -375 143<883 910> -12 156<558 670 670 707> 1290 156<651 935>
VStem: 109 186<447 793> 645 141<-184 -175> 1200 188<613 989>
AnchorPoint: "Anchor-1" 823 1434 basechar 0
AnchorPoint: "Anchor-0" 754 -416 basechar 0
LayerCount: 2
Fore
SplineSet
1389 860 m 0,0,1
 1389 491 1389 491 1240.5 271 c 128,-1,2
 1092 51 1092 51 825 2 c 1,3,4
 825 -10 825 -10 805.5 -61.5 c 128,-1,5
 786 -113 786 -113 786 -143 c 0,6,7
 786 -231 786 -231 905 -231 c 0,8,9
 942 -231 942 -231 987 -213 c 128,-1,10
 1032 -195 1032 -195 1036 -195 c 0,11,12
 1048 -195 1048 -195 1049 -221 c 0,13,14
 1049 -375 1049 -375 866 -375 c 0,15,16
 739 -375 739 -375 692 -319.5 c 128,-1,17
 645 -264 645 -264 645 -173 c 128,-1,18
 645 -82 645 -82 707 -12 c 1,19,-1
 670 -12 l 2,20,21
 396 -12 396 -12 252.5 137.5 c 128,-1,22
 109 287 109 287 109 578 c 0,23,24
 109 857 109 857 206 1068 c 0,25,26
 258 1182 258 1182 338 1265 c 128,-1,27
 418 1348 418 1348 543 1397 c 128,-1,28
 668 1446 668 1446 823 1446 c 0,29,30
 1099 1446 1099 1446 1244 1297.5 c 128,-1,31
 1389 1149 1389 1149 1389 860 c 0,0,1
295 596 m 0,32,33
 295 373 295 373 394.5 258 c 128,-1,34
 494 143 494 143 686 143 c 0,35,36
 922 143 922 143 1061 324.5 c 128,-1,37
 1200 506 1200 506 1200 840 c 0,38,39
 1200 1063 1200 1063 1099.5 1176.5 c 128,-1,40
 999 1290 999 1290 807 1290 c 0,41,42
 569 1290 569 1290 432 1112 c 128,-1,43
 295 934 295 934 295 596 c 0,32,33
EndSplineSet
Position2: "'cpsp' Capital Spacing lookup 0 subtable" dx=10 dy=0 dh=20 dv=0
EndChar

StartChar: Oslash
Encoding: 216 216 127
Width: 1497
GlyphClass: 2
Flags: MW
HStem: -12 156<609 840 609 889> 1290 156<651 874> 1397 41G<1394 1403>
VStem: 109 186<555 793> 1200 188<613 891>
AnchorPoint: "Anchor-1" 750 1434 basechar 0
AnchorPoint: "Anchor-0" 0 0 basechar 0
LayerCount: 2
Fore
SplineSet
823 1446 m 0,0,1
 1102 1446 1102 1446 1243 1298 c 1,2,-1
 1370 1423 l 2,3,4
 1384 1437 1384 1437 1398.5 1437.5 c 128,-1,5
 1413 1438 1413 1438 1426.5 1424.5 c 128,-1,6
 1440 1411 1440 1411 1440 1397.5 c 128,-1,7
 1440 1384 1440 1384 1425 1370 c 2,8,-1
 1292 1237 l 1,9,10
 1388 1094 1388 1094 1389 860 c 0,11,12
 1389 440 1389 440 1196.5 214 c 128,-1,13
 1004 -12 1004 -12 683 -12 c 128,-1,14
 362 -12 362 -12 221 172 c 1,15,-1
 68 18 l 2,16,17
 52 2 52 2 39.5 2 c 128,-1,18
 27 2 27 2 12.5 16.5 c 128,-1,19
 -2 31 -2 31 -2 43 c 128,-1,20
 -2 55 -2 55 14 72 c 2,21,-1
 180 238 l 1,22,23
 108 375 108 375 109 578 c 0,24,25
 109 857 109 857 206 1068 c 0,26,27
 258 1182 258 1182 338 1265 c 128,-1,28
 418 1348 418 1348 542.5 1397 c 128,-1,29
 667 1446 667 1446 823 1446 c 0,0,1
807 1290 m 0,30,31
 569 1290 569 1290 432 1112 c 128,-1,32
 295 934 295 934 295 596 c 0,33,34
 295 473 295 473 326 383 c 1,35,-1
 1110 1163 l 1,36,37
 1008 1290 1008 1290 807 1290 c 0,30,31
1151 1098 m 1,38,-1
 358 307 l 1,39,40
 454 143 454 143 688 143 c 128,-1,41
 922 143 922 143 1061 324.5 c 128,-1,42
 1200 506 1200 506 1200 840 c 0,43,44
 1200 996 1200 996 1151 1098 c 1,38,-1
EndSplineSet
Position2: "'cpsp' Capital Spacing lookup 0 subtable" dx=10 dy=0 dh=20 dv=0
EndChar

StartChar: Oslashacute
Encoding: 510 510 128
Width: 1497
GlyphClass: 2
Flags: MW
HStem: -12 156<609 840 609 889> 1290 156<651 874> 1397 41G<1394 1403>
VStem: 109 186<555 793> 1200 188<613 891>
AnchorPoint: "Anchor-1" 842 1796 basechar 0
AnchorPoint: "Anchor-0" 0 0 basechar 0
LayerCount: 2
Fore
SplineSet
946 1862 m 128,-1,1
 1042 1862 1042 1862 1042 1837 c 0,2,3
 1042 1814 1042 1814 825 1597 c 0,4,5
 788 1560 788 1560 730 1560.5 c 128,-1,6
 672 1561 672 1561 672 1579 c 0,7,8
 672 1604 672 1604 813 1808 c 0,9,0
 850 1862 850 1862 946 1862 c 128,-1,1
823 1446 m 0,10,11
 1102 1446 1102 1446 1243 1298 c 1,12,-1
 1370 1423 l 2,13,14
 1384 1437 1384 1437 1398.5 1437.5 c 128,-1,15
 1413 1438 1413 1438 1426.5 1424.5 c 128,-1,16
 1440 1411 1440 1411 1440 1397.5 c 128,-1,17
 1440 1384 1440 1384 1425 1370 c 2,18,-1
 1292 1237 l 1,19,20
 1388 1094 1388 1094 1389 860 c 0,21,22
 1389 440 1389 440 1196.5 214 c 128,-1,23
 1004 -12 1004 -12 683 -12 c 128,-1,24
 362 -12 362 -12 221 172 c 1,25,-1
 68 18 l 2,26,27
 52 2 52 2 39.5 2 c 128,-1,28
 27 2 27 2 12.5 16.5 c 128,-1,29
 -2 31 -2 31 -2 43 c 128,-1,30
 -2 55 -2 55 14 72 c 2,31,-1
 180 238 l 1,32,33
 108 375 108 375 109 578 c 0,34,35
 109 857 109 857 206 1068 c 0,36,37
 258 1182 258 1182 338 1265 c 128,-1,38
 418 1348 418 1348 542.5 1397 c 128,-1,39
 667 1446 667 1446 823 1446 c 0,10,11
807 1290 m 0,40,41
 569 1290 569 1290 432 1112 c 128,-1,42
 295 934 295 934 295 596 c 0,43,44
 295 473 295 473 326 383 c 1,45,-1
 1110 1163 l 1,46,47
 1008 1290 1008 1290 807 1290 c 0,40,41
1151 1098 m 1,48,-1
 358 307 l 1,49,50
 454 143 454 143 688 143 c 128,-1,51
 922 143 922 143 1061 324.5 c 128,-1,52
 1200 506 1200 506 1200 840 c 0,53,54
 1200 996 1200 996 1151 1098 c 1,48,-1
EndSplineSet
Position2: "'cpsp' Capital Spacing lookup 0 subtable" dx=10 dy=0 dh=20 dv=0
EndChar

StartChar: Otilde
Encoding: 213 213 129
Width: 1497
GlyphClass: 2
Flags: MW
HStem: -12 156<558 840 558 889> 1290 156<651 935> 1561 131<983 1013> 1624 131<710 740>
VStem: 109 186<447 793> 1200 188<613 989>
AnchorPoint: "Anchor-1" 895 1796 basechar 0
AnchorPoint: "Anchor-0" 670 0 basechar 0
LayerCount: 2
Fore
SplineSet
1114 1737 m 0,0,1
 1157 1766 1157 1766 1194 1729 c 128,-1,2
 1231 1692 1231 1692 1188 1651 c 0,3,4
 1079 1561 1079 1561 983 1561 c 128,-1,5
 887 1561 887 1561 817.5 1592.5 c 128,-1,6
 748 1624 748 1624 719 1624 c 128,-1,7
 690 1624 690 1624 625.5 1590 c 128,-1,8
 561 1556 561 1556 528.5 1600.5 c 128,-1,9
 496 1645 496 1645 532 1671 c 0,10,11
 649 1755 649 1755 752 1755 c 0,12,13
 815 1755 815 1755 892 1723.5 c 128,-1,14
 969 1692 969 1692 1007.5 1692 c 128,-1,15
 1046 1692 1046 1692 1114 1737 c 0,0,1
823 1446 m 0,16,17
 1099 1446 1099 1446 1244 1297.5 c 128,-1,18
 1389 1149 1389 1149 1389 860 c 0,19,20
 1389 440 1389 440 1196.5 214 c 128,-1,21
 1004 -12 1004 -12 670 -12 c 0,22,23
 396 -12 396 -12 252.5 137.5 c 128,-1,24
 109 287 109 287 109 578 c 0,25,26
 109 857 109 857 206 1068 c 0,27,28
 258 1182 258 1182 338 1265 c 128,-1,29
 418 1348 418 1348 542.5 1397 c 128,-1,30
 667 1446 667 1446 823 1446 c 0,16,17
807 1290 m 0,31,32
 569 1290 569 1290 432 1112 c 128,-1,33
 295 934 295 934 295 596 c 0,34,35
 295 373 295 373 394.5 258 c 128,-1,36
 494 143 494 143 686 143 c 0,37,38
 922 143 922 143 1061 324.5 c 128,-1,39
 1200 506 1200 506 1200 840 c 0,40,41
 1200 1063 1200 1063 1100 1176.5 c 128,-1,42
 1000 1290 1000 1290 807 1290 c 0,31,32
EndSplineSet
Position2: "'cpsp' Capital Spacing lookup 0 subtable" dx=10 dy=0 dh=20 dv=0
EndChar

StartChar: OE
Encoding: 338 338 130
Width: 2091
GlyphClass: 2
Flags: MW
HStem: -12 156<558 764> 0 156<1164 1925 1319 1909> 655 156<1386 1911 1370 1927> 1278 156<1436 2040 1436 1436> 1290 156<651 916 603 935>
VStem: 109 186<447 825 447 864> 1200 186<811 811 811 989>
AnchorPoint: "Anchor-1" 1047 1434 basechar 0
AnchorPoint: "Anchor-0" 0 0 basechar 0
LayerCount: 2
Fore
SplineSet
1333 1434 m 2,0,-1
 2056 1434 l 2,1,2
 2091 1434 2091 1434 2091 1389 c 0,3,4
 2091 1278 2091 1278 2040 1278 c 2,5,-1
 1436 1278 l 1,6,-1
 1386 811 l 1,7,-1
 1927 811 l 2,8,9
 1962 811 1962 811 1962 766 c 0,10,11
 1962 655 1962 655 1911 655 c 2,12,-1
 1370 655 l 1,13,-1
 1319 156 l 1,14,-1
 1925 156 l 2,15,16
 1960 156 1960 156 1960 111 c 0,17,18
 1960 0 1960 0 1909 0 c 2,19,-1
 1184 0 l 2,20,21
 1129 0 1129 0 1128 49 c 0,22,23
 1128 61 1128 61 1139 150 c 1,24,25
 959 -12 959 -12 677 -12 c 0,26,27
 395 -12 395 -12 252 137.5 c 128,-1,28
 109 287 109 287 109 578 c 0,29,30
 109 1002 109 1002 298 1224 c 128,-1,31
 487 1446 487 1446 823 1446 c 0,32,33
 1104 1446 1104 1446 1255 1288 c 1,34,-1
 1266 1372 l 2,35,36
 1272 1434 1272 1434 1333 1434 c 2,0,-1
686 143 m 0,37,38
 922 143 922 143 1061 324.5 c 128,-1,39
 1200 506 1200 506 1200 840 c 0,40,41
 1200 1063 1200 1063 1099.5 1176.5 c 128,-1,42
 999 1290 999 1290 807 1290 c 0,43,44
 569 1290 569 1290 432 1112 c 128,-1,45
 295 934 295 934 295 596 c 0,46,47
 295 373 295 373 394 258 c 128,-1,48
 493 143 493 143 686 143 c 0,37,38
EndSplineSet
Position2: "'cpsp' Capital Spacing lookup 0 subtable" dx=10 dy=0 dh=20 dv=0
EndChar

StartChar: P
Encoding: 80 80 131
Width: 1167
GlyphClass: 2
Flags: MW
HStem: 610 156<358 659 342 678> 1278 156<412 412 412 702>
VStem: 956 188<940 1153>
LayerCount: 2
Fore
SplineSet
309 1434 m 2,0,-1
 725 1434 l 2,1,2
 875 1434 875 1434 995 1373 c 0,3,4
 1063 1339 1063 1339 1104 1267.5 c 128,-1,5
 1145 1196 1145 1196 1145 1083.5 c 128,-1,6
 1145 971 1145 971 1104 877.5 c 128,-1,7
 1063 784 1063 784 1005.5 735 c 128,-1,8
 948 686 948 686 876 656 c 0,9,10
 763 610 763 610 659 610 c 2,11,-1
 342 610 l 1,12,-1
 283 41 l 2,13,14
 277 -4 277 -4 197 -4 c 2,15,-1
 180 -4 l 2,16,17
 102 -4 102 -4 102 41 c 1,18,-1
 242 1372 l 2,19,20
 248 1434 248 1434 309 1434 c 2,0,-1
412 1278 m 1,21,-1
 358 766 l 1,22,-1
 678 766 l 2,23,24
 759 766 759 766 847 820 c 0,25,26
 895 850 895 850 925.5 914.5 c 128,-1,27
 956 979 956 979 956 1081.5 c 128,-1,28
 956 1184 956 1184 881.5 1231 c 128,-1,29
 807 1278 807 1278 702 1278 c 2,30,-1
 412 1278 l 1,21,-1
EndSplineSet
Position2: "'cpsp' Capital Spacing lookup 0 subtable" dx=10 dy=0 dh=20 dv=0
EndChar

StartChar: Thorn
Encoding: 222 222 132
Width: 1161
GlyphClass: 2
Flags: MW
HStem: 360 156<332 633 315 651> 1028 156<385 698 401 676> 1397 41G<330 346 346 376>
VStem: 930 188<690 903>
LayerCount: 2
Fore
SplineSet
330 1438 m 2,0,-1
 346 1438 l 2,1,2
 424 1438 424 1438 424 1393 c 1,3,-1
 401 1184 l 1,4,-1
 698 1184 l 2,5,6
 848 1184 848 1184 969 1123 c 0,7,8
 1037 1089 1037 1089 1077.5 1017.5 c 128,-1,9
 1118 946 1118 946 1118 832.5 c 128,-1,10
 1118 719 1118 719 1080 627 c 128,-1,11
 1042 535 1042 535 988 485.5 c 128,-1,12
 934 436 934 436 862 407 c 0,13,14
 751 361 751 361 633 360 c 2,15,-1
 315 360 l 1,16,-1
 283 41 l 2,17,18
 277 -4 277 -4 197 -4 c 2,19,-1
 180 -4 l 2,20,21
 102 -4 102 -4 102 41 c 1,22,-1
 244 1393 l 2,23,24
 250 1438 250 1438 330 1438 c 2,0,-1
385 1028 m 1,25,-1
 332 516 l 1,26,-1
 651 516 l 2,27,28
 732 516 732 516 820 570 c 0,29,30
 868 600 868 600 899 664.5 c 128,-1,31
 930 729 930 729 930 831.5 c 128,-1,32
 930 934 930 934 855 981 c 128,-1,33
 780 1028 780 1028 676 1028 c 2,34,-1
 385 1028 l 1,25,-1
EndSplineSet
Position2: "'cpsp' Capital Spacing lookup 0 subtable" dx=10 dy=0 dh=20 dv=0
EndChar

StartChar: Q
Encoding: 81 81 133
Width: 1497
GlyphClass: 2
Flags: MW
HStem: -39 41G<909 909> 1290 156<672 950>
VStem: 123 188<445 818 445 855> 1214 188<618 977>
LayerCount: 2
Fore
SplineSet
840 1446 m 0,0,1
 1116 1446 1116 1446 1259.5 1295.5 c 128,-1,2
 1403 1145 1403 1145 1403 854 c 0,3,4
 1403 508 1403 508 1271 289 c 128,-1,5
 1139 70 1139 70 909 10 c 1,6,-1
 909 2 l 1,7,-1
 1307 -127 l 1,8,9
 1332 -137 1332 -137 1331 -168 c 0,10,11
 1331 -322 1331 -322 1288 -322 c 0,12,13
 1258 -322 1258 -322 856.5 -157 c 128,-1,14
 455 8 455 8 444 12 c 0,15,16
 122 137 122 137 122.5 564 c 128,-1,17
 123 991 123 991 314.5 1218.5 c 128,-1,18
 506 1446 506 1446 840 1446 c 0,0,1
823 1290 m 0,19,20
 592 1290 592 1290 451.5 1107 c 128,-1,21
 311 924 311 924 311 594 c 0,22,23
 311 373 311 373 412.5 255 c 128,-1,24
 514 137 514 137 702 137 c 0,25,26
 935 137 935 137 1074.5 318.5 c 128,-1,27
 1214 500 1214 500 1214 827 c 0,28,29
 1214 1052 1214 1052 1113.5 1171 c 128,-1,30
 1013 1290 1013 1290 823 1290 c 0,19,20
EndSplineSet
Position2: "'cpsp' Capital Spacing lookup 0 subtable" dx=10 dy=0 dh=20 dv=0
EndChar

StartChar: R
Encoding: 82 82 134
Width: 1249
GlyphClass: 2
Flags: MW
HStem: 631 156<360 528 344 631> 1278 156<412 412 412 653 653 668>
VStem: 922 190<1020 1145>
AnchorPoint: "Anchor-1" 625 1434 basechar 0
AnchorPoint: "Anchor-0" 563 0 basechar 0
LayerCount: 2
Fore
SplineSet
309 1434 m 2,0,-1
 653 1434 l 2,1,2
 880 1434 880 1434 996 1359 c 128,-1,3
 1112 1284 1112 1284 1112 1129.5 c 128,-1,4
 1112 975 1112 975 1038.5 874.5 c 128,-1,5
 965 774 965 774 838 725 c 1,6,-1
 838 717 l 1,7,8
 891 697 891 697 924.5 636 c 128,-1,9
 958 575 958 575 993 461 c 2,10,-1
 1112 57 l 2,11,12
 1116 41 1116 41 1116 35 c 0,13,14
 1116 -4 1116 -4 1026 -4 c 2,15,-1
 1006 -4 l 2,16,17
 934 -4 934 -4 926 29 c 2,18,-1
 813 430 l 2,19,20
 780 547 780 547 716.5 589 c 128,-1,21
 653 631 653 631 528 631 c 2,22,-1
 344 631 l 1,23,-1
 283 41 l 2,24,25
 277 -4 277 -4 197 -4 c 2,26,-1
 180 -4 l 2,27,28
 102 -4 102 -4 102 41 c 1,29,-1
 242 1372 l 2,30,31
 248 1434 248 1434 309 1434 c 2,0,-1
412 1278 m 1,32,-1
 360 786 l 1,33,-1
 631 786 l 2,34,35
 752 786 752 786 837 873.5 c 128,-1,36
 922 961 922 961 922 1069 c 0,37,38
 922 1278 922 1278 668 1278 c 2,39,-1
 412 1278 l 1,32,-1
EndSplineSet
Position2: "'cpsp' Capital Spacing lookup 0 subtable" dx=10 dy=0 dh=20 dv=0
EndChar

StartChar: Racute
Encoding: 340 340 135
Width: 1249
GlyphClass: 2
Flags: MW
HStem: 631 156<360 528 344 631> 1278 156<412 412 412 653 653 668>
VStem: 922 190<1020 1145>
AnchorPoint: "Anchor-1" 717 1796 basechar 0
AnchorPoint: "Anchor-0" 563 0 basechar 0
LayerCount: 2
Fore
SplineSet
821.5 1862 m 128,-1,1
 918 1862 918 1862 918 1837 c 0,2,3
 918 1814 918 1814 700 1597 c 0,4,5
 663 1560 663 1560 605 1560.5 c 128,-1,6
 547 1561 547 1561 547 1579 c 0,7,8
 547 1604 547 1604 688 1808 c 0,9,0
 725 1862 725 1862 821.5 1862 c 128,-1,1
309 1434 m 2,10,-1
 653 1434 l 2,11,12
 880 1434 880 1434 996 1359 c 128,-1,13
 1112 1284 1112 1284 1112 1129.5 c 128,-1,14
 1112 975 1112 975 1038.5 874.5 c 128,-1,15
 965 774 965 774 838 725 c 1,16,-1
 838 717 l 1,17,18
 891 697 891 697 924.5 636 c 128,-1,19
 958 575 958 575 993 461 c 2,20,-1
 1112 57 l 2,21,22
 1116 41 1116 41 1116 35 c 0,23,24
 1116 -4 1116 -4 1026 -4 c 2,25,-1
 1006 -4 l 2,26,27
 934 -4 934 -4 926 29 c 2,28,-1
 813 430 l 2,29,30
 780 547 780 547 716.5 589 c 128,-1,31
 653 631 653 631 528 631 c 2,32,-1
 344 631 l 1,33,-1
 283 41 l 2,34,35
 277 -4 277 -4 197 -4 c 2,36,-1
 180 -4 l 2,37,38
 102 -4 102 -4 102 41 c 1,39,-1
 242 1372 l 2,40,41
 248 1434 248 1434 309 1434 c 2,10,-1
412 1278 m 1,42,-1
 360 786 l 1,43,-1
 631 786 l 2,44,45
 752 786 752 786 837 873.5 c 128,-1,46
 922 961 922 961 922 1069 c 0,47,48
 922 1278 922 1278 668 1278 c 2,49,-1
 412 1278 l 1,42,-1
EndSplineSet
Position2: "'cpsp' Capital Spacing lookup 0 subtable" dx=10 dy=0 dh=20 dv=0
EndChar

StartChar: Rcaron
Encoding: 344 344 136
Width: 1249
GlyphClass: 2
Flags: MW
HStem: 631 156<360 528 344 631> 1278 156<412 412 412 653 653 668>
VStem: 922 190<1020 1145>
AnchorPoint: "Anchor-1" 662 1796 basechar 0
AnchorPoint: "Anchor-0" 563 0 basechar 0
LayerCount: 2
Fore
SplineSet
862 1845 m 2,0,-1
 866 1845 l 2,1,2
 911 1845 911 1845 911 1817 c 0,3,4
 911 1801 911 1801 897 1780 c 2,5,-1
 760 1599 l 2,6,7
 727 1554 727 1554 662 1554 c 2,8,-1
 610 1554 l 2,9,10
 544 1554 544 1554 520 1599 c 2,11,-1
 426 1780 l 2,12,13
 416 1798 416 1798 418 1821.5 c 128,-1,14
 420 1845 420 1845 467 1845 c 2,15,-1
 471 1845 l 2,16,17
 512 1845 512 1845 539 1819 c 1,18,-1
 647 1667 l 1,19,-1
 793 1819 l 1,20,21
 825 1845 825 1845 862 1845 c 2,0,-1
309 1434 m 2,22,-1
 653 1434 l 2,23,24
 880 1434 880 1434 996 1359 c 128,-1,25
 1112 1284 1112 1284 1112 1129.5 c 128,-1,26
 1112 975 1112 975 1038.5 874.5 c 128,-1,27
 965 774 965 774 838 725 c 1,28,-1
 838 717 l 1,29,30
 891 697 891 697 924.5 636 c 128,-1,31
 958 575 958 575 993 461 c 2,32,-1
 1112 57 l 2,33,34
 1116 41 1116 41 1116 35 c 0,35,36
 1116 -4 1116 -4 1026 -4 c 2,37,-1
 1006 -4 l 2,38,39
 934 -4 934 -4 926 29 c 2,40,-1
 813 430 l 2,41,42
 780 547 780 547 716.5 589 c 128,-1,43
 653 631 653 631 528 631 c 2,44,-1
 344 631 l 1,45,-1
 283 41 l 2,46,47
 277 -4 277 -4 197 -4 c 2,48,-1
 180 -4 l 2,49,50
 102 -4 102 -4 102 41 c 1,51,-1
 242 1372 l 2,52,53
 248 1434 248 1434 309 1434 c 2,22,-1
412 1278 m 1,54,-1
 360 786 l 1,55,-1
 631 786 l 2,56,57
 752 786 752 786 837 873.5 c 128,-1,58
 922 961 922 961 922 1069 c 0,59,60
 922 1278 922 1278 668 1278 c 2,61,-1
 412 1278 l 1,54,-1
EndSplineSet
Position2: "'cpsp' Capital Spacing lookup 0 subtable" dx=10 dy=0 dh=20 dv=0
EndChar

StartChar: Rcommaaccent
Encoding: 342 342 137
Width: 1249
GlyphClass: 2
Flags: MW
HStem: 631 156<360 528 344 631> 1278 156<412 412 412 653 653 668>
VStem: 461 184<-221 -151> 922 190<1020 1145>
AnchorPoint: "Anchor-1" 625 1434 basechar 0
AnchorPoint: "Anchor-0" 518 -416 basechar 0
LayerCount: 2
Fore
SplineSet
309 1434 m 2,0,-1
 653 1434 l 2,1,2
 880 1434 880 1434 996 1359 c 128,-1,3
 1112 1284 1112 1284 1112 1129.5 c 128,-1,4
 1112 975 1112 975 1038.5 874.5 c 128,-1,5
 965 774 965 774 838 725 c 1,6,-1
 838 717 l 1,7,8
 891 697 891 697 924.5 636 c 128,-1,9
 958 575 958 575 993 461 c 2,10,-1
 1112 57 l 2,11,12
 1116 41 1116 41 1116 35 c 0,13,14
 1116 -4 1116 -4 1026 -4 c 2,15,-1
 1006 -4 l 2,16,17
 934 -4 934 -4 926 29 c 2,18,-1
 813 430 l 2,19,20
 780 547 780 547 716.5 589 c 128,-1,21
 653 631 653 631 528 631 c 2,22,-1
 344 631 l 1,23,-1
 283 41 l 2,24,25
 277 -4 277 -4 197 -4 c 2,26,-1
 180 -4 l 2,27,28
 102 -4 102 -4 102 41 c 1,29,-1
 242 1372 l 2,30,31
 248 1434 248 1434 309 1434 c 2,0,-1
412 1278 m 1,32,-1
 360 786 l 1,33,-1
 631 786 l 2,34,35
 752 786 752 786 837 873.5 c 128,-1,36
 922 961 922 961 922 1069 c 0,37,38
 922 1278 922 1278 668 1278 c 2,39,-1
 412 1278 l 1,32,-1
551 -104 m 2,40,-1
 569 -104 l 2,41,42
 645 -104 645 -104 645 -162 c 0,43,44
 645 -246 645 -246 550 -363.5 c 128,-1,45
 455 -481 455 -481 399.5 -481 c 128,-1,46
 344 -481 344 -481 344 -451 c 0,47,48
 344 -428 344 -428 402.5 -336 c 128,-1,49
 461 -244 461 -244 461 -170 c 0,50,51
 461 -141 461 -141 485.5 -122.5 c 128,-1,52
 510 -104 510 -104 551 -104 c 2,40,-1
EndSplineSet
Position2: "'cpsp' Capital Spacing lookup 0 subtable" dx=10 dy=0 dh=20 dv=0
EndChar

